<svg xmlns="http://www.w3.org/2000/svg" fill="none" viewBox="0 0 910 855"><g clip-path="url(#a)"><path d="M910 0v855H0V0z" fill="#FAFAFA"/><mask id="b" width="910" height="855" x="0" y="0" maskUnits="userSpaceOnUse" style="mask-type:alpha"><path d="M910 855V0H0v855h910Z" fill="#DBC097"/></mask><g mask="url(#b)"><path d="M469.269 1298.64V-158.75h-16.841v1457.39h16.841Z" fill="#D19D47"/><path d="M469.269 310.494V-158.75h-16.841v469.244h16.841Z" fill="#C89742"/><path d="M486.11 1298.64V-158.75h-16.841v1457.39h16.841Z" fill="#C98A28"/><path d="M486.11 1298.64V848.756h-16.841v449.884h16.841Z" fill="#C49245"/><path d="M502.951 1298.64V-158.75H486.11v1457.39h16.841Z" fill="#CC9338"/><path d="M519.792 1298.64V-158.75h-16.841v1457.39h16.841Z" fill="#CD9D4E"/><path d="M519.792 494.125V-158.75h-16.841v652.875h16.841Z" fill="#CA8C2F"/><path d="M536.633 1298.64V-158.75h-16.841v1457.39h16.841Z" fill="#DAA549"/><path d="M536.633 759.403V89.005h-16.841v670.398h16.841Z" fill="#DA9F3B"/><path d="M553.474 1298.64V-158.75h-16.841v1457.39h16.841Z" fill="#D8A651"/><path d="M570.315 1298.64V-158.75h-16.841v1457.39h16.841Z" fill="#CF8F31"/><path d="M570.315 1298.64V654.437h-16.841v644.203h16.841Z" fill="#CA8C2F"/><path d="M587.156 1298.64V-158.75h-16.84v1457.39h16.84Z" fill="#CD9D4E"/><path d="M587.156 750.644V167.69h-16.84v582.954h16.84Z" fill="#C89240"/><path d="M603.996 1298.64V-158.75h-16.84v1457.39h16.84Z" fill="#CC9338"/><path d="M603.996 913.853V476.636h-16.84v437.217h16.84Z" fill="#CC9844"/><path d="M620.837 1298.64V-158.75h-16.841v1457.39h16.841Z" fill="#CA8C2F"/><path d="M637.678 1298.64V-158.75h-16.841v1457.39h16.841Z" fill="#D3A24E"/><path d="M637.678 286.204V-158.75h-16.841v444.954h16.841Z" fill="#C78925"/><path d="M654.519 1298.64V-158.75h-16.841v1457.39h16.841Z" fill="#C88F39"/><path d="M654.519 1298.64V730.707h-16.841v567.933h16.841Z" fill="#D3A24A"/><path d="M671.36 1298.64V-158.75h-16.841v1457.39h16.841Z" fill="#DAA549"/><path d="M671.36 526.221V-56.733h-16.841V526.22h16.841Z" fill="#C48930"/><path d="M688.201 1298.64V-158.75H671.36v1457.39h16.841Z" fill="#CD9D4E"/><path d="M688.201 803.125V220.17H671.36v582.955h16.841Z" fill="#C89240"/><path d="M705.042 1298.64V-158.75h-16.841v1457.39h16.841Z" fill="#D6A447"/><path d="M721.883 1298.64V-158.75h-16.841v1457.39h16.841Z" fill="#C88D32"/><path d="M721.883 219.165V-158.75h-16.841v377.915h16.841Z" fill="#C5832D"/><path d="M738.724 1298.64V-158.75h-16.841v1457.39h16.841Z" fill="#D19F48"/><path d="M738.724 1298.64V691.358h-16.841v607.282h16.841Z" fill="#CE943D"/><path d="M755.565 1298.64V-158.75h-16.841v1457.39h16.841Z" fill="#C48930"/><path d="M755.565 633.062V50.108h-16.841v582.954h16.841Z" fill="#C48F3D"/><path d="M772.406 1298.64V-158.75h-16.84v1457.39h16.84Z" fill="#CC9338"/><path d="M789.247 1298.64V-158.75h-16.841v1457.39h16.841Z" fill="#CD9D4E"/><path d="M789.247 75.977V-158.75h-16.841V75.977h16.841Z" fill="#C88F37"/><path d="M806.087 1298.64V-158.75h-16.84v1457.39h16.84Z" fill="#DAA549"/><path d="M822.928 1298.64V-158.75h-16.841v1457.39h16.841Z" fill="#D3A24A"/><path d="M822.928 905.142V409.63h-16.841v495.512h16.841Z" fill="#CF9A3F"/><path d="M839.769 1298.64V-158.75h-16.841v1457.39h16.841Z" fill="#D8A651"/><path d="M839.769 264.344V-158.75h-16.841v423.094h16.841Z" fill="#D49D44"/><path d="M856.61 1298.64V-158.75h-16.841v1457.39h16.841Z" fill="#D7A246"/><path d="M856.61 1298.64V660.267h-16.841v638.373h16.841Z" fill="#C88D32"/><path d="M873.451 1298.64V-158.75H856.61v1457.39h16.841Z" fill="#CD9D4E"/><path d="M873.451 95.287V-158.75H856.61V95.287h16.841Z" fill="#CE9742"/><path d="M890.292 1298.64V-158.75h-16.841v1457.39h16.841Z" fill="#CC9338"/><path d="M907.133 1298.64V-158.75h-16.841v1457.39h16.841Z" fill="#D19740"/><path d="M907.133 1298.64V654.437h-16.841v644.203h16.841Z" fill="#CA913C"/><path d="M923.974 1298.64V-158.75h-16.841v1457.39h16.841Z" fill="#D8A651"/><path d="M923.974 237.159V-158.75h-16.841v395.909h16.841Z" fill="#C78925"/><path d="M14.568 1298.64V-158.75H-2.273v1457.39h16.84Z" fill="#CF8F31"/><path d="M14.568 1298.64V654.437H-2.273v644.203h16.84Z" fill="#CA8C2F"/><path d="M31.408 1298.64V-158.75h-16.84v1457.39h16.84Z" fill="#CD9D4E"/><path d="M31.408 750.644V167.69h-16.84v582.954h16.84Z" fill="#C89240"/><path d="M48.25 1298.64V-158.75H31.407v1457.39H48.25Z" fill="#CC9338"/><path d="M48.25 913.853V476.636H31.407v437.217H48.25Z" fill="#CC9844"/><path d="M65.09 1298.64V-158.75H48.25v1457.39h16.84Z" fill="#CA8C2F"/><path d="M81.931 1298.64V-158.75h-16.84v1457.39h16.84Z" fill="#D3A24E"/><path d="M81.931 286.204V-158.75h-16.84v444.954h16.84Z" fill="#C78925"/><path d="M98.772 1298.64V-158.75h-16.84v1457.39h16.84Z" fill="#C88F39"/><path d="M98.772 1298.64V730.707h-16.84v567.933h16.84Z" fill="#D3A24A"/><path d="M115.613 1298.64V-158.75h-16.84v1457.39h16.84Z" fill="#DAA549"/><path d="M115.613 526.221V-56.733h-16.84V526.22h16.84Z" fill="#C48930"/><path d="M132.454 1298.64V-158.75h-16.841v1457.39h16.841Z" fill="#CD9D4E"/><path d="M132.454 803.125V220.17h-16.841v582.955h16.841Z" fill="#C89240"/><path d="M149.295 1298.64V-158.75h-16.84v1457.39h16.84Z" fill="#D6A447"/><path d="M166.136 1298.64V-158.75h-16.841v1457.39h16.841Z" fill="#C88D32"/><path d="M166.136 219.165V-158.75h-16.841v377.915h16.841Z" fill="#C5832D"/><path d="M182.977 1298.64V-158.75h-16.841v1457.39h16.841Z" fill="#D19F48"/><path d="M182.977 1298.64V691.358h-16.841v607.282h16.841Z" fill="#CE943D"/><path d="M199.817 1298.64V-158.75h-16.84v1457.39h16.84Z" fill="#C48930"/><path d="M199.817 633.062V50.108h-16.84v582.954h16.84Z" fill="#C48F3D"/><path d="M216.658 1298.64V-158.75h-16.84v1457.39h16.84Z" fill="#CC9338"/><path d="M233.499 1298.64V-158.75h-16.841v1457.39h16.841Z" fill="#CD9D4E"/><path d="M233.499 75.977V-158.75h-16.841V75.977h16.841Z" fill="#C88F37"/><path d="M250.34 1298.64V-158.75h-16.841v1457.39h16.841Z" fill="#DAA549"/><path d="M267.181 1298.64V-158.75h-16.84v1457.39h16.84Z" fill="#D3A24A"/><path d="M267.181 905.142V409.63h-16.84v495.512h16.84Z" fill="#CF9A3F"/><path d="M284.022 1298.64V-158.75h-16.841v1457.39h16.841Z" fill="#D8A651"/><path d="M284.022 264.344V-158.75h-16.841v423.094h16.841Z" fill="#D49D44"/><path d="M300.863 1298.64V-158.75h-16.841v1457.39h16.841Z" fill="#D7A246"/><path d="M300.863 1298.64V660.267h-16.841v638.373h16.841Z" fill="#C88D32"/><path d="M317.704 1298.64V-158.75h-16.841v1457.39h16.841Z" fill="#CD9D4E"/><path d="M317.704 95.287V-158.75h-16.841V95.287h16.841Z" fill="#CE9742"/><path d="M334.545 1298.64V-158.75h-16.841v1457.39h16.841Z" fill="#CC9338"/><path d="M351.386 1298.64V-158.75h-16.841v1457.39h16.841Z" fill="#D19740"/><path d="M351.386 1298.64V654.437h-16.841v644.203h16.841Z" fill="#CA913C"/><path d="M368.227 1298.64V-158.75h-16.84v1457.39h16.84Z" fill="#D8A651"/><path d="M368.227 237.159V-158.75h-16.84v395.909h16.84Z" fill="#C78925"/><path d="M385.068 1298.64V-158.75h-16.841v1457.39h16.841Z" fill="#D3A24A"/><path d="M385.068 633.062V-158.75h-16.841v791.812h16.841Z" fill="#CB8D3D"/><path d="M401.908 1298.64V-158.75h-16.841v1457.39h16.841Z" fill="#CD9D4E"/><path d="M401.908 788.551V351.335h-16.841V788.55h16.841Z" fill="#CE9844"/><path d="M418.749 1298.64V-158.75h-16.841v1457.39h16.841Z" fill="#D6A447"/><path d="M435.59 1298.64V-158.75h-16.84v1457.39h16.84Z" fill="#C48930"/><path d="M435.59 75.977V-158.75h-16.84V75.977h16.84Z" fill="#C37E28"/><path d="M452.431 1298.64V-158.75h-16.838v1457.39h16.838Z" fill="#CE943D"/><path d="M452.431 1298.64V695.244h-16.838v603.396h16.838Z" fill="#D19D47"/><path d="M-99.091 1304.25H1012.41V-201.716H-99.091V1304.25Z" fill="#F0E1CD" fill-opacity=".6"/></g></g><path d="M310 1h291v344H310z" fill="#F7941E" fill-opacity=".2"/><path d="M246.54 152.293c-13.012-2.43-24.305-8.741-31.319-17.736-4.148-5.313-6.413-11.11-6.71-16.992-.11-1.627 1.206-2.243 2.488-2.23 22.469.174 37.186 2.57 44.001 4.746v-6.175c-13.38-3.993-36.078-4.397-43.302-4.453-1.236-.013-2.183-.963-1.441-2.588 2.207-4.892 5.394-9.504 10.274-13.245 5.68-4.348 12.747-7.23 20.462-8.585A46.906 46.906 0 0 1 255 104.224V71.001c-15.658 0-28.574 1.35-39.502 3.495a47.688 47.688 0 0 1 18.848 6.014c-6.47 1.802-12.431 4.606-17.455 8.451-7.264 5.562-11.916 12.64-13.627 20.601a265.13 265.13 0 0 0-7.39.297c1.49-16.469 6.06-28.63 11.065-33.417-3.08.79-6.132 1.683-9.15 2.677-4.2 7.89-6.877 19.234-7.909 31.14-1.55.114-3.117.253-4.692.422-1.272-7.822-4.932-14.713-10.579-19.918a47.068 47.068 0 0 1 3.235-3.378c-16.337 8.06-27.403 16.065-44.05 16.065-20.753 0-30.794-8.759-30.794-8.759 12.817 61.713 55.6 67.234 84.176 67.558a47.561 47.561 0 0 1-15.315-13.77c8.57-8.536 13.881-20.057 13.796-31.905 1.23-.128 2.518-.26 3.85-.369-.07 1.72-.106 3.441-.108 5.162 0 14.978 2.635 30.502 7.67 40.86a431.08 431.08 0 0 1 2.94-.014c1.294.001 2.568.026 3.828.071-4.75-7.837-8.492-22.515-8.492-40.916 0-1.91.055-3.77.132-5.609 2.35-.124 4.7-.217 7.053-.278-.205 7.895 2.522 15.675 7.98 22.687 7.181 9.194 18.23 15.88 31.018 19.066a47.838 47.838 0 0 1-14.44 8.357C244.435 169.95 255 177 255 177v-38.459a47.153 47.153 0 0 1-8.46 13.753v-.001Zm-75.555-56.792c3.702 3.56 6.343 8.034 7.707 13.094.348 1.534-.186 2.804-1.423 3.076-5.188.8-9.99 1.9-13.634 3.38a46.478 46.478 0 0 1 7.35-19.544Zm-2.258 47.96a46.485 46.485 0 0 1-5.546-21.718c1.65-1.234 6.699-2.896 15.078-4.208 1.188-.212 1.433.441 1.406 1.438-.293 9.068-4.46 17.754-10.945 24.49Z" fill="#000" opacity=".5" style="mix-blend-mode:soft-light"/><path d="M907.5 852.5H2.5V2.5h905v850Z" stroke="#000" stroke-width="5"/><path d="M310 0v346h291V.5" stroke="#000" stroke-width="5"/><path d="M564 345.5c0 60.475-48.801 109.5-109 109.5-60.2 0-109-49.025-109-109.5" stroke="#000" stroke-width="5"/><path d="M346 345c0-60.475 48.8-109.5 109-109.5 60.199 0 109 49.025 109 109.5" stroke="#000" stroke-dasharray="30 20" stroke-width="5"/><path d="M564 854.5c0-60.475-48.801-109.5-109-109.5-60.2 0-109 49.025-109 109.5" stroke="#000" stroke-width="5"/><circle cx="455" cy="96" r="11.5" stroke="#000" stroke-width="5"/><path d="M527.5 96c0 40.869-31.407 73-72 73S383 136.869 383 96m20.5-24.5h103" stroke="#000" stroke-linecap="square" stroke-width="5"/><path d="M0 508.5h55m800 0h55m-308-382h8m-309 0h8m293 18h8m-309 0h8m293 73h8m-309 0h8m293 54h8m-309 0h8M55 0v259.5C106 392 259.312 528 453 528c191.656 0 350-129 402-268V0" stroke="#000" stroke-width="5"/><g clip-path="url(#c)"><path d="M854.389 606.979v10.146c0 2.17-.245 3.957-.795 5.233-.488 1.34-1.222 2.233-2.2 2.871-.916.575-2.016.894-3.3.894-1.161 0-2.138-.256-3.055-.83-.86-.51-1.59-1.404-2.2-2.616-.617 1.53-1.41 2.552-2.389 3.19-.978.638-2.14.958-3.423.958-2.14 0-3.85-.766-5.194-2.298-1.283-1.531-1.956-3.956-1.956-7.274v-10.338h24.506v.064Zm-9.84 9.763c0 1.404.245 2.425.734 3.063.49.638 1.223.957 2.2.957.978 0 1.711-.319 2.2-.957.428-.638.673-1.786.673-3.318v-4.21h-5.806v4.465Zm-10.571.128c0 1.723.305 2.935.855 3.573.61.64 1.406.958 2.506.958 1.16 0 2.017-.319 2.567-1.02.55-.703.855-1.852.855-3.447v-4.722h-6.722v4.658h-.061Zm20.411 19.526v6.637l-24.445 9.061v-5.807l5.378-1.914v-9.572l-5.378-1.914v-5.616l24.445 9.125Zm-14.667 6.573 9.96-3.446-9.96-3.382v6.828Zm-8.311 28.077c-1.405-1.723-2.078-4.34-2.078-7.721 0-3.255.673-5.807 1.956-7.722 1.344-1.914 3.36-2.935 6.11-3.19v5.552c-1.343.19-2.321.765-2.932 1.659-.61.893-.917 2.169-.917 3.892 0 1.66.306 2.808.917 3.446.61.638 1.344.957 2.26.957.734 0 1.345-.255 1.895-.702.55-.447.917-1.404 1.1-2.808l.61-3.382c.49-2.743 1.285-4.785 2.385-6.125 1.1-1.34 2.75-2.042 4.89-2.042 1.587 0 2.932.446 4.032 1.276 1.1.83 1.894 2.042 2.505 3.573.55 1.532.856 3.318.856 5.297 0 2.233-.306 4.02-.917 5.424-.61 1.403-1.405 2.488-2.444 3.254s-2.26 1.212-3.606 1.404l-.672-5.424c1.16-.319 1.956-.83 2.506-1.468.55-.702.794-1.787.794-3.318 0-1.595-.244-2.808-.794-3.446-.55-.702-1.223-1.02-2.017-1.02-.794 0-1.467.254-1.894.765-.428.51-.795 1.468-1.04 2.744l-.672 3.51c-.55 2.807-1.344 4.913-2.505 6.19-1.161 1.275-2.75 1.913-4.89 1.913-2.138.064-4.032-.765-5.438-2.488Zm22.978 5.424v5.615h-10.145l10.145 9.444v6.062l-9.106-8.55-15.34 9.444v-6.19l11.49-7.02-3.36-3.19h-8.13v-5.615h24.446Zm0 24.184v17.676h-4.34v-12.124h-5.438v11.422h-4.34v-11.422h-5.927v12.89l-4.338-.574v-17.868h24.383Zm-4.706 28.14v-7.784h4.706v21.25h-4.706v-7.85h-19.74v-5.615h19.74Zm4.706 16.018v10.146c0 2.169-.245 3.956-.795 5.232-.488 1.34-1.222 2.234-2.2 2.872-.916.574-2.016.893-3.3.893-1.161 0-2.138-.255-3.055-.83-.863-.51-1.595-1.403-2.205-2.616-.612 1.532-1.407 2.553-2.384 3.19-.978.634-2.14.953-3.423.953-2.14 0-3.85-.766-5.194-2.297-1.283-1.532-1.956-3.956-1.956-7.275v-10.337l24.506.064Zm-9.84 9.763c0 1.404.245 2.425.734 3.063.49.638 1.223.957 2.2.957.978 0 1.71-.32 2.2-.957.428-.638.673-1.787.673-3.318v-4.212h-5.806v4.467Zm-10.571.128c0 1.722.305 2.935.855 3.573.61.638 1.406.957 2.506.957 1.16 0 2.017-.319 2.567-1.02.55-.703.855-1.85.855-3.447v-4.722h-6.722v4.66h-.061Zm20.41 19.526v6.636l-24.444 9.061v-5.806l5.378-1.915v-9.571l-5.378-1.915v-5.615l24.445 9.125Zm-14.666 6.572 9.96-3.445-9.96-3.382v6.827Zm14.667 11.104v5.615h-19.74v11.997l-4.705-.64v-17.036l24.445.071Zm0 20.483v5.615h-19.74V830l-4.705-.638v-17.038h24.445v.064Zm-28.48-205.409v8.168c0 4.53-1.466 6.764-4.34 6.764-1.952 0-3.297-1.148-3.91-3.446l-6.292 4.403v-2.807l5.866-4.021v-6.636h-5.866v-2.36h14.544v-.065Zm-6.904 7.977c0 3 .855 4.466 2.566 4.466.917 0 1.528-.32 1.956-1.021.428-.7.61-1.786.61-3.382v-5.615h-5.132v5.552Zm6.905 10.656v13.911h-1.772v-11.486h-4.4v10.912l-1.772-.006v-10.913h-4.828v11.997l-1.772-.447V625.61h14.544Zm0 17.74v13.21h-1.772v-10.785h-4.583v10.273h-1.773v-10.273h-6.416v-2.425h14.544Zm0 16.144v13.911h-1.772V661.92h-4.4v10.912h-1.772V661.92l-4.828.001v12l-1.772-.444V659.5h14.544Zm0 17.421v8.167c0 4.531-1.467 6.764-4.34 6.764-1.953 0-3.298-1.148-3.91-3.445l-6.293 4.403v-2.808l5.866-4.02v-6.637h-5.866v-2.36l14.544-.064Zm-6.905 7.912c0 2.993.855 4.461 2.566 4.461.917 0 1.528-.32 1.956-1.02.428-.703.61-1.788.61-3.383v-5.615h-5.132v5.55Zm6.905 10.46v13.91h-1.772v-11.485h-4.4v10.912h-1.772v-10.912h-4.828v11.997l-1.772-.447V695.29h14.544Zm0 17.484v2.36l-11.672 11.614h11.672v2.36h-14.544v-2.36l11.672-11.613h-11.672v-2.36h14.544Zm-4.4 36.691-.305-2.36c1.16-.51 2.016-1.213 2.505-2.17.49-.959.795-2.235.795-3.958 0-1.404-.245-2.616-.734-3.637-.49-1.02-1.161-1.787-2.016-2.36-.856-.575-1.895-.83-3.117-.83s-2.26.255-3.117.83c-.855.573-1.528 1.34-2.016 2.36-.49 1.021-.673 2.233-.673 3.701 0 1.787.245 3.191.795 4.212.55 1.02 1.405 1.66 2.566 1.978v2.488c-1.65-.32-2.933-1.276-3.85-2.744-.855-1.467-1.344-3.445-1.344-5.934 0-1.914.306-3.573.917-4.977.61-1.405 1.527-2.49 2.627-3.256 1.162-.766 2.506-1.149 4.034-1.149s2.872.383 4.033 1.148c1.16.766 2.017 1.85 2.689 3.255.61 1.404.978 3.063.978 4.913 0 4.595-1.59 7.402-4.767 8.487Zm4.4 2.935v13.911h-1.772v-11.48h-4.4v10.912h-1.772V754.83h-4.828v11.997l-1.772-.447v-13.975h14.544Z" fill="#59595B"/><path d="M855 600.279h-44s6.11-9.508 6.11-23.61c0-11.36-1.832-35.224 28.05-41.669 0 0-3.604 4.34-3.604 13.209 0 14.485 13.444 19.143 13.444 52.07Z" fill="#fff"/><path d="M821.267 596.706c1.039-5.616 3.605-10.402 7.333-13.465 2.2-1.786 4.583-2.744 7.028-2.87.672-.065.916.51.916 1.084-.06 9.635-1.038 15.953-1.955 18.888h2.567c1.65-5.743 1.833-15.506 1.833-18.569 0-.51.428-.957 1.1-.638 2.017.957 3.972 2.297 5.5 4.403 1.833 2.424 2.994 5.487 3.544 8.806-2.077 2.68-4.827 4.722-7.944 5.998h13.81c0-6.7-.55-12.252-1.47-16.974-.307 2.935-1.16 5.679-2.507 8.104-.734-2.808-1.895-5.36-3.484-7.466-2.321-3.127-5.254-5.105-8.554-5.87 0-.958-.06-2.042-.122-3.19 6.844.637 11.855 2.615 13.872 4.721-.367-1.404-.733-2.68-1.1-3.956-3.3-1.787-8.006-2.936-12.956-3.382-.06-.638-.12-1.34-.182-2.042 3.24-.575 6.11-2.106 8.25-4.531.49.447.978.893 1.406 1.404-3.3-6.956-6.6-11.74-6.6-18.888 0-8.934 3.605-13.21 3.605-13.21-25.605 5.49-27.928 23.866-28.05 36.118a19.434 19.434 0 0 1 5.745-6.573c3.544 3.702 8.31 6 13.2 5.935.06.51.122 1.085.183 1.659-.733 0-1.406-.064-2.14-.064-6.232 0-12.65 1.15-16.988 3.318v2.936c3.24-2.042 9.35-3.638 16.99-3.638.793 0 1.588 0 2.32.064.06.957.06 1.978.121 3-3.3-.064-6.476 1.084-9.41 3.445-3.79 3.063-6.6 7.849-7.944 13.337-1.467-1.85-2.69-3.893-3.483-6.19-1.834 7.466-4.767 11.997-4.767 11.997h16.01c-2.077-.958-4.032-2.17-5.682-3.701Zm23.589-32.48a11.608 11.608 0 0 1-5.439 3.318c-.61.127-1.161-.064-1.284-.638-.305-2.234-.794-4.276-1.405-5.87 2.933.446 5.683 1.594 8.128 3.19Zm-19.923-.958c2.689-1.467 5.745-2.36 9.045-2.36.49.701 1.222 2.87 1.772 6.444.061.511-.183.638-.61.638-3.79-.127-7.396-1.914-10.207-4.722Z" fill="#F79420"/></g><defs><clipPath id="a"><path d="M910 0v855H0V0z" fill="#fff"/></clipPath><clipPath id="c"><path d="M855 535v295h-44V535z" fill="#fff"/></clipPath></defs></svg>