<svg width="500" height="501" viewBox="0 0 500 501" fill="none" xmlns="http://www.w3.org/2000/svg">
<mask id="mask0_5465_22443" style="mask-type:luminance" maskUnits="userSpaceOnUse" x="0" y="0" width="500" height="501">
<path fill-rule="evenodd" clip-rule="evenodd" d="M499.278 500.362V0.858398H0.000244141V500.362H499.278Z" fill="white"/>
</mask>
<g mask="url(#mask0_5465_22443)">
<path fill-rule="evenodd" clip-rule="evenodd" d="M433.001 79.4854C386.256 29.5175 318.192 0.858398 246.241 0.858398C240.099 0.858398 233.911 1.05914 227.8 1.48122C111.713 9.36768 55.5951 91.8671 49.7761 100.952C41.2221 111.84 -32.4709 211.354 16.891 348.877L17.8138 351.847C18.2787 353.333 66.3404 500.362 238.128 500.362H238.159C247.352 500.362 256.924 499.937 266.567 499.077C394.865 487.816 490.295 392.99 498.668 268.531C503.438 197.028 480.117 129.892 433.001 79.4854Z" fill="#FEFEFE"/>
</g>
<path fill-rule="evenodd" clip-rule="evenodd" d="M382.456 307.032C399.88 268.719 391.113 227.052 361.759 194.177C353.6 185.053 343.429 178.846 333.582 172.829C327.188 168.91 320.557 164.872 314.636 160.077C311.845 157.821 309.551 154.778 307.122 151.548C304.119 147.542 300.705 142.987 295.809 139.453C268.593 119.765 236.576 112.557 204.959 103.208C190.027 98.8072 175.496 95.5465 161.81 90.6763C178.689 78.9414 200.411 71.3552 224.103 69.0441C231.545 68.314 238.98 67.9477 246.241 67.9477C316.079 67.9477 377.071 103.129 409.404 162.052C441.783 221.094 439.656 292.734 403.799 349.039C366.979 406.881 301.659 437.642 227.729 431.542C183.499 427.914 136.375 404.445 121.876 379.59C130.856 374.066 211.615 331.251 266.866 348.495C282.705 348.545 257.374 386.913 257.374 386.913C257.374 386.913 349.579 379.299 382.456 307.032ZM420.734 90.5665C372.601 39.123 301.328 12.7039 228.589 17.6444C113.118 25.5 61.9018 111.382 61.9018 111.382C61.9018 111.382 153.389 139.127 165.996 143.027C174.559 145.696 231.663 159.808 257.421 173.988C262.783 176.946 268.057 182.857 273.253 188.389C277.108 192.482 280.735 196.354 284.512 199.45C291.276 204.989 297.898 209.785 304.3 214.418C320.163 225.889 333.858 235.794 340.228 250.865C345.755 263.944 345.968 277.513 340.844 290.131C336.381 301.109 328.015 310.892 317.616 317.584C318.673 312.024 320.092 304.086 312.586 299.141C309.386 297.036 292.112 292.963 280.561 291.807C275.034 291.244 213.223 288.345 127.395 334.702C153.145 300.364 171.579 294.654 171.579 294.654C170.884 290.51 32.738 346.48 32.738 346.48C32.738 346.48 80.3821 499.179 264.832 482.961C384.821 472.394 474.228 384.614 482.073 267.426C486.566 200.491 464.774 137.676 420.734 90.5665Z" fill="#E0393E"/>
<path fill-rule="evenodd" clip-rule="evenodd" d="M245.776 190.905C216.124 192.076 188.86 156.43 165.98 179.773C170.411 180.904 179.43 177.443 180.827 181.631C169.079 227.702 245.272 239.572 245.776 190.905Z" fill="#E0393E"/>
</svg>
