<svg width="500" height="500" viewBox="0 0 500 500" fill="none" xmlns="http://www.w3.org/2000/svg">
<g id="Style=Alternate, Color=Light">
<g id="Page 1">
<g id="Group 3">
<path id="Fill 1" fill-rule="evenodd" clip-rule="evenodd" d="M490.567 189.957C524.051 323.401 443.309 458.512 310.569 491.763C177.615 525.06 42.8754 443.712 9.49837 310.247C-23.7775 176.681 56.8049 41.5375 189.666 8.38238C322.458 -24.8074 457.254 56.4691 490.567 189.957Z" fill="#231F20"/>
</g>
<path id="Fill 4" fill-rule="evenodd" clip-rule="evenodd" d="M471.135 194.805C501.926 317.466 427.715 441.673 305.685 472.239C183.446 502.852 59.6099 428.073 28.9385 305.39C-1.64531 182.617 72.4077 58.3894 194.524 27.9087C316.622 -2.58937 440.513 72.1158 471.135 194.805Z" fill="#FEFEFE"/>
<g id="Group 9">
<path id="Fill 6" fill-rule="evenodd" clip-rule="evenodd" d="M50.9837 131.108C50.9837 131.108 88.3368 117.109 166.569 156.224C215.264 180.521 293.579 237.057 341.573 248.551C386.54 259.426 412.104 262.014 433.249 247.56C436.651 266.237 438.147 283.984 438.147 300.522C406.386 316.311 344.145 336.446 285.186 341.579C212.467 347.753 179.814 343.762 109.338 320.283C38.9585 296.802 21.8428 265.035 21.8428 265.035C21.8428 265.035 35.4852 305.446 97.8212 332.009C157.697 357.56 229.726 367.717 310.361 351.467C377.15 337.944 414.621 325.345 437.932 312.926C436.986 329.678 434.58 344.934 430.717 358.986C429.993 359.415 429.285 359.846 428.758 360.213C423.478 363.446 418.157 366.204 412.645 369.222C401.018 375.937 389.446 382.677 377.579 389.13C354.252 401.763 330.861 414.349 307.326 426.785C300.797 430.12 294.392 433.66 287.775 436.949C263.642 449.208 242.029 456.123 215.071 459.325C192.676 462.008 171.499 459.126 148.722 452.282C141.84 450.235 134.242 448.555 128.293 445.001C132.959 453.208 152.934 458.816 164.936 461.787C178.778 465.196 193.018 466.837 207.474 466.942C217.015 467.053 226.396 466.297 235.889 464.863C246.712 463.124 257.214 460.471 267.616 457.19C305.241 445.53 340.043 425.851 373.302 405.044C387.136 396.37 399.338 389.487 411.945 380.653C417.552 376.694 422.41 373.085 427.604 369.422C411.609 415.886 380.135 448.365 343.411 461.517C376.656 455.916 416.707 417.473 436.986 362.738C438.147 361.916 439.574 361.04 440.968 360.004C450.739 353.569 451.734 360.482 450.525 357.885C450.525 357.885 454.554 356.977 454.164 353.68C453.701 350.192 445.722 351.512 439.916 354.136C444.583 339.407 447.833 323.35 449.028 306.449C451.575 304.772 453.758 303.092 455.98 301.414C477.22 284.766 480.38 248.025 480.38 248.025C480.38 248.025 474.537 275.395 454.371 290.928C453.089 291.976 451.447 293.018 449.576 294.185C449.927 276.701 448.087 258.148 443.644 238.908C500.125 185.608 443.221 124.149 443.221 124.149C443.221 124.149 471.955 171.782 451.447 211.588C448.629 217.237 444.797 222.179 440.402 226.278C402.149 93.9584 286.914 1.35339 181.256 28.7436C323.398 13.5769 411.499 152.505 429.077 227.042C429.682 229.134 429.993 231.168 430.471 233.415C413.251 242.761 388.3 244.392 355.732 236.212C299.951 222.179 198.394 156.567 142.35 132.773C92.9167 111.771 71.1565 117.644 59.9278 122.008C48.6018 126.12 50.9837 131.108 50.9837 131.108Z" fill="#231F20"/>
<path id="Stroke 8" d="M50.9837 131.108C50.9837 131.108 88.3368 117.109 166.569 156.224C215.264 180.521 293.579 237.057 341.573 248.551C386.54 259.426 412.104 262.014 433.249 247.56C436.651 266.237 438.147 283.984 438.147 300.522C406.386 316.311 344.145 336.446 285.186 341.579C212.467 347.753 179.814 343.762 109.338 320.283C38.9585 296.802 21.8428 265.035 21.8428 265.035C21.8428 265.035 35.4852 305.446 97.8212 332.009C157.697 357.56 229.726 367.717 310.361 351.467C377.15 337.944 414.621 325.345 437.932 312.926C436.986 329.678 434.58 344.934 430.717 358.986C429.993 359.415 429.285 359.846 428.758 360.213C423.478 363.446 418.157 366.204 412.645 369.222C401.018 375.937 389.446 382.677 377.579 389.13C354.252 401.763 330.861 414.349 307.326 426.785C300.797 430.12 294.392 433.66 287.775 436.949C263.642 449.208 242.029 456.123 215.071 459.325C192.676 462.008 171.499 459.126 148.722 452.282C141.84 450.235 134.242 448.555 128.293 445.001C132.959 453.208 152.934 458.816 164.936 461.787C178.778 465.196 193.018 466.837 207.474 466.942C217.015 467.053 226.396 466.297 235.889 464.863C246.712 463.124 257.214 460.471 267.616 457.19C305.241 445.53 340.043 425.851 373.302 405.044C387.136 396.37 399.338 389.487 411.945 380.653C417.552 376.694 422.41 373.085 427.604 369.422C411.609 415.886 380.135 448.365 343.411 461.517C376.656 455.916 416.707 417.473 436.986 362.738C438.147 361.916 439.574 361.04 440.968 360.004C450.739 353.569 451.734 360.482 450.525 357.885C450.525 357.885 454.554 356.977 454.164 353.68C453.701 350.192 445.722 351.512 439.916 354.136C444.583 339.407 447.833 323.35 449.028 306.449C451.575 304.772 453.758 303.092 455.98 301.414C477.22 284.766 480.38 248.025 480.38 248.025C480.38 248.025 474.537 275.395 454.371 290.928C453.089 291.976 451.447 293.018 449.576 294.185C449.927 276.701 448.087 258.148 443.644 238.908C500.125 185.608 443.221 124.149 443.221 124.149C443.221 124.149 471.955 171.782 451.447 211.588C448.629 217.237 444.797 222.179 440.402 226.278C402.149 93.9584 286.914 1.35339 181.256 28.7436C323.398 13.5769 411.499 152.505 429.077 227.042C429.682 229.134 429.993 231.168 430.471 233.415C413.251 242.761 388.3 244.392 355.732 236.212C299.951 222.179 198.394 156.567 142.35 132.773C92.9167 111.771 71.1565 117.644 59.9278 122.008C48.6018 126.12 50.9837 131.108 50.9837 131.108" stroke="#231F20" stroke-width="2.91426"/>
</g>
<path id="Fill 10" fill-rule="evenodd" clip-rule="evenodd" d="M345.746 297.687C345.746 280.172 345.746 254.136 325.238 233.926C327.443 230.006 329.324 225.729 330.732 221.165C334.182 210.724 334.501 199.281 334.309 191.848L334.182 143.635V142.943C333.64 124.958 330.948 106.043 316.502 89.5921C303.48 74.7646 283.911 67.0093 259.89 67.0093L195.208 67.1605C188.136 67.1605 181.143 69.9611 176.031 75.1586C170.983 80.2482 168.043 87.1827 168.043 94.5112L168.649 411.092C168.649 420.562 173.435 429.214 181.367 434.089C185.802 436.792 190.82 438.265 196.045 438.265L261.874 438.184C285.615 438.121 305.565 431.239 321.055 417.743L321.263 417.599C342.957 397.923 345.3 374.711 345.857 352.517V352.278L345.746 297.687Z" fill="#FEFEFE"/>
<path id="Fill 12" fill-rule="evenodd" clip-rule="evenodd" d="M258.442 220.829C253.137 222.327 250.572 222.825 238.996 223.203L227.464 223.259C225.488 223.335 224.955 222.367 224.955 220.829C224.955 219.897 224.828 123.254 224.828 123.254C224.828 121.716 225.401 120.76 227.035 120.609H244.833H246.243C254.785 120.896 264.296 121.175 270.388 124.952C273.191 126.694 274.888 128.799 275.915 131.603C276.783 134.478 277.579 139.513 278.082 148.084L278.194 185.871C278.082 186.529 278.082 187.467 278.082 188.73C277.787 198.501 277.579 215.01 258.442 220.829ZM280.249 378.391C275.62 381.745 269.981 383.713 255.566 384.207C255.566 384.207 230.744 384.277 228.865 384.277C226.62 384.277 225.76 382.907 225.76 380.766C225.76 362.283 225.488 260.523 225.488 259.644C225.488 258.717 225.76 257.422 227.648 257.422C229.495 257.422 240.078 257.322 240.078 257.322C253.256 257.96 266.979 258.908 275.915 264.704C281.1 267.827 284.596 272.315 286.826 278.253C288.802 284.34 289.151 291.091 289.151 297.399L289.255 342.268C289.255 362.738 287.964 372.352 280.249 378.391ZM325.986 297.865C325.986 280.922 325.986 260.174 308.458 245.516C304.873 242.441 300.469 239.768 295.276 237.65C303.392 232.157 308.919 224.55 311.993 215.01C314.781 206.547 314.661 195.983 314.542 191.849L314.406 143.635C313.994 130.274 312.544 115.068 301.831 102.757C292.385 92.181 278.082 86.7388 259.914 86.7966L195.209 86.9768C193.312 86.9768 191.457 87.7253 189.992 89.1675C188.544 90.5779 187.881 92.4199 187.881 94.3322L188.439 411.036C188.439 413.617 189.761 416.054 191.975 417.369C193.139 418.142 194.556 418.539 196.053 418.539L261.874 418.381C268.849 418.381 290.29 418.3 308.153 402.928C323.995 388.388 325.605 371.284 326.083 352.071L325.986 297.865Z" fill="#231F20"/>
</g>
</g>
</svg>
