<svg width="500" height="500" viewBox="0 0 500 500" fill="none" xmlns="http://www.w3.org/2000/svg">
<g clip-path="url(#clip0_5465_22667)">
<path d="M238.624 500.416C103.15 494.581 -3.07618 381.096 0.573214 245.041C4.25945 107.61 118.663 -0.812666 256.095 2.88043C393.523 6.56429 501.946 120.963 498.26 258.393C494.606 394.449 382.443 502.077 246.854 500.637L242.738 500.56L238.624 500.416Z" fill="white"/>
<path fill-rule="evenodd" clip-rule="evenodd" d="M242.958 492.358C375.857 495.925 486.489 391.072 490.058 258.173C493.623 125.274 388.774 14.6446 255.875 11.0821C122.971 7.5107 12.3395 112.362 8.77479 245.261C5.2101 378.158 110.054 488.792 242.958 492.358Z" fill="#008348"/>
<path fill-rule="evenodd" clip-rule="evenodd" d="M381.707 281.579C373.65 270.455 359.439 263.822 347.027 262.298C334.616 260.777 325.688 262.274 315.071 265.441C301.505 268.555 291.373 273.382 277.262 278.768C284.575 270.74 293.498 261.302 299.822 250.261C308.624 234.795 313.692 224.025 314.433 207.715C315.158 191.646 306.372 172.96 292.67 163.495C281.922 156.225 266.727 155.565 254.857 163.223C249.934 166.371 246.399 169.516 244.055 171.915C233.738 164.702 223.59 160.684 210.808 162.735C199.29 163.802 190.98 173.967 185.969 183.099C169.439 216.552 197.629 250.011 218.483 274.008C181.222 263.004 172.029 262.775 162.408 261.962C152.789 261.147 137.433 262.229 126.404 268.464C115.376 274.699 105.634 285.094 104.695 303.763C104.011 317.395 111.537 330.642 125.37 338.514C117.672 356.829 122.858 375.493 142.127 383.784C164.184 393.275 183.195 387.154 198.251 376.173C213.304 365.191 226.205 351.213 237.471 336.343C233.974 417.444 284.887 442.427 284.887 442.427L290.562 422.333C280.93 415.486 255.292 392.003 257.654 337.198L262.128 341.604C275.334 355.174 287.379 366.343 303.234 379.271C319.089 392.199 349.393 396.654 366.963 375.507C374.97 365.87 377.453 346.536 372.517 338.468L372.68 336.576C380.295 331.707 386.71 325.898 389.402 316.908C393.611 304.759 388.062 291.106 381.707 281.579Z" fill="#FEFEFE"/>
<path fill-rule="evenodd" clip-rule="evenodd" d="M72.9695 182.974L60.6749 178.827L55.8509 192.898L120.714 214.776L125.331 201.296L113.133 197.181L116.469 187.436L127.778 191.252L135.266 202.011L128.694 221.201L117.171 225.435L53.1998 203.862L45.6147 192.628L50.4949 178.377L55.2426 176.691L51.5073 175.428L54.614 166.353L76.1728 173.623L72.9695 182.974Z" fill="#FEFEFE"/>
<path fill-rule="evenodd" clip-rule="evenodd" d="M389.135 126.251L398.053 116.878L387.161 106.676L340.136 156.104L350.574 165.883L359.414 156.581L366.958 163.644L358.761 172.26L345.784 174.543L330.932 160.626L331.837 148.473L378.214 99.7239L391.669 97.5454L402.702 107.885L402.275 112.866L404.98 110.017L412.004 116.597L396.374 133.027L389.135 126.251Z" fill="#FEFEFE"/>
<path fill-rule="evenodd" clip-rule="evenodd" d="M114.91 120.778L105.127 112.303L97.4098 121.068L119.105 139.87L126.394 131.588L133.728 137.943L126.441 146.223L149.01 165.776L157.067 156.614L147.443 148.275L153.644 141.227L170.524 155.857L145.109 184.745L137.849 178.459L141.915 173.84L90.3118 129.129L86.2466 133.751L78.9106 127.392L104.33 98.5055L121.449 113.336L114.91 120.778Z" fill="#FEFEFE"/>
<path fill-rule="evenodd" clip-rule="evenodd" d="M185.812 146.962L182.068 138.155L187.37 135.932L160.74 73.3033L155.431 75.5241L151.649 66.6186L171.915 58.134L175.702 67.0418L170.393 69.2649L197.022 131.893L207.057 127.688L202.091 116.009L211.259 112.169L219.975 132.66L185.812 146.962Z" fill="#FEFEFE"/>
<path fill-rule="evenodd" clip-rule="evenodd" d="M267.092 66.3051V53.4145H258.607V121.393H264.477V130.954H241.535V121.393H247.924V53.4145H239.65V66.3051H229.389V43.7494H276.942V66.3051H267.092Z" fill="#FEFEFE"/>
<path fill-rule="evenodd" clip-rule="evenodd" d="M330.937 70.0938L306.422 133.569L311.513 135.509L308.063 144.435L287.427 136.585L290.872 127.657L296.743 129.889L321.251 66.414L315.388 64.1798L318.876 55.1584L339.609 63.0416L336.12 72.0674L330.937 70.0938Z" fill="#FEFEFE"/>
<path fill-rule="evenodd" clip-rule="evenodd" d="M370.588 220.36L364.516 205.643L367.012 201.449L363.404 202.954L359.348 193.365L379.881 184.825L383.931 194.41L372.146 199.312L378.18 213.597L406.385 201.861L398.286 182.686L402.095 175.581L430.983 163.563L443.338 166.987L449.274 181.027L446.892 185.435L450.499 183.932L454.403 193.158L433.423 201.881L429.419 192.389L441.397 187.404L435.403 173.219L409.481 184.007L417.663 203.369L413.225 210.512L382.312 223.372L370.588 220.36Z" fill="#FEFEFE"/>
</g>
<defs>
<clipPath id="clip0_5465_22667">
<rect width="500" height="500" fill="white"/>
</clipPath>
</defs>
</svg>
