<svg width="500" height="501" viewBox="0 0 500 501" fill="none" xmlns="http://www.w3.org/2000/svg">
<g id="Style=Alternate, Color=Light">
<g id="Page 1">
<g id="Group 3">
<g id="Fill 1">
<path fill-rule="evenodd" clip-rule="evenodd" d="M433.642 244.21C433.185 243.918 432.66 243.6 432.124 243.288L294.639 128.841L329.483 181.36L383.571 233.57C378.195 234.72 373.256 236.768 368.772 239.699C353.319 223.129 335.485 213.938 315.686 212.361C309.071 211.806 301.899 214.513 294.966 220.1C187.238 123.372 38.0167 13.3029 36.4999 12.1923L24.5578 3.39722L27.177 17.9934C27.2353 18.3013 32.1846 45.7869 41.0529 80.3334C30.3401 74.4089 24.1906 71.0924 24.1906 71.0924L12.0005 64.5031L15.6706 77.8643C15.8688 78.5581 35.1805 148.063 64.2131 208.127C77.7827 238.563 116.307 271.186 176.019 280.422C203.445 284.765 234.541 287.645 268.533 289C269.216 294.463 270.516 299.747 272.44 304.814C257.741 307.442 244.003 314.29 233.072 324.532C204.218 351.553 200.777 396.897 225.038 427.527C225.534 428.221 275.614 497.397 372.075 497.397C382.629 497.397 393.501 496.564 404.391 494.919L424.249 491.919L405.939 483.684C391.903 477.373 355.342 457.899 343.826 439.332C343.857 439.307 343.896 439.266 343.926 439.242C357.336 426.674 365.043 408.905 365.619 389.213C366.273 366.813 357.494 343.764 342.121 327.572C341.992 327.428 341.843 327.289 341.714 327.146C350.68 325.866 359.142 323.635 366.987 320.482C377.829 333.541 392.25 344.522 404.728 349.039C406.703 349.758 409.082 350.457 411.792 351.235C428.276 356.009 455.87 364.003 472.523 406.143L479.309 423.308L483.762 405.4C484.039 404.289 510.474 293.928 433.642 244.21Z" fill="white"/>
<path d="M433.642 244.21C433.185 243.918 432.66 243.6 432.124 243.288L294.639 128.841L329.483 181.36L383.571 233.57C378.195 234.72 373.256 236.768 368.772 239.699C353.319 223.129 335.485 213.938 315.686 212.361C309.071 211.806 301.899 214.513 294.966 220.1C187.238 123.372 38.0167 13.3029 36.4999 12.1923L24.5578 3.39722L27.177 17.9934C27.2353 18.3013 32.1846 45.7869 41.0529 80.3334C30.3401 74.4089 24.1906 71.0924 24.1906 71.0924L12.0005 64.5031L15.6706 77.8643C15.8688 78.5581 35.1805 148.063 64.2131 208.127C77.7827 238.563 116.307 271.186 176.019 280.422C203.445 284.765 234.541 287.645 268.533 289C269.216 294.463 270.516 299.747 272.44 304.814C257.741 307.442 244.003 314.29 233.072 324.532C204.218 351.553 200.777 396.897 225.038 427.527C225.534 428.221 275.614 497.397 372.075 497.397C382.629 497.397 393.501 496.564 404.391 494.919L424.249 491.919L405.939 483.684C391.903 477.373 355.342 457.899 343.826 439.332C343.857 439.307 343.896 439.266 343.926 439.242C357.336 426.674 365.043 408.905 365.619 389.213C366.273 366.813 357.494 343.764 342.121 327.572C341.992 327.428 341.843 327.289 341.714 327.146C350.68 325.866 359.142 323.635 366.987 320.482C377.829 333.541 392.25 344.522 404.728 349.039C406.703 349.758 409.082 350.457 411.792 351.235C428.276 356.009 455.87 364.003 472.523 406.143L479.309 423.308L483.762 405.4C484.039 404.289 510.474 293.928 433.642 244.21" stroke="white" stroke-width="2.96273"/>
</g>
</g>
<path id="Fill 4" fill-rule="evenodd" clip-rule="evenodd" d="M430.418 249.168C429.904 248.841 429.298 248.484 428.692 248.122L321.896 159.223L334.413 178.087L391.884 233.362L403.013 239.059C391.428 237.285 378.514 238.573 367.96 247.681C355.462 232.956 338.163 220.085 315.211 218.255C308.832 217.741 301.583 221.493 294.956 228.048C185.938 129.555 32.9983 16.9521 32.9983 16.9521C32.9983 16.9521 39.1685 51.4438 50.3273 92.2468C32.2846 82.1824 21.3848 76.293 21.3848 76.293C21.3848 76.293 40.3979 145.272 69.6098 205.718C83.1091 236.01 123.489 266.089 176.952 274.582C211.221 280.011 246.592 282.336 273.978 283.293C274.405 292.127 276.587 301.102 281.11 309.683C265.23 310.789 249.598 317.145 237.12 328.845C210.041 354.195 207.353 395.667 229.849 424.101C229.849 424.101 288.421 506.471 403.499 489.073C403.499 489.073 347.527 463.928 336.368 437.839C337.548 436.887 338.758 435.97 339.879 434.928C368.515 408.096 364.746 359.991 337.836 331.641C334.543 328.167 330.971 325.118 327.192 322.459C340.177 322.059 354.797 319.699 368.812 313.268C379.614 327.561 394.563 339.068 406.753 343.482C420.916 348.638 457.617 352.331 478.029 403.972C478.029 403.972 504.593 297.174 430.418 249.168Z" fill="#1D1060"/>
<path id="Fill 6" fill-rule="evenodd" clip-rule="evenodd" d="M360.878 255.604C356.582 249.951 345.632 237.339 330.188 232.202C330.188 232.202 347.497 251.741 354.847 270.879C355.62 265.613 357.535 260.472 360.878 255.604Z" fill="#008CA8"/>
<path id="Fill 8" fill-rule="evenodd" clip-rule="evenodd" d="M65.8996 81.9838C175.315 161.111 271.17 230.789 313.931 261.9C279.294 229.941 177.358 138.736 58.2222 58.3901C65.6809 84.1605 65.8996 81.9838 65.8996 81.9838Z" fill="#008CA8"/>
<path id="Fill 10" fill-rule="evenodd" clip-rule="evenodd" d="M107.629 144.974L316.489 272.718L337.677 279.173C337.677 279.173 214.177 189.218 65.8996 81.9841C65.8996 81.9841 73.795 102.069 84.2195 130.398L49.9004 110.82L58.4993 133.675C63.7771 150.784 72.575 176.163 84.6365 199.857C113.342 242.733 168.341 250.864 168.341 250.864L249.696 262.866L256.818 264.513L107.629 144.974Z" fill="#FEFEFE"/>
<path id="Fill 12" fill-rule="evenodd" clip-rule="evenodd" d="M310.341 406.055C310.638 401.627 308.734 396.877 304.012 392.311C289.938 378.667 276.299 366.57 270.833 354.572C263.642 360.259 257.552 367.938 253.506 377.909C251.73 382.266 250.668 386.401 250.043 390.358C261.738 399.357 280.068 406.258 308.892 406.098C309.269 406.098 309.785 406.079 310.341 406.055Z" fill="#008CA8"/>
<path id="Fill 14" fill-rule="evenodd" clip-rule="evenodd" d="M283.539 424.899C295.432 423.977 304.399 418.8 308.505 411.964C294.45 412.455 270.119 411.82 249.458 399.699C249.576 403.051 250.013 410.337 254.309 419.108C259.943 422.177 269.882 425.975 283.539 424.899Z" fill="#008CA8"/>
<path id="Fill 16" fill-rule="evenodd" clip-rule="evenodd" d="M308.763 458.86C316.291 449.793 326.438 449.014 333.69 449.966C330.059 445.301 327.341 440.314 326.2 435.053C328.442 433.575 330.615 431.974 332.618 430.095C353.814 410.224 353.408 374.319 337.161 350.165C332.847 347.398 327.926 345.321 322.62 343.962C353.944 391.854 326.905 427.864 326.905 427.864L326.22 427.77C342.348 387.552 327.104 359.371 310.151 342.172C298.309 341.726 286.892 344.201 276.239 351.047C284.036 371.289 321.648 388.197 318.275 409.113C316.698 418.895 306.035 437.319 261.609 430.06C271.16 440.14 287.775 446.272 316.599 438.211C316.599 438.211 309.209 445.484 297.436 449.767C300.848 452.806 304.627 455.866 308.763 458.86Z" fill="#008CA8"/>
<path id="Fill 18" fill-rule="evenodd" clip-rule="evenodd" d="M347.814 463.908C347 463.655 346.068 463.323 344.937 462.852C333.303 457.978 328.988 466.233 327.46 471.394C344.342 478.969 363.565 484.031 387.519 486.535C387.519 486.535 364.984 477.106 347.814 463.908Z" fill="#FEFEFE"/>
<path id="Fill 20" fill-rule="evenodd" clip-rule="evenodd" d="M406.206 249.872C406.227 249.877 406.236 249.882 406.256 249.882C406.236 249.882 406.227 249.877 406.206 249.872Z" fill="#008CA8"/>
<path id="Fill 22" fill-rule="evenodd" clip-rule="evenodd" d="M430.746 262.306C426.501 259.183 418.486 253.982 409.589 250.923C369.13 242.623 365.827 301.052 421.144 330.724C432.045 334.903 454.343 337.016 472.128 371.26C472.128 371.26 481.621 299.803 430.746 262.306Z" fill="#008CA8"/>
<path id="Fill 24" fill-rule="evenodd" clip-rule="evenodd" d="M463.756 349.663C463.756 349.663 463.121 313.471 442.163 288.538C421.562 264.031 397.329 258.037 395.424 267.115C395.424 267.115 406.911 265.26 421.382 281.241C421.382 281.241 402.566 314.647 449.294 326.208C449.294 326.208 452.538 326.898 455.107 326.648C458.578 333.888 461.752 341.791 463.756 349.663Z" fill="#1D1060"/>
<path id="Fill 26" fill-rule="evenodd" clip-rule="evenodd" d="M441.478 302.45C441.478 302.45 445.426 307.795 449.78 316.694C449.78 316.694 432.63 321.335 441.478 302.45Z" fill="#FEFEFE"/>
</g>
</g>
</svg>
