<svg width="500" height="500" viewBox="0 0 500 500" fill="none" xmlns="http://www.w3.org/2000/svg">
<g id="Style=Alternate, Color=Dark">
<g id="Page 1">
<g id="Group 3">
<mask id="mask0_5465_23147" style="mask-type:luminance" maskUnits="userSpaceOnUse" x="0" y="25" width="500" height="451">
<path id="Clip 2" fill-rule="evenodd" clip-rule="evenodd" d="M500 475.885V25.7939H0.000244141L0.000244141 475.885H500Z" fill="white"/>
</mask>
<g mask="url(#mask0_5465_23147)">
<path id="Fill 1" fill-rule="evenodd" clip-rule="evenodd" d="M499.83 120.957C497.847 86.093 482.244 54.8223 472.923 36.1392L471.815 33.9119L467.762 25.7939L468.592 34.833C469.736 47.3316 472.496 90.0019 459.788 114.18C444.027 146.983 397.677 143.803 382.444 142.757L381.286 142.675C356.254 141.011 274.841 138.114 249.897 138.224C216.907 138.363 180.504 141.046 151.255 143.202C136.929 144.26 124.551 145.173 116.221 145.488C115.538 145.512 114.56 145.606 113.2 145.733C72.1877 149.555 46.279 137.458 36.1925 109.772C30.006 92.796 30.1584 59.2188 30.2314 43.0868L30.2449 38.2631L30.2687 31.4862C30.2687 31.4942 27.0473 37.454 27.0473 37.454C19.3417 51.7122 5.006 78.2497 0.188537 122.277C-2.51384 174.175 24.4338 192.785 44.9377 202.275C66.3616 212.197 88.2433 213.622 95.4362 214.088L95.956 214.121L95.76 214.095C97.2346 214.368 98.9219 214.442 100.707 214.522C102.924 214.622 105.311 214.746 107.767 215.212C103.889 215.963 98.7862 216.833 94.3068 217.604C89.5322 218.42 85.025 219.198 82.6838 219.695C77.8314 220.724 57.1862 225.546 46.0655 229.343C36.6147 232.57 26.4504 237.369 26.3473 237.415L24.4989 238.298L25.6941 239.958C25.837 240.155 29.2552 244.881 32.7989 248.373C40.0735 255.534 60.287 268.29 84.7092 265.25C104.231 262.828 114.691 258.287 118.723 256.157C119.984 260.347 123.01 270.084 126.055 277.66C134.855 299.532 154.869 341.2 162.4 355.695C168.489 367.419 174.545 377.834 178.554 384.72L179.993 387.208C178.675 391.691 175.543 394.491 173.212 396.543C172.583 397.095 172.045 397.568 171.589 398.031L171.138 398.492L171.107 399.139C170.918 403.183 169.974 439.402 194.605 465.941L194.871 466.225L195.243 466.368C207.508 471.07 223.523 475.885 249.319 475.885C275.633 475.885 297.77 469.644 305.537 465.717L305.849 465.563L306.072 465.3C323.258 444.965 331.069 414.38 331.258 403.269L331.269 402.559L330.773 402.051C330.345 401.612 329.899 401.181 329.429 400.731C326.758 398.161 323.446 394.98 321.561 387.461C323.647 383.862 327.747 375.291 331.085 368.317C332.948 364.415 334.565 361.04 335.454 359.304C342.726 345.142 363.95 299.578 372.384 278.048C377.712 264.445 380.708 257.636 381.997 254.816C385.719 256.831 395.769 261.284 414.746 263.248C439.359 265.794 462.818 249.302 469.352 240.328C470.452 238.818 472.312 236.642 472.331 236.622L473.802 234.897L471.742 233.965C471.61 233.903 470.769 233.541 467.103 232.289L453.486 227.721L439.901 223.165C436.201 221.902 419.589 218.297 407.459 215.671L398.285 213.664L401.276 213.121C429.384 208.145 504.031 194.919 499.83 120.957Z" fill="#061922"/>
</g>
</g>
<path id="Fill 4" fill-rule="evenodd" clip-rule="evenodd" d="M6.54908 105.973C10.657 84.7728 17.4245 64.9495 26.657 45.9178L26.7673 45.6938H27.0165H27.2046V46.0932V45.6938H27.6221L27.6038 46.1099C27.3499 51.8014 27.1769 57.6588 27.1769 63.5615C27.1769 77.6013 28.1475 91.8872 31.2816 104.722L31.5864 105.973L30.6292 105.116C26.5483 101.467 22.4872 97.2833 18.2602 93.6436C14.5435 97.8082 10.9808 102.337 7.23003 106.321L6.28638 107.321L6.54908 105.973Z" fill="#CD1141"/>
<path id="Fill 6" fill-rule="evenodd" clip-rule="evenodd" d="M492.602 97.2774L492.216 97.3727L492.595 97.2584C487.173 79.351 482.326 61.222 473.45 44.7915L472.703 45.0051C473.055 50.6926 473.235 56.3484 473.235 61.9581C473.235 75.6937 472.16 89.1682 469.939 102.244L469.809 103.005L470.505 102.67C474.856 100.567 478.987 97.7356 483.431 95.8395L494.163 103.591L492.602 97.2774Z" fill="#CD1141"/>
<path id="Fill 8" fill-rule="evenodd" clip-rule="evenodd" d="M317.416 288.737L316.594 289.1C310.497 291.788 304.243 294.464 297.636 295.774C293.359 296.876 289.021 297.444 284.743 297.444C271.34 297.44 258.541 291.902 250.616 279.755L250.364 279.369L250.02 279.677C248.428 281.092 247.471 282.829 245.81 284.318C237.373 294.039 225.126 297.76 212.62 297.762C202.905 297.762 193.048 295.509 184.801 292.079L183.951 291.727L184.274 292.59C190.604 309.365 194.482 327.978 194.482 346.684C194.482 355.064 193.704 363.462 192.021 371.725C190.861 377.52 188.931 383.531 187.378 389.174L187.132 390.062L187.949 389.631C205.797 380.172 227.597 375.378 249.341 375.38C269.916 375.38 290.44 379.671 307.516 388.333C310.332 389.494 312.973 391.455 315.54 392.285L316.295 392.53L316.04 391.778C311.063 377.02 308.126 361.342 308.126 344.931C308.126 344.702 308.128 344.473 308.129 344.242C308.101 343.188 308.089 342.151 308.089 341.113C308.089 323.183 311.851 305.522 317.134 289.588L317.416 288.737Z" fill="#CD1141"/>
<path id="Fill 10" fill-rule="evenodd" clip-rule="evenodd" d="M142.834 306.087C140.926 303.721 139.373 301.126 138.801 298.113L138.629 297.2L139.41 297.702C142.618 299.767 146.142 300.621 149.762 300.621C157.22 300.626 165.055 296.96 170.916 292.835L171.19 292.643L171.427 292.878L171.62 293.07L171.339 293.353L171.62 293.07L171.754 293.204L171.735 293.396C170.93 301.009 168.212 309.739 160.127 312.726C158.927 313.036 157.749 313.18 156.6 313.18C151.188 313.176 146.477 310.014 142.834 306.087Z" fill="#CD1141"/>
<path id="Fill 12" fill-rule="evenodd" clip-rule="evenodd" d="M332.511 303.181C330.777 300.594 329.819 297.808 329.258 294.658L329.076 293.623L329.899 294.274C333.906 297.445 338.961 298.822 344.127 298.823C350.194 298.823 356.407 296.917 361.18 293.843L362.141 293.222L361.773 294.307C359.414 301.203 353.437 308.264 346.169 309.848C345.534 309.936 344.905 309.981 344.285 309.981C339.525 309.982 335.231 307.413 332.511 303.181Z" fill="#CD1141"/>
<path id="Fill 14" fill-rule="evenodd" clip-rule="evenodd" d="M341.799 313.313C342.742 313.51 343.695 313.598 344.643 313.598C347.385 313.598 350.138 312.87 352.818 312.022L353.619 311.768L353.307 312.55C343.288 337.599 331.187 361.836 318.711 385.882L318.291 386.686L317.983 385.833C315.47 378.916 314.754 371.569 314.754 364.058C314.754 358.549 315.138 352.951 315.491 347.347C317.287 331.181 321.175 315.627 326.007 300.663L326.301 299.755L326.741 300.603C329.71 306.387 335.336 312.347 341.776 313.31" fill="#CD1141"/>
<path id="Fill 16" fill-rule="evenodd" clip-rule="evenodd" d="M183.644 385.976C168.538 362.921 157.062 338.542 145.971 313.795L145.494 312.729L146.524 313.281C149.528 314.894 153.557 316.175 157.394 316.173C159.98 316.173 162.473 315.593 164.538 314.178C169.396 310.783 172.242 305.436 174.157 300.038L174.471 299.149L174.891 299.993C183.221 316.861 187.219 337.273 187.22 357.474C187.22 367.038 186.322 376.561 184.562 385.637L184.539 385.754L184.456 385.841L183.916 386.389L183.644 385.976Z" fill="#CD1141"/>
<path id="Fill 18" fill-rule="evenodd" clip-rule="evenodd" d="M196.923 463.176L196.843 463.14L196.785 463.076C181.392 446.187 175.591 424.461 174.757 401.473L174.749 401.26L174.921 401.134C195.161 386.391 222.216 378.604 248.897 378.603C266.408 378.603 283.76 381.956 298.922 388.923C308.605 393.256 317.927 397.985 326.487 404.866L326.238 405.178L326.487 404.866L326.659 405.004L326.633 405.227C324.042 426.855 316.311 446.133 302.681 462.847L302.614 462.928L302.518 462.968C286.284 469.306 267.149 472.727 248.088 472.727C230.138 472.727 212.254 469.689 196.923 463.176Z" fill="#CD1141"/>
<path id="Fill 20" fill-rule="evenodd" clip-rule="evenodd" d="M467.599 235.97C467.597 235.97 458.087 232.323 455.64 231.403C429.542 221.573 395.998 215.573 367.501 214.886C364.777 183.118 361.124 163.26 354.944 145.315L354.857 145.062L354.59 145.046C339.894 144.191 274.707 141.568 249.512 141.568C224.31 141.568 160.297 145.534 145.613 146.389L145.346 146.402L145.26 146.655C139.347 163.764 132.612 185.091 129.479 216.509C100.672 218.27 61.893 226.524 35.7978 236.355C33.9041 237.07 32.5224 237.745 31.5867 238.242C31.12 238.491 30.7621 238.696 30.5168 238.834C30.4565 238.868 30.4025 238.897 30.3557 238.922L29.5581 238.02L29.8422 239.463C29.8573 239.545 29.8962 239.61 29.9446 239.662C33.9414 244.193 48.6311 261.822 75.9264 262.441C76.3732 262.45 76.8406 262.453 77.3248 262.453C86.2399 262.45 101.339 260.722 111.45 256.299C113.911 255.21 118.678 253.25 119.976 252.718C120.464 253.648 121.893 256.428 122.61 258.425C125.545 266.572 129.031 278.253 131.593 283.358C135.393 290.939 141.574 297.023 151.603 297.248C151.739 297.252 151.871 297.252 152.002 297.252C161.051 297.228 167.31 289.989 168.402 288.453L168.82 287.859L168.097 287.824C142.858 286.557 132.538 273.15 130.828 252.897L130.801 252.589L130.5 252.536C127.519 252.004 125.628 251.582 124.454 250.943C123.288 250.3 122.768 249.512 122.376 247.958C122.21 247.277 122.129 246.587 122.129 245.881C122.126 243.408 123.132 240.709 125 237.589C126.96 234.984 129.83 232.406 135.549 232.394C137.916 232.394 140.774 232.843 144.25 233.947C152.103 236.425 158.391 241.495 162.784 245.345C168.019 249.931 183.238 265.8 192.465 271.346C197.887 274.599 206.122 277.629 214.51 277.631C221.21 277.635 228.023 275.679 233.484 270.322C245.217 258.815 246.637 248.911 248.173 242.781L248.295 242.297L247.797 242.285C227.556 241.708 208.375 239.725 190.706 237.281C188.668 236.983 188.057 236.124 188.057 235.4C188.058 234.51 189.045 233.451 190.665 233.45C190.978 233.45 191.311 233.488 191.667 233.579C191.722 233.589 225.058 238.002 248.405 238.153L248.779 238.154L248.806 237.78C248.988 235.053 249.033 230.282 249.196 224.902L249.208 224.501L248.807 224.491C234.964 224.176 211.724 222.72 189.687 218.278C187.78 217.883 187.036 216.733 187.032 215.775C187.049 214.847 187.678 214.039 189.055 214.018C189.364 214.018 189.707 214.062 190.088 214.167C193.366 215.029 229.245 220.105 248.768 220.112C248.83 220.112 248.883 220.109 248.93 220.112L249.333 220.125L249.341 219.721C249.424 215.548 249.464 209.671 249.486 204.019L249.487 203.618L249.087 203.62C248.687 203.622 248.28 203.622 247.867 203.622C235.234 203.622 216.963 202.349 190.976 198.389C188.849 198.053 188.097 197.03 188.103 196.231C188.105 195.415 188.867 194.546 190.485 194.533C190.629 194.533 190.779 194.54 190.936 194.558C190.932 194.558 222.657 199.276 247.395 199.278C247.964 199.278 248.529 199.274 249.091 199.271L249.486 199.268V198.873C249.486 195.035 249.471 190.563 249.431 186.066C249.431 186.03 249.43 186.007 249.43 185.99C249.437 183.553 250.52 182.578 251.306 182.574C252.046 182.578 253.004 183.423 253.017 185.669C253.017 187.373 253.11 192.218 253.11 198.285V198.63L253.113 199.035L253.521 199.024C277.437 198.291 298.478 195.49 308.345 193.731C308.915 193.627 309.414 193.581 309.846 193.581C311.807 193.618 312.322 194.398 312.341 195.159C312.35 195.944 311.68 196.845 310.684 197.019C307.453 197.607 279.745 202.968 253.372 203.539L252.981 203.547L252.984 203.938C252.995 208.592 253.164 214.647 253.245 219.574L253.251 219.978L253.657 219.964C271.378 219.33 291.903 218.667 309.535 214.773C310.353 214.591 311.071 214.512 311.688 214.512C313.746 214.528 314.507 215.342 314.509 216.036C314.54 216.831 313.472 218.059 310.953 218.477C293.679 221.36 268.764 224.315 253.776 224.433L253.37 224.438L253.38 224.841C253.488 229.159 253.526 234.391 253.744 237.821L253.767 238.203L254.152 238.195C282.427 237.519 309.202 233.504 313.76 232.716C314.091 232.659 314.399 232.631 314.68 232.631C316.452 232.647 317.267 233.598 317.268 234.498C317.27 235.377 316.487 236.444 314.359 236.75C309.374 237.427 276.202 241.715 254.956 242.246L254.44 242.258L254.584 242.756C256.683 249.954 257.091 260.425 267.527 269.406C272.629 273.797 279.491 275.77 286.565 275.77C293.537 275.768 300.722 273.854 306.683 270.415C316.008 265.008 330.751 248.851 335.981 244.274C340.328 240.458 350.249 231.268 363.52 231.276C363.707 231.276 363.886 231.276 364.066 231.281C370.887 231.419 374.205 233.215 375.948 235.169C377.698 237.136 377.896 239.294 378.316 240.468C378.62 241.297 378.874 242.412 378.872 243.54C378.866 245.201 378.347 246.836 376.699 247.847C374.376 249.282 372.188 248.901 369.736 250.025L369.544 250.114L369.51 250.323C367.771 261.393 364.299 273.986 355.621 280.565C350.94 284.131 344.896 286.137 340.026 287.238C335.158 288.343 331.486 288.541 331.478 288.545L330.64 288.591L331.206 289.212C331.208 289.216 333.26 291.47 333.946 292.124C335.49 293.584 339.853 295.703 345.57 295.715C346.18 295.715 346.803 295.69 347.441 295.638C353.69 295.106 360.887 290.356 363.957 287.207C368.607 281.167 372.875 268.645 376.018 260.584C377.137 257.709 379.666 252.726 380.692 250.163C383.268 251.38 384.763 252.183 389.681 254.161C399.88 258.245 412.824 260.046 421.523 260.048C422.019 260.048 422.502 260.041 422.97 260.032C437.17 259.669 453.228 251.074 462.91 242.091C464.607 240.512 467.758 236.603 467.766 236.595L468.111 236.165L467.599 235.97Z" fill="#CD1141"/>
<path id="Fill 22" fill-rule="evenodd" clip-rule="evenodd" d="M264.591 410.49C263.094 413.007 262.429 415.901 262.429 418.846C262.425 423.606 264.179 428.483 266.93 432.037C267.103 432.267 267.324 432.364 267.592 432.369C267.898 432.369 268.248 432.215 268.495 431.936C268.496 431.852 268.496 431.768 268.496 431.682C268.519 428.862 266.699 426.417 266.675 423.33C266.675 422.607 266.783 421.854 267.044 421.068L267.315 420.247L267.763 420.986C270.53 425.564 274.992 428.454 279.645 430.009C281.466 430.487 283.283 430.718 285.059 430.718C291.272 430.716 297.03 427.903 301.107 422.895C303.03 420.175 304.511 416.747 304.508 413.383C304.508 411.804 304.186 410.236 303.438 408.742H303.437C300.503 403.038 294.56 399.751 288.595 398.765C287.57 398.656 286.552 398.604 285.54 398.604C276.89 398.608 268.82 402.468 264.591 410.49Z" fill="#061922"/>
<path id="Fill 24" fill-rule="evenodd" clip-rule="evenodd" d="M230.752 434.291C231.246 434.315 231.842 433.738 232.246 433.042C234.519 429.474 236.055 424.843 236.054 420.327C236.054 417.361 235.394 414.447 233.869 411.891L234.212 411.687L233.857 411.872C231.48 407.308 226.623 403.629 221.978 402.083C219.332 401.221 216.537 400.774 213.764 400.774C207.123 400.777 200.63 403.322 196.535 408.804C194.962 410.881 194.167 413.548 194.167 416.205C194.167 417.599 194.385 418.989 194.821 420.279C197.01 426.367 202.783 431.181 208.896 432.34C210.271 432.586 211.623 432.707 212.945 432.707C220.057 432.706 226.331 429.216 230.791 423.099L231.232 422.489L231.49 423.197C231.682 423.737 231.75 424.303 231.75 424.872C231.746 426.126 231.423 427.399 231.296 428.425C231.083 430.218 229.675 431.601 229.719 432.843C229.722 433.242 229.836 433.639 230.188 434.106C230.405 434.244 230.588 434.291 230.752 434.291Z" fill="#061922"/>
<path id="Fill 26" fill-rule="evenodd" clip-rule="evenodd" d="M198.53 457.792C214.09 451.253 232.682 447.476 251.141 447.476C265.071 447.476 278.925 449.628 291.357 454.389C294.473 455.718 297.773 456.803 300.915 457.772C301.709 456.749 302.091 456.519 302.621 455.613C287.444 448.162 269.632 444.704 251.735 444.704C232.628 444.704 213.424 448.648 197.235 455.858C197.547 456.666 197.959 457.189 198.53 457.792Z" fill="#061922"/>
<path id="Fill 28" fill-rule="evenodd" clip-rule="evenodd" d="M212.097 342.748C221.398 354.343 235.289 359.479 249.496 359.481C254.716 359.481 259.974 358.789 265.05 357.467C288.725 350.897 303.017 325.078 307.912 302.495C307.221 301.847 306.611 301.717 305.717 301.441C302.756 314.738 297.089 327.792 288.71 338.776C278.682 350.997 263.88 357.175 249.302 357.175C244.122 357.175 238.967 356.396 234.064 354.831C212.382 348.064 201.127 324.283 199.025 302.759C198.141 302.768 197.533 302.816 196.844 303.304C198.306 318.136 202.753 331.352 212.097 342.748Z" fill="#061922"/>
<path id="Fill 30" fill-rule="evenodd" clip-rule="evenodd" d="M35.9578 119.613C48.3793 143.591 73.4253 151.31 98.8967 150.09C113.153 149.971 126.844 148.485 140.913 147.591L140.907 148.563C133.749 168.753 129.109 189.322 126.146 210.494C89.2666 211.849 51.461 208.927 24.2166 184.288C5.76102 165.508 1.04991 139.759 5.06182 114.322C9.45785 109.099 13.984 104.722 18.5721 99.4995C24.6221 105.748 34.288 110.858 35.9578 119.613Z" fill="#FEFEFE"/>
<path id="Fill 32" fill-rule="evenodd" clip-rule="evenodd" d="M494.591 108.851C495.522 112.552 495.691 116.053 496.049 119.945C497.809 148.334 485.548 174.512 461.337 188.959C434.834 204.952 404.206 210.429 371.703 211.226C371.148 208.306 370.787 204.608 370.425 201.304C367.857 182.632 364.342 163.755 359.11 145.841C393.898 145.445 436.236 154.614 459.203 122.662C462.267 118.21 465.333 114.137 468.021 109.292C473.164 106.985 478.121 103.709 483.075 101.014C487.244 103.172 490.416 106.498 494.591 108.851Z" fill="#FEFEFE"/>
<path id="Fill 34" fill-rule="evenodd" clip-rule="evenodd" d="M362.367 252.579C362.502 263.467 359.026 274.726 349.301 279.919C344.731 282.425 339.403 283.367 334.272 283.14C334.092 282.174 333.713 281.002 334.103 279.839C342.08 280.075 349.703 277.201 353.915 270.615C356.793 265.77 357.955 260.332 357.991 254.308C359.326 253.538 360.846 252.959 362.367 252.579Z" fill="#FEFEFE"/>
<path id="Fill 36" fill-rule="evenodd" clip-rule="evenodd" d="M166.009 282.138C164.571 282.381 163.894 282.747 161.183 282.151C148.39 282.151 134.994 271.886 135.778 254.5C137.287 253.911 138.99 254.138 140.563 254.647C140.563 264.519 144.547 278.002 165.482 278.002C166.921 280.29 165.536 280.521 166.009 282.138Z" fill="#FEFEFE"/>
</g>
</g>
</svg>
