<svg width="500" height="500" viewBox="0 0 500 500" fill="none" xmlns="http://www.w3.org/2000/svg">
<g id="Style=Alternate, Color=Light">
<g id="Group 251">
<path id="Vector" d="M500.002 120.677V83.9759L491.027 74.8613C375.74 -34.7915 128.891 109.184 45.0284 178.559L3.6048 242.674L55.1239 229.948C-23.9907 329.245 4.28188 394.271 7.61522 401.025C15.9312 424.436 34.9329 443.177 65.7489 455.469C89.1517 464.818 115.705 465.964 138.457 464.905C236.817 460.313 352.988 399.002 428.058 333.785L429.811 332.266L444.751 256.927L415.584 273.143C314.308 317.57 232.858 342.231 232.858 342.231C179.534 358.846 155.028 361.545 137.572 357.509L135.454 356.849C130.645 354.983 129.785 350.617 129.785 349.445C129.021 316.094 186.391 244.384 215.28 213.351C242.216 184.419 284.568 152.648 320.384 137.587C344.377 127.483 359.881 123.446 367.138 124.184C365.159 130.391 361.929 138.064 357.181 147.396C357.181 147.396 318.839 223.047 317.129 226.172L500.002 120.651V120.677Z" fill="#BC945C"/>
<path id="Vector_2" d="M272.311 115.269C239.256 132.639 201.365 167.804 189.482 180.46C92.7976 283.412 25.0719 421.016 236.791 355.113C236.791 355.113 319.082 330.191 421.244 285.287C132.042 529.592 -140.909 427.431 127.685 170.608C103.249 176.189 78.5615 181.511 54.4208 188.247C140.428 117.084 376.339 -15.6856 481.652 84.5141L369.134 153.498C417.442 58.863 330.428 81.0679 272.311 115.278" fill="#860038"/>
</g>
</g>
</svg>
