<svg width="500" height="500" viewBox="0 0 500 500" fill="none" xmlns="http://www.w3.org/2000/svg">
<g id="Style=Alternate, Color=Light">
<g id="DMavericks_P_pms">
<g id="Group 5">
<path id="Fill 1" fill-rule="evenodd" clip-rule="evenodd" d="M448.305 393.73C449.546 391.786 450.157 387.818 450.157 387.818C450.21 386.511 451.192 385.914 451.192 385.914C454.552 384.109 455.706 382.88 455.859 382.682C479.157 346.623 492.633 303.948 492.633 258.187C492.633 209.918 477.637 165.079 451.949 127.806C450.542 126.36 447.229 124.414 447.229 124.414C446.015 123.951 445.776 122.835 445.776 122.835C445.105 118.728 444.236 117.241 444.236 117.241C423.36 90.2869 396.616 67.8843 365.889 51.7859C360.406 49.3167 355.467 49.0585 355.467 49.0585C354.359 49.0916 353.828 48.2091 353.828 48.2091C352.009 45.661 346.559 42.8801 344.515 41.8982C316.125 30.3847 284.96 24.0075 252.275 24.0075C242.357 24.0075 232.614 24.6055 223.015 25.753L235.626 8.81879C185.206 7.31198 149.029 46.676 149.029 46.676L149.049 46.7354C136.968 52.3626 125.378 58.9122 114.485 66.3707L114.525 66.3113C88.2257 75.7479 80.6451 96.9291 80.6451 96.9291C73.9873 102.497 60.7982 120.009 60.7982 120.009C57.0274 122.192 53.0918 125.782 51.8964 126.91C45.8494 133.207 34.7572 147.395 28.8564 171.848C28.6975 172.26 28.5114 172.644 28.339 173.055C28.0994 174.416 27.8411 175.955 27.6287 177.482C27.0441 180.381 26.5462 183.387 26.1486 186.533L26.3941 186.195C26.2939 186.844 26.2344 187.236 26.2344 187.236C25.6107 187.661 21.84 202.731 21.84 202.731C21.2163 204.636 14.3461 225.266 14.3461 225.266L14.3061 225.233C14.2993 225.266 14.2993 225.319 14.2993 225.359C-3.77528 288.479 20.2341 326.715 24.3159 332.614C56.2381 425.469 146.228 492.359 252.275 492.359C333.191 492.359 404.767 453.426 448.305 393.73Z" fill="#FFFFFE"/>
<path id="Stroke 3" d="M355.576 46.9602L355.565 47.1604H355.566C355.57 47.0901 355.574 47.0231 355.577 46.9592M355.576 46.9602L355.577 46.9592M355.576 46.9602L355.577 46.9592M355.576 46.9602L355.644 45.677H355.646C355.642 45.7298 355.63 45.9596 355.577 46.9592M171.608 24.303C187.288 14.4409 209.607 4.63759 235.729 5.41821L242.255 5.61353L238.354 10.8508L230.371 21.5696C237.584 20.9337 244.882 20.6057 252.274 20.6057C284.887 20.6057 316.016 26.8699 344.442 38.2024L345.794 38.7454L345.893 38.7854L345.988 38.8313C347.061 39.3467 349.053 40.3456 351.04 41.5696C352.718 42.603 354.807 44.0435 356.187 45.7053C356.334 45.719 356.51 45.7341 356.711 45.7571C357.337 45.8287 358.214 45.951 359.271 46.1565C361.245 46.5401 363.89 47.2231 366.718 48.4348L367.286 48.6838L367.378 48.7258L367.468 48.7727C398.137 64.841 424.9 87.1061 445.929 113.88L446.926 115.158L447.062 115.333L447.173 115.524L444.236 117.241C447.031 115.607 447.167 115.529 447.174 115.527L447.176 115.53C447.177 115.531 447.178 115.533 447.179 115.534C447.181 115.538 447.182 115.542 447.185 115.545C447.189 115.553 447.194 115.56 447.198 115.569C447.207 115.585 447.217 115.602 447.228 115.621C447.249 115.66 447.273 115.704 447.299 115.755C447.351 115.857 447.413 115.983 447.482 116.137C447.621 116.445 447.791 116.861 447.976 117.403C448.299 118.354 448.667 119.692 448.998 121.508L449.125 121.584C449.229 121.646 449.375 121.735 449.554 121.845C449.91 122.065 450.402 122.375 450.944 122.735C451.949 123.402 453.405 124.424 454.388 125.434L454.588 125.64L454.75 125.875C480.813 163.692 496.035 209.2 496.035 258.187C496.035 304.627 482.357 347.939 458.717 384.528L458.641 384.645L458.556 384.756C458.022 385.449 456.567 386.803 453.487 388.532C453.486 388.542 453.484 388.553 453.482 388.564C453.46 388.695 453.427 388.88 453.384 389.105C453.298 389.553 453.171 390.174 452.998 390.867C452.682 392.134 452.115 394.085 451.173 395.561L451.115 395.65L451.054 395.735C406.889 456.29 334.3 495.761 252.274 495.761C144.943 495.761 53.7761 428.16 21.25 334.154C16.1714 326.641 -6.99409 287.743 10.9424 224.724C10.9509 224.669 10.9612 224.61 10.9736 224.549L12.1133 218.994L12.6885 219.472C13.2622 217.748 13.9412 215.711 14.6309 213.639C16.3672 208.421 18.17 202.999 18.5693 201.785C18.5734 201.769 18.5782 201.752 18.583 201.733C18.6111 201.621 18.6526 201.457 18.7051 201.249C18.8101 200.834 18.961 200.24 19.1436 199.527C19.5085 198.1 20.0021 196.191 20.5166 194.265C21.0293 192.346 21.5692 190.382 22.0254 188.86C22.2514 188.105 22.4709 187.412 22.665 186.872C22.7453 186.649 22.8401 186.405 22.9424 186.172L22.7734 186.106C23.1769 182.915 23.6808 179.861 24.2725 176.913C24.4903 175.361 24.7508 173.814 24.9883 172.465L25.0547 172.09L25.2021 171.74C25.4394 171.174 25.5058 171.054 25.6113 170.798C31.6927 145.814 43.076 131.184 49.4424 124.554L49.501 124.493L49.5615 124.436C50.7122 123.35 54.5502 119.833 58.4844 117.429C58.5415 117.354 58.6045 117.271 58.6729 117.182C59.0512 116.686 59.5981 115.973 60.2744 115.101C61.6262 113.358 63.4999 110.973 65.5859 108.409C69.4354 103.68 74.2295 98.063 77.7988 94.8918C77.831 94.8158 77.8637 94.7345 77.9004 94.6497C78.1904 93.9796 78.6257 93.0372 79.2295 91.8889C80.4361 89.5941 82.3202 86.4645 85.0664 83.0334C90.5261 76.2123 99.3968 68.2015 113.063 63.2249C123.752 55.9477 135.086 49.5348 146.88 43.9963C146.916 43.9584 146.955 43.9177 146.997 43.8743C147.293 43.5665 147.728 43.1236 148.293 42.5657C149.423 41.4501 151.082 39.8725 153.226 37.9915C157.511 34.2315 163.753 29.2437 171.608 24.303ZM452.579 388.191C453.137 388.277 453.364 388.312 453.456 388.326V388.325L452.579 388.19V388.191ZM356.74 46.4514V46.4495C356.739 46.4477 356.737 46.4463 356.736 46.4446C356.734 46.4411 356.733 46.4372 356.73 46.4338C356.73 46.4325 356.728 46.4313 356.728 46.4299L356.74 46.4514Z" stroke="#FFFFFE" stroke-width="6.804"/>
<path id="Fill 4" fill-rule="evenodd" clip-rule="evenodd" d="M451.949 127.806C450.542 126.36 447.229 124.414 447.229 124.414C446.015 123.951 445.776 122.835 445.776 122.835C445.105 118.728 444.236 117.241 444.236 117.241C423.36 90.2869 396.616 67.8843 365.889 51.7859C360.406 49.3167 355.467 49.0585 355.467 49.0585C354.359 49.0916 353.828 48.2091 353.828 48.2091C352.009 45.661 346.559 42.8801 344.515 41.8982C316.125 30.3847 284.96 24.0075 252.275 24.0075C242.357 24.0075 232.614 24.6055 223.015 25.753L235.626 8.81879C185.206 7.31198 149.029 46.676 149.029 46.676L149.049 46.7354C136.968 52.3626 125.378 58.9122 114.485 66.3707L114.525 66.3113C88.2257 75.7479 80.6451 96.9291 80.6451 96.9291C73.9873 102.497 60.7982 120.009 60.7982 120.009C57.0274 122.192 53.0918 125.782 51.8964 126.91C45.8494 133.207 34.7572 147.395 28.8564 171.848C28.6975 172.26 28.5114 172.644 28.339 173.055C28.0994 174.416 27.8411 175.955 27.6287 177.482C27.0441 180.381 26.5462 183.387 26.1486 186.533L26.3941 186.195C26.2939 186.844 26.2344 187.236 26.2344 187.236C25.6107 187.661 21.84 202.731 21.84 202.731C21.2163 204.636 14.3461 225.266 14.3461 225.266L14.3061 225.233C14.2993 225.266 14.2993 225.319 14.2993 225.359C-3.77528 288.479 20.2341 326.715 24.3159 332.614C56.2381 425.469 146.228 492.359 252.275 492.359C333.191 492.359 404.767 453.426 448.305 393.73C449.533 391.786 450.157 387.818 450.157 387.818C450.21 386.511 451.192 385.914 451.192 385.914C454.552 384.109 455.706 382.88 455.859 382.682C479.157 346.623 492.633 303.948 492.633 258.187C492.633 209.918 477.637 165.079 451.949 127.806Z" fill="#0F1216"/>
</g>
<path id="Fill 6" fill-rule="evenodd" clip-rule="evenodd" d="M151.405 82.4564C152.022 81.8058 152.6 81.2086 153.098 80.665C153.901 79.8216 154.213 79.616 154.312 79.6764C154.425 79.5761 154.491 79.5099 154.491 79.5099C154.711 67.4995 157.413 57.8641 157.413 57.8641C179.271 27.3388 215.328 19.2501 215.328 19.2501C219.808 17.9624 216.908 19.9466 216.908 19.9466C194.206 45.3688 196.57 66.3707 196.57 66.3707L218.236 145.404C218.236 145.404 200.678 139.226 187.15 111.461C180.891 166.851 233.15 211.769 233.15 211.769C235.427 213.713 231.843 211.603 231.843 211.603C218.76 205.073 203.698 191.304 199.583 187.429C200.678 191.709 226.114 319.535 226.187 319.92C226.3 320.517 226.666 321.738 226.924 322.574L235.746 300.683L243.028 365.222C209.885 396.04 174.611 383.85 172.421 383.04C173.283 384.42 173.941 385.428 173.954 385.428C173.954 385.428 202.596 441.694 319.311 435.735C319.311 435.735 322.125 435.709 321.687 436.067C321.74 436.167 321.574 436.306 321.056 436.478C318.866 437.274 315.427 437.826 315.427 437.826C174.519 475.464 101.508 355.428 98.3355 350.067C97.4518 348.839 90.6156 339.21 86.7921 329.502C86.6859 329.23 86.5194 328.267 87.1702 329.005C87.1702 329.005 102.139 344.585 144.449 348.44C144.767 348.414 144.933 348.374 144.933 348.374C112.221 311.923 98.3219 285.507 96.264 281.479C96.264 281.452 96.2445 281.452 96.2309 281.452C96.2309 281.452 92.2945 275.553 87.6418 258.804C87.6418 258.804 87.7539 257.961 88.1524 258.804C89.7455 262.128 100.585 278.094 113.755 281.651H113.781C102.603 263.621 95.6599 235.101 94.7576 230.934C109.998 252.247 136.974 253.78 136.974 253.78C136.927 253.707 136.888 253.655 136.828 253.582C136.888 253.674 136.915 253.728 136.915 253.728C92.5332 209.466 102.105 161.284 120.114 126.492C130.715 105.961 144.269 90.0873 151.405 82.4564Z" fill="#FFFFFE"/>
<path id="Fill 7" fill-rule="evenodd" clip-rule="evenodd" d="M265.883 310.816L280.858 233.103C282.411 225.491 281.514 233.209 281.514 233.209L272.985 314.219L291.67 378.614L255.454 406.391C251.731 409.284 254.571 405.834 254.571 405.834L283.619 375.289L265.883 310.816Z" fill="#C1C8C9"/>
<path id="Stroke 8" fill-rule="evenodd" clip-rule="evenodd" d="M265.883 310.816L280.858 233.103C282.411 225.491 281.514 233.209 281.514 233.209L272.985 314.219L291.67 378.614L255.454 406.391C251.731 409.284 254.571 405.834 254.571 405.834L283.619 375.289L265.883 310.816V310.816Z" stroke="#0F1216" stroke-width="1.01618"/>
<path id="Fill 9" fill-rule="evenodd" clip-rule="evenodd" d="M275.315 220.608C272.102 222.141 275.142 219.984 275.142 219.984C290.735 209.612 293.41 162.936 293.722 155.145C293.762 154.256 294.16 155.145 294.16 155.145C310.961 207.323 275.315 220.608 275.315 220.608Z" fill="#C1C8C9"/>
<path id="Stroke 10" fill-rule="evenodd" clip-rule="evenodd" d="M275.315 220.608C272.102 222.141 275.142 219.984 275.142 219.984C290.735 209.612 293.41 162.936 293.722 155.145C293.762 154.256 294.16 155.145 294.16 155.145C310.961 207.323 275.315 220.608 275.315 220.608V220.608Z" stroke="#0F1216" stroke-width="1.01618"/>
<path id="Fill 11" fill-rule="evenodd" clip-rule="evenodd" d="M290.204 89.4638C290.204 89.4638 286.739 77.8315 283.52 73.8827C283.52 73.8827 302.059 63.5507 326.732 71.7923C326.732 71.7923 327.475 72.0913 326.666 72.065C322.066 72.0446 301.541 71.2283 290.204 89.4638Z" fill="#C1C8C9"/>
<path id="Stroke 12" fill-rule="evenodd" clip-rule="evenodd" d="M290.204 89.4638C290.204 89.4638 286.739 77.8315 283.52 73.8827C283.52 73.8827 302.059 63.5507 326.732 71.7923C326.732 71.7923 327.475 72.0913 326.666 72.065C322.066 72.0446 301.541 71.2283 290.204 89.4638V89.4638Z" stroke="#0F1216" stroke-width="1.01618"/>
<path id="Fill 13" fill-rule="evenodd" clip-rule="evenodd" d="M264.873 128.768C264.873 128.768 274.943 116.797 277.777 90.2003C277.777 90.2003 294.644 146.705 264.415 211.464C264.223 211.855 264.017 211.935 264.163 211.351C264.163 211.351 278.474 162.591 277.472 120.951C277.472 120.951 268.67 148.907 263.333 154.249C263.333 154.249 253.409 119.723 238.959 108.549C238.959 108.549 254.578 166.812 252.055 206.918C252.055 206.918 251.804 208.378 251.644 206.845C250.31 195.352 242.742 142.338 210.137 71.9919C210.137 71.9919 244.063 90.3795 264.873 128.768Z" fill="#C1C8C9"/>
<path id="Stroke 14" fill-rule="evenodd" clip-rule="evenodd" d="M264.873 128.768C264.873 128.768 274.943 116.797 277.777 90.2003C277.777 90.2003 294.644 146.705 264.415 211.464C264.223 211.855 264.017 211.935 264.163 211.351C264.163 211.351 278.474 162.591 277.472 120.951C277.472 120.951 268.67 148.907 263.333 154.249C263.333 154.249 253.409 119.723 238.959 108.549C238.959 108.549 254.578 166.812 252.055 206.918C252.055 206.918 251.804 208.378 251.644 206.845C250.31 195.352 242.742 142.338 210.137 71.9919C210.137 71.9919 244.063 90.3795 264.873 128.768V128.768Z" stroke="#0F1216" stroke-width="1.01618" stroke-linejoin="round"/>
<g id="Group 18">
<path id="Fill 15" fill-rule="evenodd" clip-rule="evenodd" d="M392.394 429.962C392.394 429.962 292.481 514.742 163.599 454.023C163.599 454.023 93.1044 427.188 59.8754 357.247C32.3816 314.618 27.8147 281.525 28.2591 249.706C28.2591 249.706 28.0994 241.79 28.9558 248.174C28.9558 248.174 34.8176 286.263 48.9829 307.929C48.9829 307.929 53.0188 315.918 50.0909 307.305C50.0909 307.305 40.619 271.598 40.5323 247.185C40.5323 247.185 23.5198 181.96 60.7183 144.893C60.7183 144.893 51.0272 166.685 50.6024 185.398C50.6024 185.398 49.9651 192.452 51.5982 185.604C51.5982 185.604 59.3113 155.112 84.0438 127.122C84.0438 127.122 92.7926 99.2123 106.832 88.5015C106.832 88.5015 100.114 100.247 100.041 108.681C100.041 108.681 124.496 77.8442 140.413 73.2524C140.413 73.2524 70.1044 134.535 84.0438 240.284C84.0438 240.284 67.2037 213.461 77.5388 159.552C77.5388 159.552 25.1655 222.121 104.98 321.612C104.98 321.612 79.1387 316.788 59.0785 277.915C59.0785 277.915 60.7446 383.299 176.742 444.123C176.742 444.123 271.79 498.868 390.967 428.954C390.967 428.954 403.247 421.03 392.394 429.962Z" fill="#C1C8C9"/>
<path id="Stroke 17" fill-rule="evenodd" clip-rule="evenodd" d="M392.394 429.962C392.394 429.962 292.481 514.742 163.599 454.023C163.599 454.023 93.1044 427.188 59.8754 357.247C32.3816 314.618 27.8147 281.525 28.2591 249.706C28.2591 249.706 28.0994 241.79 28.9558 248.174C28.9558 248.174 34.8176 286.263 48.9829 307.929C48.9829 307.929 53.0188 315.918 50.0909 307.305C50.0909 307.305 40.619 271.598 40.5323 247.185C40.5323 247.185 23.5198 181.96 60.7183 144.893C60.7183 144.893 51.0272 166.685 50.6024 185.398C50.6024 185.398 49.9651 192.452 51.5982 185.604C51.5982 185.604 59.3113 155.112 84.0438 127.122C84.0438 127.122 92.7926 99.2123 106.832 88.5015C106.832 88.5015 100.114 100.247 100.041 108.681C100.041 108.681 124.496 77.8442 140.413 73.2524C140.413 73.2524 70.1044 134.535 84.0438 240.284C84.0438 240.284 67.2037 213.461 77.5388 159.552C77.5388 159.552 25.1655 222.121 104.98 321.612C104.98 321.612 79.1387 316.788 59.0785 277.915C59.0785 277.915 60.7446 383.299 176.742 444.123C176.742 444.123 271.79 498.868 390.967 428.954C390.967 428.954 403.247 421.03 392.394 429.962V429.962Z" stroke="#0F1216" stroke-width="1.01618" stroke-linejoin="round"/>
</g>
<path id="Fill 19" fill-rule="evenodd" clip-rule="evenodd" d="M257.804 43.67C364.057 43.6768 420.572 119.603 420.572 119.603C425.152 124.906 412.181 126.36 412.181 126.36C337.598 136.758 301.754 104.102 301.754 104.102C307.847 87.6326 339.935 72.7479 339.935 72.7479C308.159 54.3731 279.211 67.9973 279.211 67.9973C269.978 56.4371 255.215 45.1097 255.215 45.1097C252.043 43.219 257.804 43.67 257.804 43.67Z" fill="#0060A0"/>
<path id="Stroke 20" fill-rule="evenodd" clip-rule="evenodd" d="M257.804 43.67C364.057 43.6768 420.572 119.603 420.572 119.603C425.152 124.906 412.181 126.36 412.181 126.36C337.598 136.758 301.754 104.102 301.754 104.102C307.847 87.6326 339.935 72.7479 339.935 72.7479C308.159 54.3731 279.211 67.9973 279.211 67.9973C269.978 56.4371 255.215 45.1097 255.215 45.1097C252.043 43.219 257.804 43.67 257.804 43.67V43.67Z" stroke="#0060A0" stroke-width="1.01618"/>
<path id="Fill 21" fill-rule="evenodd" clip-rule="evenodd" d="M305.982 226.229C377.027 293.496 353.038 405.947 353.038 405.947C351.756 409.803 347.654 410.837 347.654 410.837C297.917 421.86 265.258 411.521 265.258 411.521L301.256 382.582L283.048 315.142L288.046 270.131C303.532 274.756 303.532 313.603 303.532 313.603C332.526 252.759 305.982 226.229 305.982 226.229Z" fill="#0060A0"/>
<path id="Stroke 22" fill-rule="evenodd" clip-rule="evenodd" d="M305.982 226.229C377.027 293.496 353.038 405.947 353.038 405.947C351.756 409.803 347.654 410.837 347.654 410.837C297.917 421.86 265.258 411.521 265.258 411.521L301.256 382.582L283.048 315.142L288.046 270.131C303.532 274.756 303.532 313.603 303.532 313.603C332.526 252.759 305.982 226.229 305.982 226.229V226.229Z" stroke="#0060A0" stroke-width="1.01618" stroke-linejoin="round"/>
<path id="Fill 23" fill-rule="evenodd" clip-rule="evenodd" d="M437.014 359.363C437.014 359.363 409.885 393.816 369.693 406.842C369.693 406.842 363.3 409.291 364.84 402.623C364.84 402.623 394.824 286.489 315.328 209.168C315.328 209.168 311.67 206.719 316.304 207.947C316.304 207.947 329.281 211.895 337.572 222.134C337.572 222.134 336.238 199.313 320.771 181.53C320.771 181.53 316.377 176.911 320.99 180.381C320.99 180.381 436.875 235.193 440.837 346.948C440.837 346.948 441.694 355.442 437.014 359.363Z" fill="#0060A0"/>
<path id="Stroke 24" fill-rule="evenodd" clip-rule="evenodd" d="M437.014 359.363C437.014 359.363 409.885 393.816 369.693 406.842C369.693 406.842 363.3 409.291 364.84 402.623C364.84 402.623 394.824 286.489 315.328 209.168C315.328 209.168 311.67 206.719 316.304 207.947C316.304 207.947 329.281 211.895 337.572 222.134C337.572 222.134 336.238 199.313 320.771 181.53C320.771 181.53 316.377 176.911 320.99 180.381C320.99 180.381 436.875 235.193 440.837 346.948C440.837 346.948 441.694 355.442 437.014 359.363V359.363Z" stroke="#0060A0" stroke-width="1.01618"/>
<path id="Fill 25" fill-rule="evenodd" clip-rule="evenodd" d="M450.469 325.766C447.456 203.487 294.943 133.3 294.943 133.3C313.337 133.167 323.181 146.605 323.181 146.605C323.605 140.547 320.957 133.3 320.957 133.3C357.127 147.076 423.327 133.758 423.327 133.758C431.153 133.075 432.945 137.547 432.945 137.547C447.456 153.672 465.591 191.41 468.604 236.707C472.872 300.835 450.907 344.107 450.469 325.766Z" fill="#0060A0"/>
<path id="Stroke 26" fill-rule="evenodd" clip-rule="evenodd" d="M450.469 325.766C447.456 203.487 294.943 133.3 294.943 133.3C313.337 133.167 323.181 146.605 323.181 146.605C323.605 140.547 320.957 133.3 320.957 133.3C357.127 147.076 423.327 133.758 423.327 133.758C431.153 133.075 432.945 137.547 432.945 137.547C447.456 153.672 465.591 191.41 468.604 236.707C472.872 300.835 450.907 344.107 450.469 325.766V325.766Z" stroke="#0060A0" stroke-width="1.01618"/>
<path id="Fill 27" fill-rule="evenodd" clip-rule="evenodd" d="M201.621 30.3847C201.694 30.2921 201.787 30.2055 201.833 30.1061C201.833 30.1061 201.8 30.1129 201.787 30.1197C200.493 30.4909 177.2 37.3522 170.31 72.854C170.31 72.854 170.257 73.5115 170.628 72.9007C172.726 69.4497 180.002 58.4348 186.712 61.699C186.712 61.699 186.739 61.4408 186.785 60.983C187.151 57.977 189.341 45.6337 201.621 30.3847Z" fill="#0F1216"/>
<path id="Fill 28" fill-rule="evenodd" clip-rule="evenodd" d="M183.771 351.287C178.734 341.175 146.413 270.576 146.413 270.576C136.358 273.788 123.871 265.599 123.871 265.599C123.871 265.625 123.871 265.625 123.871 265.625C139.789 307.862 177.227 344.791 183.188 351.5C183.254 351.54 183.267 351.553 183.287 351.599C184.296 352.694 184.296 352.296 184.296 352.296C184.163 352.084 183.997 351.738 183.771 351.287Z" fill="#0F1216"/>
<path id="Fill 29" fill-rule="evenodd" clip-rule="evenodd" d="M225.371 368.561C225.895 365.183 232.128 325.295 212.029 319.747C212.029 319.747 198.176 316.204 199.072 345.056C217.877 301.83 225.371 368.308 225.371 368.561Z" fill="#C1C8C9"/>
<path id="Fill 30" fill-rule="evenodd" clip-rule="evenodd" d="M199.072 345.056L205.928 360.159C205.928 360.159 209.872 319.634 225.391 368.474C225.391 368.474 218.415 299.316 199.072 345.056Z" fill="#0F1216"/>
<path id="Fill 31" fill-rule="evenodd" clip-rule="evenodd" d="M151.723 121.396C122.544 188.079 188.206 215.565 189.075 215.91L189.088 215.916L185.617 200.561L183.639 191.768C181.979 191.231 180.452 190.628 178.959 189.963C178.461 189.745 177.963 189.506 177.479 189.28C176.868 188.981 176.244 188.689 175.673 188.391C146.984 173.142 149.759 136.624 151.524 124.753C151.538 124.661 151.538 124.594 151.551 124.508C151.617 124.163 151.664 123.817 151.723 123.512C151.903 122.404 152.036 121.641 152.122 121.243C152.162 121.07 152.188 120.938 152.188 120.938C152.188 120.911 152.188 120.911 152.188 120.898C152.261 120.009 151.863 121.024 151.723 121.396Z" fill="#0F1216"/>
<path id="Fill 32" fill-rule="evenodd" clip-rule="evenodd" d="M166.771 159.014C166.771 159.014 170.668 171.927 187.535 172.644C187.535 172.644 186.839 171.656 185.763 169.778C182.657 164.283 174.625 147.209 173.523 129.451C173.523 129.352 158.973 142.159 166.771 159.014Z" fill="#0F1216"/>
<path id="Fill 33" fill-rule="evenodd" clip-rule="evenodd" d="M194.923 309.097L190.197 225.313L218.388 318.725C218.388 318.725 209.142 296.655 194.923 309.097Z" fill="#C1C8C9"/>
<path id="Fill 34" fill-rule="evenodd" clip-rule="evenodd" d="M173.781 108.768C172.959 122.75 173.523 129.664 173.523 129.664C173.523 129.664 156.689 142.584 169.56 164.157C151.306 144.521 166.559 119.372 173.781 108.768Z" fill="#C1C8C9"/>
<path id="Fill 35" fill-rule="evenodd" clip-rule="evenodd" d="M196.622 68.1961L202.869 118.296C202.869 118.296 205.916 131.98 187.15 111.461C187.15 111.461 196.284 134.408 215.062 144.23C216.124 144.794 217.22 145.297 218.335 145.776C218.448 145.802 218.561 145.868 218.647 145.901L197.366 68.0899C197.366 68.0899 196.967 67.0417 196.742 66.9551C196.61 66.9016 196.542 67.181 196.622 68.1961Z" fill="#C1C8C9"/>
<g id="Group 38">
<mask id="mask0_35_9623" style="mask-type:luminance" maskUnits="userSpaceOnUse" x="199" y="329" width="27" height="40">
<path id="Clip 37" fill-rule="evenodd" clip-rule="evenodd" d="M225.378 368.474C225.383 368.412 225.387 368.345 225.391 368.273V341.599C224.941 337.265 224.059 333.026 222.456 329.418H200.975C200.168 332.261 199.62 335.915 199.503 340.604C199.457 341.998 199.304 343.192 199.072 345.056C217.516 302.661 225.079 365.794 225.363 368.474H225.378Z" fill="white"/>
</mask>
<g mask="url(#mask0_35_9623)">
<path id="Stroke 36" fill-rule="evenodd" clip-rule="evenodd" d="M199.072 345.056L205.928 360.159C205.928 360.159 209.872 319.634 225.391 368.474C225.391 368.474 218.415 299.316 199.072 345.056V345.056Z" stroke="#0F1216" stroke-width="1.01618"/>
</g>
</g>
<path id="Stroke 39" d="M173.523 129.664C173.523 129.664 156.689 142.584 169.56 164.157" stroke="#0F1216" stroke-width="1.01618" stroke-linecap="square"/>
<path id="Stroke 41" d="M187.15 111.461C187.15 111.461 196.284 134.408 215.062 144.23C216.124 144.794 217.22 145.297 218.335 145.776C218.448 145.802 218.561 145.868 218.647 145.901L197.366 68.0899C197.366 68.0899 196.967 67.0417 196.742 66.9551" stroke="#0F1216" stroke-width="1.01618" stroke-linejoin="round"/>
</g>
</g>
</svg>
