<svg width="500" height="500" viewBox="0 0 500 500" fill="none" xmlns="http://www.w3.org/2000/svg">
<g id="Style=Alternate, Color=Light">
<g id="Group">
<g id="Group 3">
<mask id="mask0_35_9663" style="mask-type:luminance" maskUnits="userSpaceOnUse" x="0" y="3" width="497" height="497">
<path id="Clip 2" fill-rule="evenodd" clip-rule="evenodd" d="M0 3.26038H496.779V499.817H0V3.26038Z" fill="white"/>
</mask>
<g mask="url(#mask0_35_9663)">
<path id="Fill 1" fill-rule="evenodd" clip-rule="evenodd" d="M248.453 3.25769C314.637 3.25769 376.953 29.0969 423.963 76.0987C470.884 123.001 496.779 185.379 496.779 251.481C496.779 388.452 385.432 499.82 248.453 499.82C182.116 499.82 119.721 474.028 72.7368 427.011C25.9211 380.093 0 317.746 0 251.481C0 185.379 25.9211 123.001 72.7368 76.0987C119.721 29.0969 182.116 3.25769 248.453 3.25769Z" fill="#FEC52F"/>
</g>
</g>
<path id="Fill 4" fill-rule="evenodd" clip-rule="evenodd" d="M248.453 480.035C374.416 480.035 476.869 377.588 476.869 251.485C476.869 125.614 374.416 23.0726 248.453 23.0726C122.343 23.0726 19.832 125.614 19.832 251.485C19.832 377.588 122.343 480.035 248.453 480.035Z" fill="#8A2433"/>
<path id="Fill 6" fill-rule="evenodd" clip-rule="evenodd" d="M36.8057 251.484C36.8057 134.934 131.748 40.0728 248.453 40.0728C365.137 40.0728 459.948 134.934 459.948 251.484C459.948 368.133 365.137 463.026 248.453 463.026C131.748 463.026 36.8057 368.133 36.8057 251.484Z" fill="#0A233F"/>
<path id="Fill 8" fill-rule="evenodd" clip-rule="evenodd" d="M415.008 162.976L419.724 160.341L404.524 136.769L400.266 139.841C374.408 107.231 328.503 70.8767 284.818 65.369C317.713 80.3875 354.713 118.725 377.308 148.278L353.566 165.517L356.429 169.899L249.182 239.541L141.939 169.899L144.818 165.517L120.939 148.278C143.687 118.725 180.597 80.3875 213.534 65.369C169.897 70.8714 123.95 107.153 98.2974 139.72L93.8448 136.521L78.6448 160.03L83.3869 162.781L83.2658 162.976C64.3763 200.046 50.5079 257.353 64.0184 299.279C63.6658 263.05 83.1395 213.234 100.634 180.072L126.245 194.491L128.897 190.446L228.482 253.013L97.1237 338.327L96.9184 338.064L79.3184 342.809L79.5079 343.245C78.6448 346.517 80.25 352.577 83.9974 358.364C87.729 364.308 92.45 368.227 95.9869 368.879L96.2869 369.358L107.982 355.239L107.882 354.981L369.529 190.446L372.087 194.491L397.771 180.072C415.234 213.234 434.729 263.05 434.508 299.279C448.013 257.353 433.971 200.046 415.008 162.976Z" fill="#FEC52F"/>
<path id="Fill 10" fill-rule="evenodd" clip-rule="evenodd" d="M401.506 338.065L401.306 338.328L280.427 259.848L259.259 272.378L390.522 354.977L390.375 355.24L402.043 369.364L402.39 368.875C405.922 368.228 410.638 364.309 414.375 358.359C418.011 352.573 419.732 346.513 418.869 343.241L419.085 342.804L401.506 338.065Z" fill="#FEC52F"/>
<path id="Fill 12" fill-rule="evenodd" clip-rule="evenodd" d="M269.916 86.5049L260.821 98.3776L248.253 68.3669V206.958L290.495 152.918L333 163.87L269.916 86.5049Z" fill="#FEC52F"/>
<path id="Fill 14" fill-rule="evenodd" clip-rule="evenodd" d="M269.916 118.997V86.5092L260.821 98.3767L269.916 118.997Z" fill="#FEFEFE"/>
<path id="Fill 16" fill-rule="evenodd" clip-rule="evenodd" d="M248.252 68.3607L171.589 161.77L205.42 153.164L248.252 206.967V68.3607Z" fill="#FEFEFE"/>
<path id="Fill 18" fill-rule="evenodd" clip-rule="evenodd" d="M203.253 417.901C214.106 407.48 227.921 401.115 242.827 399.716V378.942H185.563C186.916 394.066 193.274 407.622 203.253 417.901Z" fill="#FEC52F"/>
<path id="Fill 20" fill-rule="evenodd" clip-rule="evenodd" d="M242.824 437.15V412.578C231.709 413.935 221.424 418.612 212.956 426.276C221.761 432.142 231.909 435.976 242.824 437.15Z" fill="#FEC52F"/>
<path id="Fill 22" fill-rule="evenodd" clip-rule="evenodd" d="M255.546 309.872V334.375C266.635 333.034 277.004 328.431 285.283 320.772C276.609 314.859 266.52 310.987 255.546 309.872Z" fill="#FEFEFE"/>
<path id="Fill 24" fill-rule="evenodd" clip-rule="evenodd" d="M295.066 329.147C284.203 339.442 270.424 345.938 255.545 347.248V366.143H312.719C310.971 351.83 304.545 338.905 295.066 329.147Z" fill="#FEFEFE"/>
<path id="Fill 26" fill-rule="evenodd" clip-rule="evenodd" d="M242.825 334.372V309.874C231.909 310.989 221.761 314.861 213.104 320.779C221.425 328.427 231.709 333.035 242.825 334.372Z" fill="#FEFEFE"/>
<path id="Fill 28" fill-rule="evenodd" clip-rule="evenodd" d="M255.546 378.941V399.714C270.42 401.114 284.299 407.479 295.067 417.905C305.062 407.621 311.651 394.065 312.841 378.941H255.546Z" fill="#FEC52F"/>
<path id="Fill 30" fill-rule="evenodd" clip-rule="evenodd" d="M185.69 366.145H242.822V347.254C227.917 345.934 214.201 339.443 203.254 329.153C193.801 338.901 187.369 351.826 185.69 366.145Z" fill="#FEFEFE"/>
<path id="Fill 32" fill-rule="evenodd" clip-rule="evenodd" d="M255.546 437.15C266.52 435.976 276.609 432.142 285.283 426.276C277.004 418.612 266.635 413.935 255.546 412.578V437.15Z" fill="#FEC52F"/>
</g>
</g>
</svg>
