<svg width="500" height="500" viewBox="0 0 500 500" fill="none" xmlns="http://www.w3.org/2000/svg">
<g id="Style=Alternate, Color=Light">
<g id="GSWarriors_Primary_Icon_rgb">
<g id="Group 3">
<mask id="mask0_35_9717" style="mask-type:luminance" maskUnits="userSpaceOnUse" x="0" y="0" width="500" height="500">
<path id="Clip 2" fill-rule="evenodd" clip-rule="evenodd" d="M0 0H500V499.948H0V0Z" fill="white"/>
</mask>
<g mask="url(#mask0_35_9717)">
<path id="Fill 1" fill-rule="evenodd" clip-rule="evenodd" d="M500 250C500 388.071 388.071 500 250 500C111.929 500 0 388.071 0 250C0 111.929 111.929 0 250 0C388.071 0 500 111.929 500 250Z" fill="#1D428A"/>
</g>
</g>
<path id="Fill 4" fill-rule="evenodd" clip-rule="evenodd" d="M250 468.75C222.731 468.75 196.226 463.792 171.51 454.306C170.498 439.342 169.516 421.46 168.575 401.905L148.618 395.111L148.627 443.948C145.443 442.28 142.3 440.53 139.198 438.7L139.208 392.333L148.618 392.668V392.976L158.819 393.03L177.241 393.682L407.455 401.837C406.536 402.788 405.617 403.741 404.68 404.681C363.363 445.997 308.431 468.75 250 468.75ZM82.1771 390.314L116.547 391.531C115.861 402.148 115.109 412.231 114.286 421.582C107.696 416.349 101.359 410.719 95.3194 404.681C90.6997 400.061 86.3264 395.26 82.1771 390.314ZM121.142 283.078C120.418 310.833 119.394 339.49 118.012 366.165L99.184 366.799L121.142 283.078ZM122.542 187.512C122.505 206.833 122.267 230.094 121.781 254.99L92.3976 367.026L72.1059 367.71L122.542 187.512ZM46.4219 330.332C41.3837 317.556 37.5642 304.29 35.0191 290.679C43.1024 284.245 54.4792 273.78 68.0347 257.472L46.4219 330.332ZM50.4062 339.781L78.9097 243.701C90.441 228.359 103.149 209.08 116.495 184.979L65.4062 367.502C59.7222 358.611 54.717 349.349 50.4062 339.781ZM148.58 196.115L148.583 209.571H138.392V222.071H148.585L148.587 235.528H138.392V248.028H148.59L148.595 273.267H138.392V285.769H148.597L148.602 311.727H138.392V324.227H148.604L148.613 365.135L139.214 365.453L139.257 175.161H148.576L148.578 183.615H138.392V196.115H148.58ZM419.198 356.036L413.352 342.97C422.995 346.861 432.701 350.585 442.464 354.158C442.26 354.531 442.054 354.903 441.849 355.276L419.198 356.036ZM426.658 379.071C425.179 381.087 423.665 383.08 422.112 385.05L167.821 380.069L167.714 377.618L426.658 379.071ZM184.094 363.943L166.901 364.521C165.847 339.351 164.87 312.903 163.993 287.297L184.094 363.943ZM210.616 363.05L190.762 363.719L163.014 257.92C162.135 230.642 161.389 205.413 160.818 185.123L210.616 363.05ZM240.227 362.056L217.312 362.826L166.882 182.642C171.304 187.517 175.833 192.281 180.488 196.917C185.373 201.79 190.378 206.54 195.474 211.188L240.227 362.056ZM267.703 361.132L246.95 361.83L204.698 219.406C207.688 222.005 210.701 224.573 213.743 227.108C219.082 231.55 224.502 235.891 229.993 240.141L267.703 361.132ZM296.003 360.181L274.45 360.905L238.924 246.929C247.139 253.057 255.502 258.983 263.998 264.714L296.003 360.181ZM323.38 359.26L302.79 359.951L272.823 270.566C277.403 273.55 282.016 276.484 286.665 279.361L296.233 285.226L297.523 285.983L323.38 359.26ZM353.203 358.255L330.2 359.031L306.22 291.07C307.736 291.951 309.238 292.858 310.771 293.707L315.672 296.434C318.944 298.245 322.198 300.092 325.488 301.87L333.082 305.884L353.203 358.255ZM377.184 327.467C386.264 331.597 395.417 335.573 404.627 339.401L412.175 356.274L389.576 357.033L377.184 327.467ZM382.62 357.267L360.085 358.026L341.804 310.441L345.387 312.238L355.422 317.262C358.785 318.896 362.175 320.476 365.552 322.085C366.509 322.535 367.474 322.972 368.432 323.422L382.62 357.267ZM95.3194 95.3194C136.637 54.0035 191.569 31.25 250 31.25C308.431 31.25 363.363 54.0035 404.68 95.3194C445.997 136.637 468.75 191.571 468.75 250C468.75 281.429 462.156 311.84 449.642 339.67C423.126 330.727 396.997 320.632 371.422 309.273C368.066 307.767 364.694 306.293 361.349 304.766L351.37 300.056L346.38 297.701L341.438 295.247L331.561 290.319C328.286 288.648 325.049 286.905 321.788 285.2L316.903 282.632C315.274 281.778 313.682 280.858 312.068 279.977L302.413 274.628L292.875 269.082C267.502 254.188 243.054 237.682 220.009 219.41C208.498 210.26 197.326 200.681 186.689 190.556C181.368 185.498 176.198 180.288 171.188 174.946C169.939 173.608 168.689 172.269 167.476 170.901C166.245 169.549 165.038 168.179 163.847 166.797C162.644 165.424 161.484 164.024 160.328 162.625C160.283 162.569 160.236 162.512 160.193 162.457C159.759 146.389 159.523 136.79 159.523 136.79L148.568 134.21L148.571 148.887H139.262L139.266 133.477L127.521 136.271L127.611 141.868L122.122 144.856C122.273 149.451 122.385 155.451 122.457 162.601C118.016 170.352 69.5278 254.095 33.2743 279.858C31.9427 270.043 31.25 260.076 31.25 250C31.25 191.571 54.0035 136.637 95.3194 95.3194ZM413.519 86.4809C369.84 42.8038 311.769 18.75 250 18.75C188.231 18.75 130.16 42.8038 86.4809 86.4809C42.8038 130.16 18.75 188.231 18.75 250C18.75 311.769 42.8038 369.84 86.4809 413.519C130.16 457.196 188.231 481.25 250 481.25C311.769 481.25 369.84 457.196 413.519 413.519C457.195 369.84 481.249 311.769 481.249 250C481.249 188.231 457.195 130.16 413.519 86.4809Z" fill="#FDB927"/>
</g>
</g>
</svg>
