<svg width="500" height="500" viewBox="0 0 500 500" fill="none" xmlns="http://www.w3.org/2000/svg">
<g id="Style=Alternate, Color=Dark">
<g id="HRockets_Primary_Icon_rgb_onBlkBkgd">
<g id="Group 3">
<mask id="mask0_35_4369" style="mask-type:luminance" maskUnits="userSpaceOnUse" x="61" y="0" width="378" height="500">
<path id="Clip 2" fill-rule="evenodd" clip-rule="evenodd" d="M61.0459 0.000732422H438.176V499.954H61.0459V0.000732422Z" fill="white"/>
</mask>
<g mask="url(#mask0_35_4369)">
<path id="Fill 1" fill-rule="evenodd" clip-rule="evenodd" d="M395.463 264.693C384.069 273.684 353.741 280.629 313.706 284.192L314.278 236.066C360.095 242.042 397.282 248.741 397.282 259.735C397.282 261.439 396.656 263.093 395.463 264.693ZM273.769 286.488C266.102 286.715 258.254 286.836 250.237 286.836C240.798 286.836 231.588 286.674 222.67 286.365L223.029 275.208C222.187 246.952 223.946 211.523 224.521 173.679C247.433 176.329 275.074 182.863 274.596 198.985L273.769 286.488ZM282.933 115.378C284.798 129.224 280.829 139.674 273.686 147.569C260.913 159.147 240.893 164.422 224.613 166.816C224.899 140.688 224.514 113.561 222.248 86.9498C253.667 90.3047 280.628 98.2338 282.933 115.378ZM183.236 283.844C134.308 279.126 101.244 269.193 101.244 256.642C101.244 255.728 101.511 254.85 102.021 254.002C113.485 245.934 148.641 240.848 183.847 235.567C183.798 249.362 183.592 264.404 183.145 280.954L183.236 283.844ZM314.323 232.147L314.855 187.397C314.8 166.394 292.974 162.874 276.855 163.139C287.665 159.562 300.675 153.453 310.1 143.27C319.98 134.147 327.023 121.296 325.807 103.264C323.751 72.9159 285.802 57.7993 222.894 63.8997C221.862 64.0007 220.834 64.1041 219.81 64.2114C216.856 41.7847 212.268 20.0601 205.268 0.000732422L202.156 3.09641C193.794 29.0331 188.796 49.7206 185.891 68.912C148.344 75.3827 122.04 83.9915 122.04 83.9915L118.94 87.0895C118.94 87.0895 149.301 84.3356 183.906 84.8233C180.058 124.161 183.977 161.529 183.856 232.117C127.957 230.542 78.9042 239.83 66.9103 254.76C62.9682 258.008 60.8725 261.575 61.006 265.401C61.6109 282.511 112.441 298.226 183.876 304.227L186.919 401.251L190.022 398.145L195.042 332.353C195.062 331.277 195.19 330.363 195.393 329.589C196.892 329.792 198.312 331.708 198.312 335.052L200.52 421.702L203.632 418.605L208.957 348.085C208.943 346.513 209.117 345.216 209.41 344.18C210.922 344.443 212.315 346.659 212.2 350.63L214.663 440.964L217.761 437.869L222.02 306.4C230.233 306.659 238.609 306.802 247.136 306.802C256.166 306.802 265.058 306.647 273.771 306.357L278.085 443.421L281.187 440.326L284.871 368.588C284.879 367.151 285.039 365.951 285.302 364.98C286.712 365.302 288.008 367.402 287.999 371.105L291.704 471.71L294.798 468.614L298.555 381.695C298.597 380.454 298.779 379.407 299.058 378.54C300.847 378.52 302.652 380.655 302.735 384.805L305.825 500L308.923 496.892L313.44 303.995C374.491 298.667 420.838 286.351 432.322 272.201C436.136 268.998 438.176 265.678 438.176 262.306C437.316 243.521 380.842 229.011 314.323 232.147Z" fill="#9EA2A2"/>
</g>
</g>
<path id="Fill 4" fill-rule="evenodd" clip-rule="evenodd" d="M313.704 284.191L314.319 232.563C361.53 238.652 400.377 245.417 400.377 256.641C400.377 269.51 365.009 279.627 313.704 284.191ZM222.668 286.364L223.03 275.21C222.162 246.102 224.058 209.386 224.572 170.252C247.996 172.664 278.191 179.038 277.689 195.888L276.835 286.4C268.21 286.688 259.321 286.838 250.236 286.838C240.797 286.838 231.587 286.676 222.668 286.364ZM101.243 256.641C101.243 245.048 144.071 238.919 186.95 232.472C186.904 246.264 186.697 261.301 186.252 277.842L186.45 284.145C135.759 279.558 101.243 269.465 101.243 256.641ZM286.025 112.284C291.14 150.244 252.421 162.728 224.613 166.817C224.91 139.562 224.485 111.218 221.95 83.5093C254.797 86.652 283.637 94.5247 286.025 112.284ZM438.177 262.307C437.315 243.52 380.843 229.012 314.323 232.147L314.853 187.398C314.779 159.707 276.863 162.404 264.078 164.1C278.996 161.403 328.884 148.944 325.806 103.264C323.751 72.9151 285.8 57.7986 222.893 63.8997C221.861 64.0008 220.833 64.1057 219.809 64.2106C216.855 41.784 212.266 20.0594 205.267 0C196.516 27.1273 191.441 48.5139 188.599 68.4522C149.609 74.963 122.039 83.9931 122.039 83.9931C122.039 83.9931 152.399 81.2392 187.005 81.7292C183.096 121.656 187.194 159.551 186.952 232.215C120.825 229.887 63.4182 242.761 64.1127 262.307C64.7053 279.416 115.54 295.14 186.982 301.143L190.022 398.144L195.042 332.355C195.193 324.195 201.411 324.948 201.411 331.956L203.63 418.606L208.956 348.084C208.873 338.569 215.529 339.018 215.303 347.536L217.762 437.869L222.122 303.223C231.286 303.546 240.674 303.717 250.236 303.717C259.266 303.717 268.155 303.562 276.867 303.275L281.188 440.325L284.87 368.587C284.922 359.441 291.112 359.919 291.092 368.015L294.796 468.613L298.556 381.694C298.841 373.154 305.67 373.534 305.823 381.694L308.924 496.891L313.502 301.286V301.167C385.742 295.184 438.177 279.444 438.177 262.307Z" fill="#CE1141"/>
</g>
</g>
</svg>
