<svg width="500" height="500" viewBox="0 0 500 500" fill="none" xmlns="http://www.w3.org/2000/svg">
<g id="Style=Alternate, Color=Dark">
<g id="IPacersP_pms">
<path id="Fill 1" fill-rule="evenodd" clip-rule="evenodd" d="M459.499 82.0053C425.55 41.0385 376.655 18.2524 321.845 18.1567L102.63 18.174L0.907715 480.564L188.052 480.691L214.908 368.798C240.049 368.798 306.14 368.822 306.069 368.822C368.76 369.262 420.201 348.026 454.825 307.411C517.707 238.919 506.663 138.928 459.499 82.0053Z" fill="#B6B7B6"/>
<path id="Fill 2" fill-rule="evenodd" clip-rule="evenodd" d="M205.333 356.617L178.483 468.502L16.041 468.566L112.425 30.3525L321.812 30.4952C373.961 30.5908 418.612 51.7357 450.127 89.779C496.568 145.821 501.115 238.966 445.554 299.513C411.478 339.477 361.529 357.03 306.152 356.629L205.333 356.617Z" fill="#022145"/>
<path id="Fill 3" fill-rule="evenodd" clip-rule="evenodd" d="M90.8418 127.697L182.624 127.761C193.166 127.761 204.397 136.623 199.528 150.019C196.522 158.305 194.22 167.902 193.146 176.918C192.31 183.955 200.171 188.395 204.676 188.395L391.721 188.523C395.23 188.523 397.096 187.528 397.096 185.854C397.096 184.181 396.934 177.978 396.262 173.63C395.615 169.479 394.928 168.773 391.574 168.773C368.263 168.753 358.752 158.36 334.32 142.601C309.886 126.843 274.049 117.774 243.246 117.755L93.0738 117.652L90.8418 127.697Z" fill="#F3B53E"/>
<path id="Fill 4" fill-rule="evenodd" clip-rule="evenodd" d="M204.162 248.846C200.922 241.907 197.93 233.664 196.096 226.077C193.778 216.366 185.572 208.478 171.513 208.466L73.0801 208.401L75.5158 197.358L394.564 197.571C397.738 197.571 397.064 198.908 396.903 202.421C396.72 205.95 395.903 212.483 395.389 216.33C394.886 220.175 391.71 219.265 388.679 219.334C381.494 219.495 368.147 221.193 360.372 227.024C347.146 236.964 318.958 254.41 303.096 259.485C286.105 264.895 222.568 284.347 203.969 248.515" fill="#F3B53E"/>
<path id="Fill 5" fill-rule="evenodd" clip-rule="evenodd" d="M55.4282 288.777L222.03 288.899C229.389 288.899 235.707 290.647 240.627 294.737C254.703 306.339 272.956 314.772 292.326 320.378C301.025 322.89 315.966 319.647 329.342 312.077C362.699 293.224 384.149 257.352 391.187 234.249C393.032 228.219 389.514 228.711 384.836 229.04C370.786 230.043 356.016 242.758 336.591 255.145C317.148 267.515 277.623 279.224 240.112 279.187L57.5709 279.068L55.4282 288.777Z" fill="#F3B53E"/>
<path id="Fill 6" fill-rule="evenodd" clip-rule="evenodd" d="M299.823 65.6462C302.173 65.2276 310.602 64.7072 315.29 66.5538C346.941 79.0191 376.875 111.976 389.406 146.992C391.819 153.726 392.409 158.046 389.397 158.387C374.892 159.986 368.135 152.836 351.063 141.272C333.996 129.703 318.261 121.82 296.649 114.943C275.359 108.159 236.554 107.196 231.533 107.027C226.524 106.856 227.157 104.754 229.345 102.58C247.931 84.0228 272.913 70.5448 299.823 65.6462Z" fill="#F3B53E"/>
<path id="Fill 7" fill-rule="evenodd" clip-rule="evenodd" d="M451.658 185.714C451.745 187.055 450.328 188.567 448.655 188.567C448.483 188.567 412.155 188.536 412.155 188.536C407.467 188.536 407.383 186.365 407.234 183.68C407.047 181.001 406.3 175.643 406.138 172.457C405.978 169.372 404.85 165.833 408.98 164.097C419.137 159.804 428.748 149.866 433.111 141.332C434.583 138.463 436.793 133.715 439.29 137.75C447.927 151.562 450.629 168.6 451.658 185.714Z" fill="#F3B53E"/>
<path id="Fill 8" fill-rule="evenodd" clip-rule="evenodd" d="M438.605 251.292C437.972 252.524 435.635 253.444 434.883 251.438C429.554 237.192 416.906 227.396 408.199 222.533C405.557 221.064 405.347 219.35 405.676 216.752C406.021 214.156 407.113 205.865 407.286 202.357C407.422 199.589 408.538 197.585 410.632 197.585L448.656 197.609C449.997 197.615 451.682 198.821 451.682 199.824C451.682 217.964 446.177 235.862 438.605 251.292Z" fill="#F3B53E"/>
<path id="Fill 9" fill-rule="evenodd" clip-rule="evenodd" d="M339.712 322.66C337.032 323.046 331.187 322.127 340.403 316.772C368.041 300.711 392.655 263.014 399.221 241.366C401.731 233.106 401.999 232.672 405.163 233.583C409.389 234.784 416.047 240.546 421.155 247.575C426.259 254.607 428.472 268.305 425.519 272.241C405.666 298.88 374.099 317.612 339.712 322.66Z" fill="#F3B53E"/>
<path id="Fill 10" fill-rule="evenodd" clip-rule="evenodd" d="M409.997 152.036C403.572 155.496 402.328 154.853 400.959 150.014C388.953 107.897 353.541 76.7114 339.067 67.4926C336.304 65.7494 337.022 64.5847 339.016 64.8528C373.683 69.4661 407.627 88.36 424.716 114.245C434.486 129.076 416.219 148.689 409.997 152.036Z" fill="#F3B53E"/>
</g>
</g>
</svg>
