<svg width="500" height="500" viewBox="0 0 500 500" fill="none" xmlns="http://www.w3.org/2000/svg">
<g id="Style=Alternate, Color=Dark">
<g id="Middle">
<path id="Vector" d="M52.6664 231.82L0.220358 239.974C5.50903 106.655 115.249 0 249.89 0V1.32217V82.4152V106.655V119.877V133.539L251.212 133.98L254.958 119.877H320.405L320.846 121.419C320.185 126.267 320.626 140.37 344.425 150.727L345.086 152.71L250.11 150.286L155.134 152.71L155.796 150.727C179.815 140.37 180.035 126.267 179.374 121.419L179.815 119.877H245.262L241.957 106.875L194.359 108.418L194.799 107.096C208.903 99.1626 209.343 87.9242 209.123 83.7373L209.564 82.1948H235.566L227.854 52.8867C134.861 63.4641 61.2605 138.167 52.6664 231.82ZM418.687 146.1L410.974 169.238L412.517 172.763H481.71L484.575 164.169C450.639 71.3971 363.376 4.40724 260.026 0.440733L268.18 52.8867C332.085 58.3958 386.955 94.3147 418.687 146.1ZM412.737 327.016L411.194 330.542L418.907 353.68C387.175 405.245 332.305 441.164 268.841 447.113L260.688 499.559C364.037 495.372 451.08 428.383 485.015 335.831L482.151 327.237H412.737V327.016ZM349.493 165.932L348.832 163.949H249.89H150.948L150.286 165.932C150.066 171.882 147.422 190.613 121.419 216.395L120.758 218.599C135.302 212.428 148.303 207.14 160.423 202.512C175.408 197.003 189.511 192.376 203.173 188.85C210.666 186.866 218.158 185.104 225.43 183.561C233.142 182.019 240.635 180.696 248.127 179.595L249.669 179.374L251.212 179.595C257.602 180.476 263.993 181.578 270.604 182.9C276.774 184.222 283.164 185.544 289.775 187.307C301.675 190.392 313.795 194.138 327.016 198.766C344.866 205.156 362.274 212.208 379.242 219.48L378.36 216.395C352.578 190.833 349.714 171.882 349.493 165.932ZM305.421 107.316C291.318 99.383 290.877 88.1446 291.097 83.9577L290.657 82.4152H264.654L258.264 106.875L305.862 108.418L305.421 107.316ZM294.182 366.902C294.403 367.122 294.623 367.342 294.844 367.783C295.284 368.444 296.166 369.105 297.047 369.766C297.929 370.427 299.03 371.089 300.353 371.529C302.556 372.631 305.641 373.513 309.387 374.394C316.219 376.157 323.931 377.038 330.762 377.699C332.746 377.92 334.509 378.14 336.492 378.14C339.577 369.326 343.323 360.511 347.73 351.697C339.797 355.223 331.203 358.308 322.168 360.952C310.71 364.257 301.014 366.02 294.182 366.902ZM190.613 374.394C194.359 373.513 197.223 372.631 199.647 371.529C200.97 371.089 202.071 370.207 202.953 369.766C203.834 369.105 204.716 368.444 205.156 367.783C205.377 367.563 205.597 367.122 205.818 366.902C199.207 366.02 189.29 364.257 177.832 361.172C168.797 358.528 160.203 355.443 152.27 351.917C156.677 360.732 160.423 369.326 163.508 378.36C165.491 378.14 167.254 378.14 169.238 377.92C175.848 377.038 183.781 376.157 190.613 374.394ZM499.559 249.89V259.806L447.113 267.959L392.243 276.554C380.564 295.505 368.004 314.456 356.985 333.627C355.663 334.509 354.341 335.17 353.019 336.051C335.61 345.967 316.219 351.917 294.844 353.68C296.827 349.052 299.691 344.645 302.556 340.238C304.099 337.814 305.862 335.39 308.065 332.305C309.828 329.881 311.811 327.237 314.015 324.372C319.524 317.32 325.253 310.048 330.762 303.217C333.407 299.912 336.271 296.386 339.136 292.86L345.527 284.927C345.747 284.487 345.967 284.266 346.408 283.825C348.171 281.401 349.934 278.978 351.697 276.774C353.68 274.13 355.663 271.265 357.647 268.4C358.308 267.519 358.748 266.637 359.409 265.756C359.63 265.315 360.071 264.654 360.511 264.213L349.934 261.128C349.934 261.128 349.934 261.349 349.714 261.349C349.273 262.23 348.612 263.112 348.171 263.993C346.628 266.417 344.866 268.841 342.442 271.926C339.357 276.113 335.17 281.402 330.542 286.47C330.322 286.69 330.101 287.131 329.881 287.351C324.372 293.742 318.202 300.353 312.472 306.523C309.167 310.048 305.641 313.795 302.336 317.541C298.149 322.168 293.301 327.677 288.894 333.407C286.69 336.271 284.707 339.136 282.724 342.001C281.181 344.425 279.198 347.951 277.655 351.697C276.554 354.341 275.231 358.528 275.452 363.376C275.452 368.004 277.435 372.851 280.74 376.377C282.503 378.361 284.487 379.903 286.47 381.225C288.673 382.547 290.877 383.649 292.86 384.531C296.606 386.073 300.793 387.175 305.641 388.056C309.828 388.938 314.015 389.379 317.981 389.599C322.168 390.04 326.576 390.04 330.101 390.04C330.322 390.04 330.542 390.04 330.542 390.04C331.424 390.04 332.085 390.04 332.966 390.04C332.305 392.464 331.864 394.888 331.203 397.312L294.623 410.533L271.926 418.907L256.06 255.84L254.517 241.075L251.653 211.106L249.89 211.767V241.075V249.669V253.636V432.349V498.678V500C111.944 500 0 388.277 0 250.331V250.11H55.0904H147.201H161.745L162.186 248.568L138.167 241.957L115.69 235.787L116.571 233.363C157.779 215.073 202.512 197.664 249.89 191.053C296.386 197.223 341.119 215.734 383.429 234.024L384.09 235.787L361.613 241.957L337.814 248.568L338.255 250.11H352.799H444.91H499.559V249.89ZM231.82 447.113L227.413 418.466L205.818 410.313L169.238 397.091C169.238 397.091 169.238 397.091 169.017 397.091C168.576 394.667 167.915 392.243 167.254 389.819C168.136 389.819 168.797 389.819 169.678 389.819C169.899 389.819 170.119 389.819 170.119 389.819C173.865 389.819 178.052 389.819 182.239 389.379C186.205 389.158 190.392 388.717 194.579 387.836C199.427 386.955 203.394 385.853 207.36 384.31C209.343 383.429 211.547 382.547 213.751 381.005C215.513 379.683 217.717 378.14 219.48 376.157C222.785 372.631 224.548 367.783 224.769 363.156C224.769 360.952 224.769 357.206 222.565 351.476C221.023 347.73 219.039 344.205 217.497 341.781C215.734 338.916 213.53 335.831 211.327 333.186C206.919 327.457 202.071 321.948 197.885 317.32C194.579 313.574 191.053 309.828 187.748 306.302C181.798 300.132 175.848 293.521 170.339 287.131C170.119 286.911 169.899 286.69 169.678 286.249C165.051 280.961 160.864 275.672 157.779 271.485C155.575 268.4 153.812 265.976 152.049 263.552C151.388 262.671 150.948 261.789 150.507 260.908C150.507 260.908 150.507 260.688 150.286 260.688L139.709 263.773C140.15 264.213 140.37 264.874 140.811 265.315C141.472 266.197 141.913 267.078 142.574 267.959C144.557 270.824 146.54 273.689 148.524 276.333C150.286 278.757 152.049 281.181 153.812 283.605C154.033 283.826 154.253 284.266 154.473 284.487L160.864 292.42C163.729 295.945 166.373 299.471 169.238 302.777C174.747 309.828 180.696 316.88 185.985 323.931C188.189 326.796 190.172 329.22 191.935 331.864C194.138 334.949 195.901 337.373 197.444 339.797C200.309 344.205 203.173 348.612 205.156 353.239C184.002 351.256 164.39 345.306 147.201 335.61C145.879 334.949 144.557 334.068 143.235 333.186C132.437 314.015 119.877 295.064 107.977 276.113L53.1071 267.519C61.4808 362.935 136.844 438.519 231.82 447.113Z" fill="#0A2240"/>
</g>
</g>
</svg>
