<svg width="500" height="500" viewBox="0 0 500 500" fill="none" xmlns="http://www.w3.org/2000/svg">
<g id="Style=Regular, Color=Light">
<g id="LALakers_Global_pms">
<g id="Group 3">
<mask id="mask0_35_8841" style="mask-type:luminance" maskUnits="userSpaceOnUse" x="0" y="95" width="500" height="310">
<path id="Clip 2" fill-rule="evenodd" clip-rule="evenodd" d="M0 404.952H500V95.0645H0V404.952Z" fill="white"/>
</mask>
<g mask="url(#mask0_35_8841)">
<path id="Fill 1" fill-rule="evenodd" clip-rule="evenodd" d="M108.786 164.765C108.786 164.765 151.352 95.0645 238.513 95.0645C325.675 95.0645 366.216 162.736 366.216 162.736H484.462L479.731 191.835C479.731 191.835 476.35 203.337 470.947 204.692H479.052C479.052 204.692 481.757 214.843 465.541 250.032H499.998C499.998 250.032 501.353 311.613 427.029 340.71C427.029 340.71 388.517 352.89 368.917 331.915C368.917 331.915 329.731 405 238.513 405C147.298 405 106.083 329.883 106.083 329.883H0L16.8929 299.432H5.40635L18.9198 274.394H41.8937L45.946 264.919H35.1349L61.4881 216.197H76.3524L82.4325 201.307H69.5952L89.1897 164.765H108.786Z" fill="#FFFFFE"/>
</g>
</g>
<path id="Fill 4" fill-rule="evenodd" clip-rule="evenodd" d="M239.783 388.702C314.359 388.702 374.812 327.242 374.812 251.421C374.812 175.607 314.359 114.144 239.783 114.144C165.215 114.144 104.761 175.607 104.761 251.421C104.761 327.242 165.215 388.702 239.783 388.702Z" fill="#F3B237"/>
<path id="Fill 5" fill-rule="evenodd" clip-rule="evenodd" d="M254.682 250.739L248.79 250.689C248.378 250.689 248.042 251.026 248.042 251.44C248.042 251.852 248.378 252.189 248.79 252.189L254.768 252.13C256.783 252.13 258.644 252.388 258.132 253.284L242.651 282.893C240.729 286.425 236.652 285.523 236.009 282.704L228.34 243.028L255.298 222.079C257.98 219.771 263.132 216.016 265.774 216.062L271.647 216.034C275.226 216.003 276.496 217.684 275.657 219.846L274.619 221.852C273.946 222.975 271.824 223.109 270.028 223.109L266.637 223.125C266.223 223.125 265.887 223.462 265.887 223.877C265.887 224.293 266.223 224.628 266.637 224.628L269.984 224.63C271.425 224.63 273.25 224.661 272.577 225.752L260.068 249.634C259.491 250.566 256.895 250.739 254.682 250.739ZM301.333 265.475C288.715 280.796 281.57 286.039 268.756 286.039C264.399 286.039 262.123 285.063 263.342 282.947L278.544 252.342H284.34C290.811 252.342 289.913 257.798 288.159 265.192C287.838 266.222 288.627 266.287 289.396 265.385L303.844 239.958C304.547 238.357 302.731 238.034 301.831 239.254C294.594 249.095 286.981 248.365 283.769 248.365H281.152L297.374 217.343H303.921C312.163 217.857 316 224.865 313.619 241.757H317.044L328.976 218.2C329.937 216.209 327.898 214.392 325.651 214.392L244.674 214.422C239.997 214.422 239.786 218.02 244.272 218.02C247.917 218.02 247.728 223.257 244.456 225.784L210.084 253.116L217.02 285.389C217.535 287.828 219.092 288.992 221.783 288.992H288.743C291.499 288.992 292.642 287.862 293.535 286.708L305.667 265.732C307.335 262.719 303.451 262.907 301.333 265.475Z" fill="#49266C"/>
<path id="Fill 6" fill-rule="evenodd" clip-rule="evenodd" d="M153.195 256.669H131.883L158.834 221.079L153.195 256.669ZM148.257 278.779C147.615 282.436 143.947 284.859 139.334 286.074L134.573 287.268L138.48 280.216C139.506 278.289 137.255 277.154 134.794 280.022C118.234 299.329 112.96 308.575 87.4287 308.644L80.566 308.66C78.4962 308.66 76.2121 307.842 77.6192 305.85L86.6581 289.002L120.965 289.007C125.642 289.007 124.443 285.479 121.691 285.38C119.875 285.32 117.89 284.28 116.484 282.055C116.094 281.436 115.243 278.993 116.584 277.104L129.714 259.622H151.557L148.257 278.779ZM199.094 285.38C197.281 285.32 196.112 284.076 195.709 282.877C195.134 281.143 195.181 278.081 195.884 276.733L227.123 221.244C227.632 220.221 228.897 218.074 230.45 218.08C233.203 218.083 234.4 214.452 229.726 214.452H204.71C200.033 214.452 199.983 218.015 204.466 218.015C206.297 218.015 207.016 219.809 206.505 220.901L199.588 233.451C198.724 234.83 196.808 234.934 194.789 234.934L188.832 234.917C188.417 234.917 188.083 235.254 188.083 235.671C188.083 236.083 188.417 236.42 188.832 236.42L194.74 236.424C196.342 236.424 197.618 236.909 196.689 238.769L173.633 280.841C171.967 283.15 168.662 283.664 168.853 279.235L177.053 217.62C177.373 215.693 176.867 214.392 174.817 214.392L162.449 214.406C160.976 214.406 160.063 215.126 159.356 216.087L154.927 221.653C154.352 222.228 153.107 222.227 151.73 222.227L141.351 222.212C140.939 222.212 140.603 222.549 140.603 222.962C140.603 223.378 140.939 223.714 141.351 223.714H149.825C151.329 223.714 153.09 224.068 152.45 224.776L140.558 239.758C140.202 240.175 139.044 240.294 138.336 240.294L134.977 240.276C134.563 240.276 134.226 240.612 134.226 241.027C134.226 241.442 134.563 241.78 134.977 241.78L137.779 241.782C138.643 241.782 138.652 242.213 138.298 242.597L127.125 256.669C126.548 257.214 125.426 257.328 124.335 257.328L114.471 257.318C114.055 257.318 113.724 257.65 113.724 258.066C113.724 258.477 114.055 258.814 114.471 258.814L122.943 258.82C124.226 258.82 125.222 259.053 124.547 259.919L108.65 279.885C105.668 283.695 91.2779 285.627 88.474 285.627L142.224 184.901C142.738 183.744 144.732 181.981 146.803 181.981H158.213C163.595 181.981 163.437 178.388 158.76 178.388H101.387C96.7121 178.388 96.5224 181.981 101.905 181.981H112.526C115.537 181.981 116.514 183.806 115.736 185.292L114.217 188.067C113.704 188.967 112.995 189.329 110.08 189.329L91.3073 189.313C90.893 189.313 90.5589 189.651 90.5589 190.064C90.5589 190.478 90.893 190.814 91.3073 190.814L110.033 190.817C111.057 190.817 112.576 191.083 111.616 192.912L108.987 197.804C108.538 198.542 107.387 198.891 106.075 198.891L97.5565 198.875C97.1406 198.875 96.8041 199.211 96.8041 199.626C96.8041 200.043 97.1406 200.375 97.5565 200.375L106.029 200.38C107.245 200.38 107.272 201.181 106.568 202.303L100.523 213.554C100.009 214.516 99.0272 214.645 97.1025 214.645L93.7105 214.631C93.2946 214.631 92.9597 214.966 92.9597 215.38C92.9597 215.797 93.2946 216.132 93.7105 216.132L97.0581 216.134C98.3367 216.134 98.6732 216.848 98.0986 218.068L93.1335 227.307C92.3954 228.624 91.3391 229.15 88.0367 229.15L69.2652 229.135C68.8518 229.135 68.5152 229.472 68.5152 229.884C68.5152 230.299 68.8518 230.636 69.2652 230.636L87.9875 230.638C90.1033 230.671 90.8835 231.607 90.0494 233.119L80.3597 251.362C79.7843 252.165 78.1994 252.284 75.5113 252.284L56.7383 252.269C56.324 252.269 55.9875 252.606 55.9875 253.022C55.9875 253.433 56.324 253.77 56.7383 253.77L75.4613 253.775C77.7049 253.775 79.0732 253.864 78.401 255.053L72.816 265.568C71.7906 267.179 68.9113 267.174 67.7898 267.174L61.8311 267.159C61.4184 267.159 61.0819 267.491 61.0819 267.907C61.0819 268.324 61.4184 268.661 61.8311 268.661H67.7398C69.8216 268.661 70.9264 269.023 70.3803 270.148L62.9248 284.186C62.251 285.439 59.3327 285.493 57.0883 285.493L28.0629 285.479C27.651 285.479 27.3145 285.816 27.3145 286.232C27.3145 286.644 27.651 286.98 28.0629 286.98L57.0399 286.985C58.9629 286.985 61.3922 287.223 60.497 288.764L55.7359 297.728C55.2851 298.467 53.6605 298.531 51.3216 298.531L45.3652 298.516C44.951 298.516 44.6145 298.853 44.6145 299.269C44.6145 299.68 44.951 300.017 45.3652 300.017H51.274C52.7176 300.017 54.4684 300.181 53.8589 301.276L50.8819 307.004C49.9216 308.422 48.9621 309.69 46.6565 309.69H32.0938C26.7113 309.69 26.8994 313.283 31.5764 313.283L117.101 313.328C119.596 313.328 119.679 312.99 120.86 311.153L133.541 289.002L198.37 289.007C203.045 289.007 201.848 285.479 199.094 285.38Z" fill="#49266C"/>
<path id="Fill 7" fill-rule="evenodd" clip-rule="evenodd" d="M364.636 244.763C362.285 246.696 358.58 248.921 357.864 248.212C356.864 247.221 353.754 245.07 352.083 244.299L366.047 218.733C366.62 217.833 367.283 217.343 368.822 217.343C374.257 217.343 376.039 223.25 373.487 230.603C371.699 235.76 368.795 241.339 364.636 244.763ZM477.386 267.685C477.034 265.93 476.394 266.996 475.239 269.206C474.884 269.88 473.764 269.894 472.644 269.894L469.217 269.909C468.804 269.909 468.465 270.246 468.465 270.657C468.465 271.075 468.804 271.411 469.217 271.411L472.587 271.406C473.87 271.406 473.887 272.264 473.287 273.552C470.931 278.592 468.501 281.966 465.278 285.999C464.766 286.644 463.468 287.188 462.438 287.188L458.999 287.203C458.582 287.203 458.245 287.54 458.245 287.957C458.245 288.373 458.582 288.705 458.999 288.705H462.368C464.064 288.705 462.349 289.756 462.06 290.137C456.078 298.125 451.958 301.692 447.562 305.27C447.047 305.687 444.567 305.543 442.833 305.532L439.439 305.548C439.025 305.548 438.689 305.885 438.689 306.301C438.689 306.713 439.025 307.049 439.439 307.049L442.786 307.054C445.347 307.054 443.428 308.526 443.041 308.848C433.729 316.622 419.838 319.13 413.494 318.333C392.864 315.746 388.618 300.072 387.094 293.803C386.775 292.496 385.789 289.815 385.462 288.15C384.823 284.875 394.127 283.943 396.697 285.667C400.595 288.279 409.675 290.954 416.823 290.98C423.434 291.005 436.965 286.197 440.883 274.821C444.887 263.186 434.823 250.274 430.367 245.814C424.686 240.127 419.331 231.072 421.588 224.43C423.291 219.426 426.141 217.151 432.247 217.151C440.13 217.151 445.874 222.226 445.874 229.437C445.874 230.078 445.475 230.845 444.96 230.845L442.176 230.859C441.763 230.859 441.426 231.196 441.426 231.612C441.426 232.025 441.763 232.361 442.176 232.361H444.793C445.529 232.361 445.991 232.921 445.801 233.819C445.287 236.232 445.118 237.926 444.594 240.345C444.29 241.747 446.339 242.718 447.047 241.693L459.443 219.526C460.341 217.857 458.348 217.411 456.875 217.921C453.487 219.102 447.965 219.918 446.01 218.512C441.374 215.182 437.156 213.04 430.676 213.04C419.663 213.04 411.942 215.756 406.995 224.843C406.608 225.547 405.523 225.537 404.596 225.537L402.48 225.533C402.067 225.533 401.73 225.87 401.73 226.285C401.73 226.697 402.067 227.035 402.48 227.035L404.282 227.019C405.052 227.019 405.57 227.233 405.183 228.133C404.838 228.947 404.537 229.811 404.25 230.706C402.996 234.631 403.401 240.152 405.365 245.07C405.494 245.389 405.081 245.543 404.322 245.542L400.943 245.556C400.53 245.556 400.194 245.893 400.194 246.306C400.194 246.721 400.53 247.058 400.943 247.058H404.313C405.844 247.065 406.203 247.216 406.839 248.113C408.579 250.566 410.366 252.383 412.604 255.237C413.306 256.134 410.299 256.386 408.695 256.372L395.336 256.367C394.921 256.367 394.586 256.704 394.586 257.12C394.586 257.536 394.921 257.868 395.336 257.868L408.865 257.854C411.041 257.854 414.771 257.819 415.188 258.299C418.46 262.08 422.419 267.907 423.087 272.813C423.279 274.226 422.745 274.821 421.015 274.821H419.206C418.791 274.821 418.454 275.152 418.454 275.568C418.454 275.985 418.791 276.322 419.206 276.322H420.798C422.174 276.322 422.926 276.544 422.61 277.57C420.856 283.185 418.225 287.253 407.518 287.194C396.291 287.134 394.009 276.113 397.294 264.618C397.946 262.323 397.264 261.342 396.238 263.14L388.427 275.44C388.233 275.727 387.479 276.426 386.293 276.426L385.183 276.42C384.766 276.42 384.429 276.758 384.429 277.174C384.429 277.59 384.778 277.923 385.192 277.923C386.184 277.923 386.568 278.453 386.189 278.997L383.315 283.477C378.601 272.665 370.685 259.34 366.47 254.488L366.543 254.255C376.952 253.626 392.31 243.861 394.823 235.132C399.188 219.984 384.499 214.392 376.496 214.392L341.306 214.398C336.629 214.398 336.291 217.945 340.774 217.945C343.199 217.945 345.316 220.072 344.245 222.222L336.448 236.29C335.806 237.444 333.389 237.375 330.253 237.375H326.838C326.425 237.375 326.087 237.708 326.087 238.124C326.087 238.54 326.425 238.874 326.838 238.874H330.195C332.436 238.874 334.906 239.01 334.076 240.616L324.86 257.278C324.411 258.047 323.218 258.121 320.08 258.121L316.681 258.13C316.268 258.13 315.935 258.467 315.935 258.885C315.935 259.3 316.268 259.637 316.681 259.637L320.004 259.633C322.475 259.633 323.397 259.964 322.694 261.248L310.384 283.541C308.91 285.147 307.16 285.444 304.151 285.444C299.667 285.444 299.717 289.007 304.393 289.007H334.532C339.21 289.007 338.014 285.38 335.26 285.38C333.641 285.386 331.918 282.397 332.997 280.608L348.382 251.422H349.945C356.787 251.422 358.439 262.665 359.732 274.939C359.823 275.816 358.151 275.866 354.744 275.866L346.188 275.876C345.776 275.876 345.44 276.213 345.44 276.629C345.44 277.045 345.776 277.377 346.188 277.377H354.655C356.901 277.377 360.036 277.397 360.114 278.125C360.702 283.507 361.147 288.249 362.172 292.565C362.494 293.913 360.091 293.705 357.53 293.705L346.64 293.72C346.224 293.72 345.889 294.057 345.889 294.468C345.889 294.884 346.224 295.221 346.64 295.221L357.522 295.236C360.941 295.236 362.706 295.231 362.9 295.934C367.587 313.149 387.689 326.702 407.236 325.954C424.005 325.314 438.172 316.177 445.426 310.349C455.074 302.599 469.249 286.361 475.016 274.553C476.075 272.387 477.772 269.612 477.386 267.685Z" fill="#49266C"/>
<path id="Fill 8" fill-rule="evenodd" clip-rule="evenodd" d="M194.937 191.669C192.114 195.331 188.364 196.262 184.16 196.262H182.974L190.389 181.563C190.741 180.891 191.524 180.364 192.487 180.364C193.418 180.364 193.305 178.507 192.088 178.507H180.403C179.41 178.507 179.057 180.364 179.986 180.364C180.984 180.364 181.165 181.468 180.685 182.399L174.049 195.504C173.6 196.212 172.864 196.404 172.052 196.615C171.066 196.868 170.387 198.633 171.509 198.633H190.164C191.603 198.633 191.939 198.1 192.326 197.585L196.072 191.768C196.617 191.06 195.482 190.963 194.937 191.669Z" fill="#49266C"/>
<path id="Fill 9" fill-rule="evenodd" clip-rule="evenodd" d="M251.132 179.027C250.567 179.336 249.229 179.5 248.652 179.018C247.164 177.778 244.239 176.827 242.709 176.827C238.308 176.827 235.122 177.695 233.209 181.855C231.577 185.396 233.25 188.363 237.131 190.163C238.811 190.94 241.042 191.956 240.187 193.986C239.563 195.466 237.84 195.613 236.288 195.6C234.205 195.579 231.075 194.017 230.587 191.072C230.425 190.107 229.307 190.332 228.987 190.845L226.332 196.142C225.917 196.849 227.008 197.634 227.444 197.17C228.34 196.206 230.293 195.978 231.253 196.62C232.575 197.501 235.973 199.046 238.005 199.031C242.46 198.998 245.4 197.852 247.837 194.023C250.071 190.53 248.698 187.064 244.632 185.147C242.483 184.134 240.644 182.341 241.603 180.365C242.227 179.076 244.145 179.358 245.097 179.519C246.914 179.825 249.24 181.535 249.51 183.046C249.625 183.685 250.44 183.814 250.795 183.236L252.195 179.968C252.514 179.327 251.485 178.835 251.132 179.027Z" fill="#49266C"/>
<path id="Fill 10" fill-rule="evenodd" clip-rule="evenodd" d="M380.584 184.291L382.207 181.292C382.914 179.977 381.753 178.481 379.891 178.481H358.109C356.538 178.481 357 180.124 357.644 180.124C359.041 180.124 359.454 181.828 358.607 183.268L352.056 195.341C351.079 196.493 350.453 196.991 349.057 196.991C347.933 196.991 347.534 198.633 349.106 198.633H371.181C372.077 198.633 372.471 198.313 372.79 197.861L375.791 193.869C376.526 192.908 374.942 192.908 374.459 193.388C370.65 197.208 366.573 197.095 363.611 197.095H361.038L364.06 190.336H364.706C366.646 190.336 368.885 190.315 369.469 191.791C369.627 192.144 370.588 192.432 370.973 191.791L373.548 186.63C373.965 185.862 372.804 185.727 372.489 186.278C371.471 188.099 366.996 187.611 365.824 187.611H365.181L368.944 180.169H373.14C375.746 180.169 377.992 182.016 378.727 184.034C378.902 184.517 380.296 184.901 380.584 184.291Z" fill="#49266C"/>
<path id="Fill 11" fill-rule="evenodd" clip-rule="evenodd" d="M272.882 188.119L280.144 182.174L280.175 188.119H272.882ZM324.851 178.481H317.099C315.528 178.481 315.99 180.124 316.631 180.124C318.29 180.124 319.796 182.069 318.886 183.861L315.678 189.742L308.601 179.372C308.121 178.729 307.005 178.417 306.048 178.417H298.421C296.85 178.417 297.214 180.044 297.856 180.044C299.476 180.044 299.056 181.259 298.655 182.125L292.581 193.848C292.195 194.779 290.536 194.913 290.025 193.725L285.319 178.377C285.124 177.768 282.377 177.799 281.673 178.377L269.885 188.108L263.782 188.119C262.565 188.119 262.086 188.62 262.086 189.263C262.086 189.904 262.545 190.49 263.828 190.49L267.018 190.485L263.828 193.117C262.051 194.444 260.234 196.262 259.026 196.262H258.284C257.128 196.262 256.482 196.449 256.482 197.381C256.482 198.313 256.969 198.633 258.059 198.633H267.566C269.359 198.633 269.01 196.293 268.113 196.293C267.13 196.293 265.507 195.037 267.014 193.273L269.914 190.49H275.634C279.028 190.49 281.4 194.43 279.381 195.651L277.809 196.519C277.075 196.902 276.751 198.633 277.812 198.633H296.393C297.769 198.633 297.49 196.806 296.847 196.806C294.947 196.806 295.844 194.066 296.21 193.334L301.091 184.073L307.949 197.381C308.397 198.216 308.801 198.633 309.603 198.633H312.227C313.061 198.633 313.342 198.15 313.728 197.51L321.536 183.383C322.793 180.86 323.755 180.133 325.335 180.133C325.978 180.133 326.423 178.481 324.851 178.481Z" fill="#49266C"/>
<path id="Fill 12" fill-rule="evenodd" clip-rule="evenodd" d="M216.648 190.188C214.576 194.329 211.106 196.785 208.898 195.676C206.69 194.568 206.581 190.312 208.649 186.172C210.72 182.029 214.19 179.573 216.401 180.682C218.607 181.79 218.722 186.047 216.648 190.188ZM214.801 177.596C208.265 177.596 201.534 180.819 200.19 187.687C199.022 193.663 203.148 199.865 210.444 199.865C217.39 199.865 223.802 195.306 225.095 188.716C226.388 182.09 221.463 177.596 214.801 177.596Z" fill="#49266C"/>
<path id="Fill 13" fill-rule="evenodd" clip-rule="evenodd" d="M346.943 187.616H338.548C336.975 187.616 337.44 189.258 338.081 189.258C338.743 189.258 339.36 189.607 339.36 190.666C339.363 194.064 337.913 195.373 335.003 195.373C331.806 195.373 330.652 191.491 332.806 186.728C334.181 183.685 337.814 180.838 342.13 180.838C344.773 180.838 346.993 181.411 347.332 183.893C347.413 184.505 348.326 184.504 348.645 183.927L350.637 180.355C350.862 179.968 350.512 179.514 349.905 179.476C349.394 179.443 348.245 180.106 347.49 179.544C345.805 178.292 342.15 177.081 339.39 177.081C334.888 177.081 328.591 178.1 324.346 185.492C320.503 192.175 326.098 199.245 331.286 199.256C334.172 199.261 337.516 197.123 339.433 196.314L341.577 197.768C341.896 198.151 342.569 198.633 343.209 198.633H344.01C344.747 198.633 345.036 197.624 345.323 196.981L348.616 188.999C349.034 188.199 348.8 187.616 346.943 187.616Z" fill="#49266C"/>
<path id="Fill 14" fill-rule="evenodd" clip-rule="evenodd" d="M461.944 179.027C461.379 179.336 460.041 179.5 459.467 179.018C457.979 177.778 455.053 176.827 453.521 176.827C449.125 176.827 445.933 177.695 444.02 181.855C442.389 185.396 444.06 188.363 447.944 190.163C449.623 190.94 451.857 191.956 450.998 193.986C450.375 195.466 448.65 195.613 447.1 195.6C445.021 195.579 441.888 194.017 441.397 191.072C441.239 190.107 440.123 190.332 439.803 190.845L437.142 196.142C436.726 196.849 437.825 197.634 438.256 197.17C439.154 196.206 441.11 195.978 442.067 196.62C443.389 197.501 446.79 199.046 448.819 199.031C453.272 198.998 456.21 197.852 458.654 194.023C460.883 190.53 459.511 187.064 455.445 185.147C453.294 184.134 451.454 182.341 452.417 180.365C453.044 179.076 454.957 179.358 455.914 179.519C457.725 179.825 460.052 181.535 460.321 183.046C460.437 183.685 461.254 183.814 461.607 183.236L463.009 179.968C463.326 179.327 462.295 178.835 461.944 179.027Z" fill="#49266C"/>
<path id="Fill 15" fill-rule="evenodd" clip-rule="evenodd" d="M403.572 191.669C400.749 195.331 396.998 196.262 392.796 196.262H391.608L399.025 181.563C399.376 180.891 400.157 180.364 401.124 180.364C402.051 180.364 401.938 178.507 400.721 178.507H389.038C388.043 178.507 387.692 180.364 388.623 180.364C389.616 180.364 389.796 181.468 389.32 182.399L382.681 195.504C382.233 196.212 381.499 196.404 380.686 196.615C379.702 196.868 379.021 198.633 380.145 198.633H398.797C400.239 198.633 400.576 198.1 400.958 197.585L404.708 191.768C405.252 191.06 404.116 190.963 403.572 191.669Z" fill="#49266C"/>
<path id="Fill 16" fill-rule="evenodd" clip-rule="evenodd" d="M431.706 180.169C434.313 180.169 436.559 182.016 437.294 184.034C437.469 184.517 438.861 184.901 439.151 184.291L440.774 181.292C441.478 179.977 440.32 178.481 438.46 178.481H416.672C415.106 178.481 415.568 180.124 416.205 180.124C417.607 180.124 418.022 181.828 417.176 183.268L410.625 195.341C409.646 196.493 409.02 196.991 407.618 196.991C406.499 196.991 406.102 198.633 407.675 198.633H429.744C430.642 198.633 431.036 198.313 431.357 197.861L434.355 193.869C435.095 192.908 433.511 192.908 433.03 193.388C429.217 197.208 425.14 197.095 422.177 197.095H419.604L422.627 190.336H423.269C425.211 190.336 427.446 190.315 428.032 191.791C428.196 192.144 429.153 192.432 429.536 191.791L432.115 186.63C432.53 185.862 431.366 185.727 431.058 186.278C430.038 188.099 425.565 187.611 424.391 187.611H423.748L427.508 180.169H431.706Z" fill="#49266C"/>
<g id="Group 27">
<mask id="mask1_35_8841" style="mask-type:luminance" maskUnits="userSpaceOnUse" x="104" y="176" width="271" height="150">
<path id="Clip 18" fill-rule="evenodd" clip-rule="evenodd" d="M353.179 325.984C366.865 304.514 374.812 278.912 374.812 251.421C374.812 223.918 366.856 198.303 353.156 176.827L126.417 176.827C112.717 198.303 104.761 223.918 104.761 251.421C104.761 278.912 112.708 304.514 126.393 325.984H353.179Z" fill="white"/>
</mask>
<g mask="url(#mask1_35_8841)">
<path id="Fill 17" fill-rule="evenodd" clip-rule="evenodd" d="M254.683 250.739L248.791 250.689C248.379 250.689 248.043 251.026 248.043 251.44C248.043 251.852 248.379 252.189 248.791 252.189L254.769 252.13C256.784 252.13 258.644 252.388 258.133 253.284L242.652 282.893C240.73 286.425 236.653 285.523 236.01 282.704L228.341 243.028L255.299 222.079C257.981 219.771 263.133 216.016 265.775 216.062L271.648 216.034C275.227 216.003 276.497 217.684 275.658 219.846L274.62 221.852C273.947 222.975 271.825 223.109 270.029 223.109L266.638 223.125C266.224 223.125 265.888 223.462 265.888 223.877C265.888 224.293 266.224 224.628 266.638 224.628L269.985 224.63C271.426 224.63 273.251 224.661 272.578 225.752L260.069 249.634C259.492 250.566 256.896 250.739 254.683 250.739ZM301.334 265.475C288.716 280.796 281.571 286.039 268.757 286.039C264.4 286.039 262.124 285.063 263.343 282.947L278.544 252.342H284.341C290.812 252.342 289.914 257.798 288.16 265.192C287.839 266.222 288.628 266.287 289.397 265.385L303.845 239.958C304.548 238.357 302.732 238.034 301.832 239.254C294.594 249.095 286.982 248.365 283.77 248.365H281.153L297.375 217.343H303.922C312.164 217.857 316.001 224.865 313.62 241.757H317.044L328.977 218.2C329.938 216.209 327.899 214.392 325.652 214.392L244.675 214.422C239.998 214.422 239.787 218.02 244.273 218.02C247.917 218.02 247.729 223.257 244.457 225.784L210.085 253.116L217.021 285.389C217.536 287.828 219.093 288.992 221.784 288.992H288.744C291.5 288.992 292.643 287.862 293.536 286.708L305.668 265.732C307.336 262.719 303.452 262.907 301.334 265.475Z" fill="#49266C"/>
<path id="Fill 19" fill-rule="evenodd" clip-rule="evenodd" d="M153.195 256.669H131.883L158.834 221.079L153.195 256.669ZM148.257 278.779C147.615 282.436 143.947 284.859 139.334 286.074L134.573 287.268L138.48 280.216C139.506 278.289 137.255 277.154 134.794 280.022C118.234 299.329 112.96 308.575 87.4287 308.644L80.566 308.66C78.4962 308.66 76.2121 307.842 77.6192 305.85L86.6581 289.002L120.965 289.007C125.642 289.007 124.443 285.479 121.691 285.38C119.875 285.32 117.89 284.28 116.484 282.055C116.094 281.436 115.243 278.993 116.584 277.104L129.714 259.622H151.557L148.257 278.779ZM199.094 285.38C197.281 285.32 196.112 284.076 195.709 282.877C195.134 281.143 195.181 278.081 195.884 276.733L227.123 221.244C227.632 220.221 228.897 218.074 230.45 218.08C233.203 218.083 234.4 214.452 229.726 214.452H204.71C200.033 214.452 199.983 218.015 204.466 218.015C206.297 218.015 207.016 219.809 206.505 220.901L199.588 233.451C198.724 234.83 196.808 234.934 194.789 234.934L188.832 234.917C188.417 234.917 188.083 235.254 188.083 235.671C188.083 236.083 188.417 236.42 188.832 236.42L194.74 236.424C196.342 236.424 197.618 236.909 196.689 238.769L173.633 280.841C171.967 283.15 168.662 283.664 168.853 279.235L177.053 217.62C177.373 215.693 176.867 214.392 174.817 214.392L162.449 214.406C160.976 214.406 160.063 215.126 159.356 216.087L154.927 221.653C154.352 222.228 153.107 222.227 151.73 222.227L141.351 222.212C140.939 222.212 140.603 222.549 140.603 222.962C140.603 223.378 140.939 223.714 141.351 223.714H149.825C151.329 223.714 153.09 224.068 152.45 224.776L140.558 239.758C140.202 240.175 139.044 240.294 138.336 240.294L134.977 240.276C134.563 240.276 134.226 240.612 134.226 241.027C134.226 241.442 134.563 241.78 134.977 241.78L137.779 241.782C138.643 241.782 138.652 242.213 138.298 242.597L127.125 256.669C126.548 257.214 125.426 257.328 124.335 257.328L114.471 257.318C114.055 257.318 113.724 257.65 113.724 258.066C113.724 258.477 114.055 258.814 114.471 258.814L122.943 258.82C124.226 258.82 125.222 259.053 124.547 259.919L108.65 279.885C105.668 283.695 91.2779 285.627 88.474 285.627L142.224 184.901C142.738 183.744 144.732 181.981 146.803 181.981H158.213C163.595 181.981 163.437 178.388 158.76 178.388H101.387C96.7121 178.388 96.5224 181.981 101.905 181.981H112.526C115.537 181.981 116.514 183.806 115.736 185.292L114.217 188.067C113.704 188.967 112.995 189.329 110.08 189.329L91.3073 189.313C90.893 189.313 90.5589 189.651 90.5589 190.064C90.5589 190.478 90.893 190.814 91.3073 190.814L110.033 190.817C111.057 190.817 112.576 191.083 111.616 192.912L108.987 197.804C108.538 198.542 107.387 198.891 106.075 198.891L97.5565 198.875C97.1406 198.875 96.8041 199.211 96.8041 199.626C96.8041 200.043 97.1406 200.375 97.5565 200.375L106.029 200.38C107.245 200.38 107.272 201.181 106.568 202.303L100.523 213.554C100.009 214.516 99.0272 214.645 97.1025 214.645L93.7105 214.631C93.2946 214.631 92.9597 214.966 92.9597 215.38C92.9597 215.797 93.2946 216.132 93.7105 216.132L97.0581 216.134C98.3367 216.134 98.6732 216.848 98.0986 218.068L93.1335 227.307C92.3954 228.624 91.3391 229.15 88.0367 229.15L69.2652 229.135C68.8518 229.135 68.5152 229.472 68.5152 229.884C68.5152 230.299 68.8518 230.636 69.2652 230.636L87.9875 230.638C90.1033 230.671 90.8835 231.607 90.0494 233.119L80.3597 251.362C79.7843 252.165 78.1994 252.284 75.5113 252.284L56.7383 252.269C56.324 252.269 55.9875 252.606 55.9875 253.022C55.9875 253.433 56.324 253.77 56.7383 253.77L75.4613 253.775C77.7049 253.775 79.0732 253.864 78.401 255.053L72.816 265.568C71.7906 267.179 68.9113 267.174 67.7898 267.174L61.8311 267.159C61.4184 267.159 61.0819 267.491 61.0819 267.907C61.0819 268.324 61.4184 268.661 61.8311 268.661H67.7398C69.8216 268.661 70.9264 269.023 70.3803 270.148L62.9248 284.186C62.251 285.439 59.3327 285.493 57.0883 285.493L28.0629 285.479C27.651 285.479 27.3145 285.816 27.3145 286.232C27.3145 286.644 27.651 286.98 28.0629 286.98L57.0399 286.985C58.9629 286.985 61.3922 287.223 60.497 288.764L55.7359 297.728C55.2851 298.467 53.6605 298.531 51.3216 298.531L45.3652 298.516C44.951 298.516 44.6145 298.853 44.6145 299.269C44.6145 299.68 44.951 300.017 45.3652 300.017H51.274C52.7176 300.017 54.4684 300.181 53.8589 301.276L50.8819 307.004C49.9216 308.422 48.9621 309.69 46.6565 309.69H32.0938C26.7113 309.69 26.8994 313.283 31.5764 313.283L117.101 313.328C119.596 313.328 119.679 312.99 120.86 311.153L133.541 289.002L198.37 289.007C203.045 289.007 201.848 285.479 199.094 285.38Z" fill="#49266C"/>
<path id="Fill 20" fill-rule="evenodd" clip-rule="evenodd" d="M364.636 244.763C362.285 246.696 358.58 248.921 357.864 248.212C356.864 247.221 353.754 245.07 352.083 244.299L366.047 218.733C366.62 217.833 367.283 217.343 368.822 217.343C374.257 217.343 376.039 223.25 373.487 230.603C371.699 235.76 368.795 241.339 364.636 244.763ZM477.386 267.685C477.034 265.93 476.394 266.996 475.239 269.206C474.884 269.88 473.764 269.894 472.644 269.894L469.217 269.909C468.804 269.909 468.465 270.246 468.465 270.657C468.465 271.075 468.804 271.411 469.217 271.411L472.587 271.406C473.87 271.406 473.887 272.264 473.287 273.552C470.931 278.592 468.501 281.966 465.278 285.999C464.766 286.644 463.468 287.188 462.438 287.188L458.999 287.203C458.582 287.203 458.245 287.54 458.245 287.957C458.245 288.373 458.582 288.705 458.999 288.705H462.368C464.064 288.705 462.349 289.756 462.06 290.137C456.078 298.125 451.958 301.692 447.562 305.27C447.047 305.687 444.567 305.543 442.833 305.532L439.439 305.548C439.025 305.548 438.689 305.885 438.689 306.301C438.689 306.713 439.025 307.049 439.439 307.049L442.786 307.054C445.347 307.054 443.428 308.526 443.041 308.848C433.729 316.622 419.838 319.13 413.494 318.333C392.864 315.746 388.618 300.072 387.094 293.803C386.775 292.496 385.789 289.815 385.462 288.15C384.823 284.875 394.127 283.943 396.697 285.667C400.595 288.279 409.675 290.954 416.823 290.98C423.434 291.005 436.965 286.197 440.883 274.821C444.887 263.186 434.823 250.274 430.367 245.814C424.686 240.127 419.331 231.072 421.588 224.43C423.291 219.426 426.141 217.151 432.247 217.151C440.13 217.151 445.874 222.226 445.874 229.437C445.874 230.078 445.475 230.845 444.96 230.845L442.176 230.859C441.763 230.859 441.426 231.196 441.426 231.612C441.426 232.025 441.763 232.361 442.176 232.361H444.793C445.529 232.361 445.991 232.921 445.801 233.819C445.287 236.232 445.118 237.926 444.594 240.345C444.29 241.747 446.339 242.718 447.047 241.693L459.443 219.526C460.341 217.857 458.348 217.411 456.875 217.921C453.487 219.102 447.965 219.918 446.01 218.512C441.374 215.182 437.156 213.04 430.676 213.04C419.663 213.04 411.942 215.756 406.995 224.843C406.608 225.547 405.523 225.537 404.596 225.537L402.48 225.533C402.067 225.533 401.73 225.87 401.73 226.285C401.73 226.697 402.067 227.035 402.48 227.035L404.282 227.019C405.052 227.019 405.57 227.233 405.183 228.133C404.838 228.947 404.537 229.811 404.25 230.706C402.996 234.631 403.401 240.152 405.365 245.07C405.494 245.389 405.081 245.543 404.322 245.542L400.943 245.556C400.53 245.556 400.194 245.893 400.194 246.306C400.194 246.721 400.53 247.058 400.943 247.058H404.313C405.844 247.065 406.203 247.216 406.839 248.113C408.579 250.566 410.366 252.383 412.604 255.237C413.306 256.134 410.299 256.386 408.695 256.372L395.336 256.367C394.921 256.367 394.586 256.704 394.586 257.12C394.586 257.536 394.921 257.868 395.336 257.868L408.865 257.854C411.041 257.854 414.771 257.819 415.188 258.299C418.46 262.08 422.419 267.907 423.087 272.813C423.279 274.226 422.745 274.821 421.015 274.821H419.206C418.791 274.821 418.454 275.152 418.454 275.568C418.454 275.985 418.791 276.322 419.206 276.322H420.798C422.174 276.322 422.926 276.544 422.61 277.57C420.856 283.185 418.225 287.253 407.518 287.194C396.291 287.134 394.009 276.113 397.294 264.618C397.946 262.323 397.264 261.342 396.238 263.14L388.427 275.44C388.233 275.727 387.479 276.426 386.293 276.426L385.183 276.42C384.766 276.42 384.429 276.758 384.429 277.174C384.429 277.59 384.778 277.923 385.192 277.923C386.184 277.923 386.568 278.453 386.189 278.997L383.315 283.477C378.601 272.665 370.685 259.34 366.47 254.488L366.543 254.255C376.952 253.626 392.31 243.861 394.823 235.132C399.188 219.984 384.499 214.392 376.496 214.392L341.306 214.398C336.629 214.398 336.291 217.945 340.774 217.945C343.199 217.945 345.316 220.072 344.245 222.222L336.448 236.29C335.806 237.444 333.389 237.375 330.253 237.375H326.838C326.425 237.375 326.087 237.708 326.087 238.124C326.087 238.54 326.425 238.874 326.838 238.874H330.195C332.436 238.874 334.906 239.01 334.076 240.616L324.86 257.278C324.411 258.047 323.218 258.121 320.08 258.121L316.681 258.13C316.268 258.13 315.935 258.467 315.935 258.885C315.935 259.3 316.268 259.637 316.681 259.637L320.004 259.633C322.475 259.633 323.397 259.964 322.694 261.248L310.384 283.541C308.91 285.147 307.16 285.444 304.151 285.444C299.667 285.444 299.717 289.007 304.393 289.007H334.532C339.21 289.007 338.014 285.38 335.26 285.38C333.641 285.386 331.918 282.397 332.997 280.608L348.382 251.422H349.945C356.787 251.422 358.439 262.665 359.732 274.939C359.823 275.816 358.151 275.866 354.744 275.866L346.188 275.876C345.776 275.876 345.44 276.213 345.44 276.629C345.44 277.045 345.776 277.377 346.188 277.377H354.655C356.901 277.377 360.036 277.397 360.114 278.125C360.702 283.507 361.147 288.249 362.172 292.565C362.494 293.913 360.091 293.705 357.53 293.705L346.64 293.72C346.224 293.72 345.889 294.057 345.889 294.468C345.889 294.884 346.224 295.221 346.64 295.221L357.522 295.236C360.941 295.236 362.706 295.231 362.9 295.934C367.587 313.149 387.689 326.702 407.236 325.954C424.005 325.314 438.172 316.177 445.426 310.349C455.074 302.599 469.249 286.361 475.016 274.553C476.075 272.387 477.772 269.612 477.386 267.685Z" fill="#49266C"/>
<path id="Fill 21" fill-rule="evenodd" clip-rule="evenodd" d="M194.937 191.669C192.114 195.331 188.364 196.262 184.16 196.262H182.974L190.389 181.563C190.741 180.891 191.524 180.364 192.487 180.364C193.418 180.364 193.305 178.507 192.088 178.507H180.403C179.41 178.507 179.057 180.364 179.986 180.364C180.984 180.364 181.165 181.468 180.685 182.399L174.049 195.504C173.6 196.212 172.864 196.404 172.052 196.615C171.066 196.868 170.387 198.633 171.509 198.633H190.164C191.603 198.633 191.939 198.1 192.326 197.585L196.072 191.768C196.617 191.06 195.482 190.963 194.937 191.669Z" fill="#49266C"/>
<path id="Fill 22" fill-rule="evenodd" clip-rule="evenodd" d="M251.132 179.027C250.567 179.336 249.229 179.5 248.652 179.018C247.164 177.778 244.239 176.827 242.709 176.827C238.308 176.827 235.122 177.695 233.209 181.855C231.577 185.396 233.25 188.363 237.131 190.163C238.811 190.94 241.042 191.956 240.187 193.986C239.563 195.466 237.84 195.613 236.288 195.6C234.205 195.579 231.075 194.017 230.587 191.072C230.425 190.107 229.307 190.332 228.987 190.845L226.332 196.142C225.917 196.849 227.008 197.634 227.444 197.17C228.34 196.206 230.293 195.978 231.253 196.62C232.575 197.501 235.973 199.046 238.005 199.031C242.46 198.998 245.4 197.852 247.837 194.023C250.071 190.53 248.698 187.064 244.632 185.147C242.483 184.134 240.644 182.341 241.603 180.365C242.227 179.076 244.145 179.358 245.097 179.519C246.914 179.825 249.24 181.535 249.51 183.046C249.625 183.685 250.44 183.814 250.795 183.236L252.195 179.968C252.514 179.327 251.485 178.835 251.132 179.027Z" fill="#49266C"/>
<path id="Fill 23" fill-rule="evenodd" clip-rule="evenodd" d="M380.584 184.291L382.207 181.292C382.914 179.977 381.753 178.481 379.891 178.481H358.109C356.538 178.481 357 180.124 357.644 180.124C359.041 180.124 359.454 181.828 358.607 183.268L352.056 195.341C351.079 196.493 350.453 196.991 349.057 196.991C347.933 196.991 347.534 198.633 349.106 198.633H371.181C372.077 198.633 372.471 198.313 372.79 197.861L375.791 193.869C376.526 192.908 374.942 192.908 374.459 193.388C370.65 197.208 366.573 197.095 363.611 197.095H361.038L364.06 190.336H364.706C366.646 190.336 368.885 190.315 369.469 191.791C369.627 192.144 370.588 192.432 370.973 191.791L373.548 186.63C373.965 185.862 372.804 185.727 372.489 186.278C371.471 188.099 366.996 187.611 365.824 187.611H365.181L368.944 180.169H373.14C375.746 180.169 377.992 182.016 378.727 184.034C378.902 184.517 380.296 184.901 380.584 184.291Z" fill="#49266C"/>
<path id="Fill 24" fill-rule="evenodd" clip-rule="evenodd" d="M272.883 188.119L280.145 182.174L280.176 188.119H272.883ZM324.852 178.481H317.1C315.529 178.481 315.991 180.124 316.632 180.124C318.291 180.124 319.797 182.069 318.887 183.861L315.679 189.742L308.602 179.372C308.121 178.729 307.006 178.417 306.049 178.417H298.421C296.851 178.417 297.215 180.044 297.857 180.044C299.477 180.044 299.057 181.259 298.656 182.125L292.582 193.848C292.196 194.779 290.537 194.913 290.026 193.725L285.32 178.377C285.125 177.768 282.378 177.799 281.674 178.377L269.886 188.108L263.783 188.119C262.566 188.119 262.087 188.62 262.087 189.263C262.087 189.904 262.546 190.49 263.829 190.49L267.019 190.485L263.829 193.117C262.052 194.444 260.235 196.262 259.027 196.262H258.285C257.129 196.262 256.483 196.449 256.483 197.381C256.483 198.313 256.97 198.633 258.06 198.633H267.567C269.36 198.633 269.011 196.293 268.114 196.293C267.131 196.293 265.508 195.037 267.015 193.273L269.915 190.49H275.635C279.029 190.49 281.401 194.43 279.382 195.651L277.81 196.519C277.076 196.902 276.752 198.633 277.813 198.633H296.394C297.77 198.633 297.491 196.806 296.848 196.806C294.948 196.806 295.845 194.066 296.211 193.334L301.092 184.073L307.95 197.381C308.398 198.216 308.802 198.633 309.604 198.633H312.228C313.062 198.633 313.343 198.15 313.729 197.51L321.537 183.383C322.794 180.86 323.756 180.133 325.336 180.133C325.979 180.133 326.424 178.481 324.852 178.481Z" fill="#49266C"/>
<path id="Fill 25" fill-rule="evenodd" clip-rule="evenodd" d="M216.648 190.188C214.576 194.329 211.106 196.785 208.898 195.676C206.69 194.568 206.581 190.312 208.649 186.172C210.72 182.029 214.19 179.573 216.401 180.682C218.607 181.79 218.722 186.047 216.648 190.188ZM214.801 177.596C208.265 177.596 201.534 180.819 200.19 187.687C199.022 193.663 203.148 199.865 210.444 199.865C217.39 199.865 223.802 195.306 225.095 188.716C226.388 182.09 221.463 177.596 214.801 177.596Z" fill="#49266C"/>
<path id="Fill 26" fill-rule="evenodd" clip-rule="evenodd" d="M346.943 187.616H338.548C336.975 187.616 337.44 189.258 338.081 189.258C338.743 189.258 339.36 189.607 339.36 190.666C339.363 194.064 337.913 195.373 335.003 195.373C331.806 195.373 330.652 191.491 332.806 186.728C334.181 183.685 337.814 180.838 342.13 180.838C344.773 180.838 346.993 181.411 347.332 183.893C347.413 184.505 348.326 184.504 348.645 183.927L350.637 180.355C350.862 179.968 350.512 179.514 349.905 179.476C349.394 179.443 348.245 180.106 347.49 179.544C345.805 178.292 342.15 177.081 339.39 177.081C334.888 177.081 328.591 178.1 324.346 185.492C320.503 192.175 326.098 199.245 331.286 199.256C334.172 199.261 337.516 197.123 339.433 196.314L341.577 197.768C341.896 198.151 342.569 198.633 343.209 198.633H344.01C344.747 198.633 345.036 197.624 345.323 196.981L348.616 188.999C349.034 188.199 348.8 187.616 346.943 187.616Z" fill="#49266C"/>
</g>
</g>
<path id="Fill 28" fill-rule="evenodd" clip-rule="evenodd" d="M263.241 128.122C252.96 127.388 244.562 127.094 237.223 127.864C239.347 122.499 243.599 117.482 246.881 115.282C253.883 115.57 261.117 116.59 266.847 117.724C285.179 121.347 313.681 132.54 325.961 149.042C309.595 138.1 282.398 129.487 263.241 128.122ZM232.457 128.504C226.276 128.889 215.071 131.327 211.077 132.483C210.046 129.789 207.216 121.443 206.31 118.749C217.69 115.516 230.91 114.387 241.085 115.282C238.255 117.466 233.488 126.064 232.457 128.504ZM180.681 143.778C179.412 141.639 173.386 136.131 170.121 135.051C177.719 129.405 195.366 121.316 202.062 119.906C203.22 121.832 206.31 130.046 207.342 133.509C201.417 134.792 185.705 140.442 180.681 143.778ZM345.927 162.517C344.252 160.591 341.933 156.487 325.319 141.983C300.893 120.659 268.519 110.921 238.127 110.921C215.714 110.921 196.098 115.959 174.37 127.94C146.685 143.207 135.219 160.749 132.385 164.315C130.297 166.938 129.997 168.472 131.353 169.255C132.321 169.815 134.183 167.775 135.927 165.469C144.158 154.576 154.987 143.778 166.386 137.427C169.928 137.937 174.886 142.879 176.817 145.511C169.521 149.493 157.435 158.708 152.862 162.263C148.912 165.33 147.546 167.045 148.612 168.294C149.497 169.331 152.519 167.289 155.053 165.213C159.431 161.618 172.437 152.379 178.877 148.913C183.258 154.047 181.841 163.543 180.293 165.599C179.463 166.703 179.349 167.882 180.293 168.422C181.197 168.935 182.177 167.632 183.45 165.791C186.435 161.472 185.242 151.01 182.677 147.243C190.534 142.367 201.804 139.094 208.631 137.553C209.209 138.644 217.485 162.868 219.062 167.266C219.926 169.676 220.78 172.557 222.542 172.016C223.71 171.654 222.938 169.015 221.959 166.368C220.752 163.09 214.49 142.75 212.559 136.718C214.814 135.5 228.409 132.735 231.815 132.869C230.138 141.725 236.398 145.357 243.47 150.004C247.23 152.475 271.127 166.225 276.119 169.321C278.968 171.088 281.181 172.208 281.786 171.376C282.482 170.422 280.549 168.422 277.92 166.882C275.829 165.655 253.596 152.736 244.304 146.858C237.655 142.652 234.081 138.144 235.677 132.226C237.866 131.585 244.566 131.528 251.519 131.585C298.915 131.972 336.912 159.18 341.161 163.543C343.316 165.756 346.313 167.651 347.471 166.754C348.204 166.185 346.939 163.682 345.927 162.517Z" fill="#0F1216"/>
<path id="Fill 29" fill-rule="evenodd" clip-rule="evenodd" d="M356.18 325.027C357.933 321.796 359.358 319.957 357.854 319.125C356.483 318.362 355.146 321.355 353.477 324.259C347.937 333.881 341.891 341.83 328.235 354.293C313.102 368.093 295.711 376.11 289.66 378.167C284.507 363.663 264.865 301.89 264.349 300.126C263.577 297.495 262.918 296.732 262.03 297.049C261.035 297.406 261.645 298.843 262.159 301.157C262.674 303.466 286.052 376.562 286.824 379.129C282.185 381.437 263.342 386.715 250.183 387.151C238.463 387.537 224.681 387.151 217.726 385.545C209.572 378.954 191.027 352.726 183.991 338.763C175.695 322.312 170.198 307.174 168.781 300.756C168.102 297.684 167.232 295.468 165.694 295.761C164.031 296.084 164.983 298.511 165.951 301.796C168.445 310.259 172.515 322.242 181.153 339.338C190.305 357.439 206.65 378.668 211.413 384.455C196.481 381.314 178.333 374.312 161.089 361.438C146.231 350.343 133.471 336.221 127.054 325.929C125.952 324.16 124.663 321.662 123.063 322.717C122.342 323.193 123.233 325.2 124.349 327.212C133.664 343.975 156.402 367.712 185.527 380.734C219.476 395.911 256.492 395.105 289.593 382.27C318.547 371.046 343.737 347.95 356.18 325.027Z" fill="#0F1216"/>
<g id="Group 33">
<mask id="mask2_35_8841" style="mask-type:luminance" maskUnits="userSpaceOnUse" x="122" y="114" width="237" height="275">
<path id="Clip 31" fill-rule="evenodd" clip-rule="evenodd" d="M358.487 316.909C335.614 359.675 291.033 388.702 239.783 388.702C189.792 388.702 146.144 361.079 122.803 320.024L122.803 182.822C146.144 141.768 189.792 114.144 239.783 114.144C291.033 114.144 335.614 143.172 358.487 185.937V316.909V316.909Z" fill="white"/>
</mask>
<g mask="url(#mask2_35_8841)">
<path id="Fill 30" fill-rule="evenodd" clip-rule="evenodd" d="M263.241 128.122C252.96 127.388 244.562 127.094 237.223 127.864C239.347 122.499 243.599 117.482 246.881 115.282C253.883 115.57 261.117 116.59 266.847 117.724C285.179 121.347 313.681 132.54 325.961 149.042C309.595 138.1 282.398 129.487 263.241 128.122ZM232.457 128.504C226.276 128.889 215.071 131.327 211.077 132.483C210.046 129.789 207.216 121.443 206.31 118.749C217.69 115.516 230.91 114.387 241.085 115.282C238.255 117.466 233.488 126.064 232.457 128.504ZM180.681 143.778C179.412 141.639 173.386 136.131 170.121 135.051C177.719 129.405 195.366 121.316 202.062 119.906C203.22 121.832 206.31 130.046 207.342 133.509C201.417 134.792 185.705 140.442 180.681 143.778ZM345.927 162.517C344.252 160.591 341.933 156.487 325.319 141.983C300.893 120.659 268.519 110.921 238.127 110.921C215.714 110.921 196.098 115.959 174.37 127.94C146.685 143.207 135.219 160.749 132.385 164.315C130.297 166.938 129.997 168.472 131.353 169.255C132.321 169.815 134.183 167.775 135.927 165.469C144.158 154.576 154.987 143.778 166.386 137.427C169.928 137.937 174.886 142.879 176.817 145.511C169.521 149.493 157.435 158.708 152.862 162.263C148.912 165.33 147.546 167.045 148.612 168.294C149.497 169.331 152.519 167.289 155.053 165.213C159.431 161.618 172.437 152.379 178.877 148.913C183.258 154.047 181.841 163.543 180.293 165.599C179.463 166.703 179.349 167.882 180.293 168.422C181.197 168.935 182.177 167.632 183.45 165.791C186.435 161.472 185.242 151.01 182.677 147.243C190.534 142.367 201.804 139.094 208.631 137.553C209.209 138.644 217.485 162.868 219.062 167.266C219.926 169.676 220.78 172.557 222.542 172.016C223.71 171.654 222.938 169.015 221.959 166.368C220.752 163.09 214.49 142.75 212.559 136.718C214.814 135.5 228.409 132.735 231.815 132.869C230.138 141.725 236.398 145.357 243.47 150.004C247.23 152.475 271.127 166.225 276.119 169.321C278.968 171.088 281.181 172.208 281.786 171.376C282.482 170.422 280.549 168.422 277.92 166.882C275.829 165.655 253.596 152.736 244.304 146.858C237.655 142.652 234.081 138.144 235.677 132.226C237.866 131.585 244.566 131.528 251.519 131.585C298.915 131.972 336.912 159.18 341.161 163.543C343.316 165.756 346.313 167.651 347.471 166.754C348.204 166.185 346.939 163.682 345.927 162.517Z" fill="#0F1216"/>
<path id="Fill 32" fill-rule="evenodd" clip-rule="evenodd" d="M356.18 325.027C357.933 321.796 359.358 319.957 357.854 319.125C356.483 318.362 355.146 321.355 353.477 324.259C347.937 333.881 341.891 341.83 328.235 354.293C313.102 368.093 295.711 376.11 289.66 378.167C284.507 363.663 264.865 301.89 264.349 300.126C263.577 297.495 262.918 296.732 262.03 297.049C261.035 297.406 261.645 298.843 262.159 301.157C262.674 303.466 286.052 376.562 286.824 379.129C282.185 381.437 263.342 386.715 250.183 387.151C238.463 387.537 224.681 387.151 217.726 385.545C209.572 378.954 191.027 352.726 183.991 338.763C175.695 322.312 170.198 307.174 168.781 300.756C168.102 297.684 167.232 295.468 165.694 295.761C164.031 296.084 164.983 298.511 165.951 301.796C168.445 310.259 172.515 322.242 181.153 339.338C190.305 357.439 206.65 378.668 211.413 384.455C196.481 381.314 178.333 374.312 161.089 361.438C146.231 350.343 133.471 336.221 127.054 325.929C125.952 324.16 124.663 321.662 123.063 322.717C122.342 323.193 123.233 325.2 124.349 327.212C133.664 343.975 156.402 367.712 185.527 380.734C219.476 395.911 256.492 395.105 289.593 382.27C318.547 371.046 343.737 347.95 356.18 325.027Z" fill="#0F1216"/>
</g>
</g>
</g>
</g>
</svg>
