<svg width="500" height="500" viewBox="0 0 500 500" fill="none" xmlns="http://www.w3.org/2000/svg">
<g id="Style=Alternate, Color=Dark">
<g id="MGrizzlies_P_pms">
<g id="Group 3">
<mask id="mask0_35_4424" style="mask-type:luminance" maskUnits="userSpaceOnUse" x="0" y="17" width="500" height="467">
<path id="Clip 2" fill-rule="evenodd" clip-rule="evenodd" d="M0 483.953H499.999V17.4966H0V483.953Z" fill="white"/>
</mask>
<g mask="url(#mask0_35_4424)">
<path id="Fill 1" fill-rule="evenodd" clip-rule="evenodd" d="M467.519 130.087C465.559 127.123 463.588 124.29 461.604 121.511C511.032 40.4328 394.414 -21.7187 352.191 47.0924C300.213 37.5077 256.757 56.534 250.913 59.259C245.055 56.5531 202.137 37.7666 150.652 46.8994C99.6588 -24.8884 -5.53322 49.3225 40.8533 120.58C38.6327 123.637 36.439 126.783 34.2803 130.087C-31.6666 230.493 17.8279 298.539 17.8279 298.539L27.9739 288.394C27.9739 288.394 42.3906 358.392 118.502 404.379L121.252 389.275C168.124 439.393 211.56 438.249 251.995 484C289.395 440.638 343.71 440.638 386.022 386.539V405.739C464.203 367.668 471.401 285.307 471.401 285.307L478.622 298.682C478.622 298.682 533.436 230.493 467.519 130.087Z" fill="#002344"/>
</g>
</g>
<path id="Fill 4" fill-rule="evenodd" clip-rule="evenodd" d="M301.74 201.206C305.399 199.869 311.855 203.738 315.312 210.466C331.185 205.879 330.323 184.487 330.235 182.98C317.655 187.88 307.271 196.309 301.74 201.206Z" fill="#F3B237"/>
<path id="Fill 5" fill-rule="evenodd" clip-rule="evenodd" d="M311.067 213.855C349.474 317.337 300.54 383.798 300.54 383.798C330.69 304.842 311.322 239.161 298.126 214.774C291.349 215.447 283.223 215.057 283.223 215.057C283.223 215.057 293.392 208.761 299.995 202.767C300.516 202.3 301.111 201.758 301.776 201.175C301.761 201.182 301.748 201.194 301.74 201.206C305.399 199.869 311.855 203.737 315.312 210.466C331.154 205.89 330.323 184.576 330.235 182.995C334.854 181.194 339.762 179.869 344.841 179.374C344.841 179.374 341.198 213.392 311.067 213.855ZM330.235 182.98C330.235 182.98 330.235 182.987 330.235 182.995C330.069 183.061 329.903 183.13 329.729 183.2C329.903 183.13 330.061 183.053 330.235 182.98ZM74.0967 113.341C72.7141 100.294 89.1816 87.3621 89.1816 87.3621C82.4038 80.3484 70.5356 86.4313 70.5356 86.4313C81.303 65.3678 105.394 75.668 105.394 75.668C96.257 64.4751 76.9157 65.1828 76.9157 65.1828C100.856 41.446 129.747 77.7314 129.747 77.7314C104.019 83.5594 74.0967 113.341 74.0967 113.341ZM371.686 80.3325C371.686 80.3325 387.311 41.2522 435.176 50.6788C435.176 50.6788 391.234 21.743 360.655 74.0717C360.655 74.0717 317.259 53.4689 251.847 81.77C251.847 81.77 189.87 60.1435 143.137 72.3943C143.137 72.3943 115.887 25.0708 77.5181 44.5681C39.138 64.0423 59.1665 109.125 65.8435 120.808C65.8435 120.808 2.25224 185.639 26.1697 265.797L38.9641 249.828C38.9641 249.828 57.2197 337.117 104.351 364.626L107.178 343.176C107.178 343.176 156.38 402.582 214.244 427.814C219.747 430.392 250.442 445.638 251.392 453.159V411.582C251.392 411.582 211.212 414.929 200.611 396.394C193.42 383.798 147.277 301.406 170.074 215.13C170.074 215.13 147.88 211.814 143.701 174.323C143.701 174.323 127.133 166.257 106.56 167.931C106.56 167.931 143.369 156.375 177.852 169.739C212.332 183.092 221.559 217.102 244.94 202.068L251.847 106.261L258.424 202.068C281.79 217.102 291.031 183.092 325.499 169.739C359.995 156.375 396.804 167.931 396.804 167.931C396.804 167.931 382.089 157.542 358.423 152.815C338.684 148.862 309.662 161.558 309.662 161.558C309.662 161.558 313.659 134.377 326.84 119.888C338.147 107.421 363.775 104.673 371.686 80.3325ZM251.539 304.537C255.918 303.872 325.346 301.349 282.806 344.537C312.466 305.248 258.642 304.943 251.539 304.537Z" fill="#5F81A8"/>
<path id="Fill 6" fill-rule="evenodd" clip-rule="evenodd" d="M174.852 182.938C174.759 184.522 173.941 205.89 189.771 210.466C193.173 203.857 199.272 200.012 202.971 201.156C194.498 194.57 183.877 187.243 174.852 182.938Z" fill="#F3B237"/>
<path id="Fill 7" fill-rule="evenodd" clip-rule="evenodd" d="M251.392 356.769C251.392 363.25 251.392 376.437 251.392 376.437L238.018 377.148C224.008 377.566 205.671 383.262 205.671 383.262C171.681 299.03 190.531 235.293 199.611 212.538C165.919 219.854 160.466 179.374 160.466 179.374C163.949 178.663 169.075 180.186 174.852 182.938C174.759 184.522 173.94 205.891 189.771 210.466C193.173 203.865 199.256 200.028 202.948 201.152C205.462 203.1 207.798 204.99 209.833 206.71C232.755 226.007 250.539 222.087 250.539 222.087C250.539 222.087 250.79 295.509 250.79 304.537C250.79 304.537 184.499 299.35 220.118 344.537C220.118 344.537 225.83 328.015 231.913 333.221C240.351 340.464 251.392 355.204 251.392 356.769ZM174.894 182.961C174.875 182.957 174.859 182.949 174.852 182.938C174.859 182.949 174.875 182.957 174.894 182.961ZM251.407 401.654C202.948 401.654 209.482 390.972 209.482 390.972C214.7 387.714 248.627 387.045 251.335 387.045C254.022 387.045 288.084 387.714 293.291 390.972C293.291 390.972 299.829 401.654 251.407 401.654Z" fill="#B8CCDE"/>
</g>
</g>
</svg>
