<svg width="500" height="500" viewBox="0 0 500 500" fill="none" xmlns="http://www.w3.org/2000/svg">
<g id="Style=Alternate, Color=Light">
<g id="MHeat_P_pms">
<g id="Group 3">
<mask id="mask0_5465_23678" style="mask-type:luminance" maskUnits="userSpaceOnUse" x="12" y="0" width="477" height="500">
<path id="Clip 2" fill-rule="evenodd" clip-rule="evenodd" d="M12.0002 499.927H488.327V0.531738H12.0002L12.0002 499.927V499.927Z" fill="white"/>
</mask>
<g mask="url(#mask0_5465_23678)">
<path id="Fill 1" fill-rule="evenodd" clip-rule="evenodd" d="M62.3345 192.061C63.8059 175.433 123.751 153.47 220.662 150.043C211.675 156.785 201.025 168.561 198.388 187.505L197.394 194.664C196.759 199.076 195.98 203.593 194.269 208.044C190.539 217.834 180.023 225.9 168.757 232.05C129.738 227.145 97.1311 218.931 78.0767 208.622L78.0437 208.617C67.6329 202.973 61.8905 196.936 62.3345 192.061ZM434.618 187.066C438.321 191.134 438.082 193.78 438.015 194.644C437.605 199.338 431.709 205.002 421.843 210.198L421.819 210.203C401.099 221.085 365.457 229.318 323.05 233.659C324.914 232.461 326.93 231.409 329.138 230.517L329.83 230.234C342.038 225.292 355.84 219.682 356.504 199.534C356.595 196.33 356.752 186.507 358.525 182.988C360.808 178.48 366.637 171.502 371.745 169.631C371.826 169.598 363.174 167.917 363.174 167.917C362.725 167.869 362.289 167.854 361.845 167.84C364.745 165.734 366.82 163.222 368.324 160.577C402.771 167.749 425.957 177.506 434.618 187.066ZM476.934 161.766C458.731 141.695 418.565 125.411 366.82 115.555C367.063 109.618 370.675 107.102 377.119 102.642C380.483 100.326 384.296 97.6856 388.122 94.0462C404.801 78.2015 385.213 53.9289 384.377 52.902L373.594 39.7602L376.174 56.5695C377.951 68.0829 373.718 72.1709 361.191 80.8995C359.595 81.9986 358.234 83.2296 357.03 84.5389C357.564 76.8409 357.923 68.2785 355.334 57.5389C352.735 46.7895 347.451 42.4435 347.451 42.4435L346.083 58.0303C346.075 58.1208 344.87 70.1978 328.737 84.7968C330.127 83.2443 331.426 81.6257 332.582 79.935C340.499 68.4313 338.211 55.347 335.549 40.199L335 37.0145C332.296 21.2125 336.509 11.3653 339.223 9.74183C341.88 6.52301 347.13 1.16604 347.13 1.16604C347.13 1.16604 344.345 -0.0857956 336.586 0.926429C326.486 2.32129 309.526 8.35186 309.984 22.1575C310.185 28.2321 312.135 33.9863 313.864 39.0633C315.717 44.5157 317.456 49.655 315.904 52.3091C314.666 54.4008 310.92 56.0682 305.058 57.1379C281.304 61.4594 263.087 72.5805 253.78 88.4448C250.703 93.6832 248.658 99.314 247.617 105.216C188.632 105.392 132.809 112.742 89.4954 126.137C40.9735 141.142 14.2236 161.566 12.1272 185.212C11.0228 197.657 16.6514 215.594 47.8019 232.857L47.5964 233.077L56.4393 237.308L56.454 237.316L61.1114 239.556L61.1738 239.495C75.5254 245.903 92.3721 251.442 111.139 256.022C104.455 259.78 98.3015 264.121 92.7732 269.045C62.5926 293.804 45.1931 330.513 45.1931 369.643C45.1931 404.464 58.7656 437.199 83.3947 461.816C108.034 486.447 140.774 500 175.609 500C237.269 500 290.931 456.32 303.333 396.074C313.864 364.595 312.649 330.819 312.172 318.088C311.13 289.149 325.349 273.137 334.398 265.917C375.582 260.711 412.054 251.69 439.19 239.595L439.248 239.643L443.624 237.561C443.639 237.556 443.639 237.551 443.663 237.551L453.055 233.072L452.802 232.824C474.651 220.632 486.857 206.296 488.195 191.024C489.108 180.848 485.305 171.001 476.934 161.766Z" fill="#0F1216"/>
</g>
</g>
<path id="Fill 4" fill-rule="evenodd" clip-rule="evenodd" d="M362.256 114.7C363.131 103.024 374.206 100.842 384.898 90.6745C398.648 77.6281 380.775 55.8579 380.775 55.8579C383.034 70.4985 376.249 76.0816 363.852 84.7198C359.92 87.452 357.083 91.3053 356.672 96.1525C356.226 101.582 355.883 107.436 354.689 113.386C357.244 113.807 359.757 114.247 362.256 114.7Z" fill="#ED992D"/>
<path id="Fill 6" fill-rule="evenodd" clip-rule="evenodd" d="M324.413 94.3521C321.111 96.8167 318.025 99.3423 315.135 101.925C313.07 103.894 311.068 105.856 309.215 107.732C321.298 108.774 333.032 110.135 344.346 111.787C351.559 98.626 355.013 83.7128 350.732 58.3032C350.732 58.3032 349.725 75.5086 324.413 94.3521Z" fill="#ED992D"/>
<path id="Fill 8" fill-rule="evenodd" clip-rule="evenodd" d="M256.943 105.231C270.755 105.369 284.31 105.918 297.5 106.825C297.954 106.386 298.36 105.943 298.824 105.508C307.691 95.9953 321.413 87.9635 328.746 77.2948C336.08 66.6359 333.127 53.5943 330.409 37.7973C325.736 10.5833 337.216 5.54053 337.216 5.54053C337.216 5.54053 314.198 8.71045 314.637 22.01C315.235 39.8657 333.634 56.6701 305.904 61.7178C275.47 67.252 256.551 83.7129 252.365 105.226C253.889 105.231 255.418 105.221 256.943 105.231Z" fill="#ED992D"/>
<path id="Fill 10" fill-rule="evenodd" clip-rule="evenodd" d="M50.2285 378.868C53.6446 396.017 63.472 416.556 82.969 430.261C88.8655 434.406 95.2867 437.768 102.08 440.342C97.8563 433.165 92.9689 425.934 87.9763 418.561C78.6553 404.808 69.004 390.591 62.8702 375.292C56.5396 359.49 54.8248 342.934 57.5902 326.297C52.5927 339.805 49.8604 354.4 49.8604 369.643C49.8604 372.752 49.9949 375.826 50.2285 378.868Z" fill="#81112C"/>
<path id="Fill 11" fill-rule="evenodd" clip-rule="evenodd" d="M71.2446 371.94C77.0065 386.337 86.3716 400.161 95.4248 413.508C102.434 423.838 109.28 433.924 114.483 444.128C120.225 445.466 126.15 446.325 132.198 446.693C125.949 437.777 120.517 427.639 115.849 416.03C97.7426 371.066 100.375 315.48 122.824 283.309C134.415 266.719 148.275 255.435 166.125 245.708C181.504 237.326 191.098 234.819 200.863 228.999C211.497 222.666 217.178 212.079 210.189 188.326C208.139 181.387 207.771 175.906 208.196 171.651C205.775 176.336 203.882 181.798 203.003 188.135L203.065 188.083C201.971 194.797 201.494 202.179 198.617 209.705C189.224 234.299 143.741 247.952 137.741 249.766C120.483 254.986 106.658 262.923 95.8884 272.511C64.7232 300.214 59.1716 341.764 71.2446 371.94Z" fill="#81112C"/>
<path id="Fill 12" fill-rule="evenodd" clip-rule="evenodd" d="M261.004 149.708C261.463 151.227 261.826 152.726 262.036 154.192C263.22 162.797 260.621 169.726 250.063 171.422C239.217 173.17 235.52 163.724 234.67 156.031C234.583 153.362 234.775 151.222 235.018 149.67C233.179 149.703 231.382 149.742 229.567 149.78C226.089 151.776 221.56 154.866 217.202 159.302C215.038 163.949 212.434 170.39 216.442 185.466C223.532 212.055 220.522 228.125 199.143 237.317C171.92 249.031 154.496 255.899 131.142 285.271C120.025 299.225 113.952 322.385 112.949 345.685C111.989 368.306 116.638 392.46 124.611 412.263C129.934 425.51 136.16 437.013 143.493 446.813C150.784 446.535 158.183 445.59 165.566 443.966C157.448 434.468 152.771 422.902 151.94 409.938C149.155 366.801 172.388 348.66 208.173 319.993L224.168 306.575C288.017 252.359 269.408 197.227 276.416 150.148C271.371 149.947 266.23 149.803 261.004 149.708Z" fill="#81112C"/>
<path id="Fill 13" fill-rule="evenodd" clip-rule="evenodd" d="M286.588 150.611C284.634 160.018 283.754 169.831 283.134 179.989C280.601 220.985 281.834 267.402 229.901 313.532L214.202 326.23C179.434 354.084 159.564 371.482 160.932 409.364C161.385 421.857 166.645 432.811 175.474 441.397C185.183 438.479 194.795 434.391 204.035 429.153C249.199 403.528 277.611 365.23 288.471 316.082C295.35 285.023 295.202 259.732 295.102 239.428C295.035 229.161 296.378 209.009 296.378 209.009C297.811 196.302 299.884 178.471 314.633 155.114C315.115 154.359 315.617 153.586 316.11 152.826C306.707 151.9 296.865 151.15 286.588 150.611Z" fill="#81112C"/>
<path id="Fill 14" fill-rule="evenodd" clip-rule="evenodd" d="M301.781 282.431C301.795 282.396 301.795 282.33 301.795 282.296C301.795 282.349 301.771 282.444 301.771 282.497C300.362 289.861 299.989 298.127 299.095 306.364C298.671 309.521 298.226 312.567 297.782 315.538C297.624 316.378 297.466 317.209 297.275 318.031C285.871 369.767 256.355 410.047 208.875 436.989C200.715 441.622 192.454 445.408 184.136 448.364C198.048 457.6 214.278 460.432 225.429 458.761C268.079 452.367 288.857 424.555 298.847 394.828C309.115 364.303 308.01 331.736 307.523 318.254C305.904 273.204 340.762 256.6 340.762 256.6C313.653 255.14 304.767 266.934 301.781 282.431Z" fill="#81112C"/>
<path id="Fill 15" fill-rule="evenodd" clip-rule="evenodd" d="M273.31 448.579C255.896 463.139 237.091 466.334 228.554 467.633C211.765 470.211 191.895 466.228 174.318 452.367C174.012 452.122 173.749 451.894 173.468 451.655C165.933 453.67 158.399 455.017 150.874 455.637C168.088 474.104 190.734 484.59 221.101 486.639C221.234 486.658 221.369 486.672 221.502 486.672C221.507 486.682 221.527 486.682 221.54 486.682C242.209 478.568 260.23 465.155 273.874 448.088C273.679 448.254 273.502 448.417 273.31 448.579Z" fill="#81112C"/>
<path id="Fill 16" fill-rule="evenodd" clip-rule="evenodd" d="M114.665 479.586C115.018 470.093 112.342 460.757 107.956 451.416C97.5407 448.417 87.3267 443.943 77.4846 437.958C71.9478 434.606 66.965 429.468 62.5497 424.674C62.535 424.655 62.5166 424.641 62.502 424.631C73.8399 447.883 92.1334 467.084 114.665 479.6V479.586Z" fill="#81112C"/>
<path id="Fill 17" fill-rule="evenodd" clip-rule="evenodd" d="M201.607 492.532C184.619 488.597 170.066 482.58 157.305 472.91C150.784 467.954 144.854 462.371 139.431 456.038C132.556 455.953 125.72 455.303 118.946 454.033C122.71 463.728 124.598 473.603 123.393 483.984V483.999C139.298 491.262 156.98 495.355 175.609 495.355C184.604 495.355 193.357 494.394 201.785 492.589C201.727 492.57 201.665 492.542 201.607 492.532Z" fill="#81112C"/>
<path id="Fill 18" fill-rule="evenodd" clip-rule="evenodd" d="M347.699 183.833C344.78 193.627 335.123 192.462 332.338 187.186C327.9 178.834 329.591 172.372 334.198 167.965C338.812 163.556 346.381 161.203 353.719 157.894C353.752 157.874 353.775 157.864 353.819 157.846C345.339 156.389 336.318 155.086 326.764 153.973C326.649 154.121 326.506 154.259 326.371 154.412C325.536 155.386 324.68 156.341 323.867 157.344C308.704 180.127 306.797 197.027 305.335 210.021L304.857 214.023C304.022 220.837 304.055 229.423 304.107 239.38C304.122 240.736 304.132 242.15 304.132 243.587C304.032 247.064 303.897 250.483 303.744 253.83C303.821 253.85 303.879 253.868 303.935 253.883C304.065 252.493 304.122 251.958 304.107 252.68C308.413 239.017 316.281 230.713 327.389 226.205C339.404 221.329 351.268 216.84 351.837 199.381C352.08 192.094 352.601 184.807 354.278 181.082C357.306 174.34 362.729 172.544 362.729 172.544C356.91 171.985 350.527 174.43 347.699 183.833Z" fill="#81112C"/>
<path id="Fill 19" fill-rule="evenodd" clip-rule="evenodd" d="M256.866 112.364C129.332 111.094 22.9293 144.011 19.2259 185.848C17.7545 202.515 32.8142 218.096 59.5067 230.87C76.0035 238.779 96.9634 245.598 121.2 250.974C126.059 248.816 131.137 246.896 136.47 245.277C140.693 244.007 148.5 241.452 157.07 237.727C121.363 232.513 92.4674 224.519 74.6851 214.897C61.537 207.796 54.4847 199.812 55.2357 191.43C57.71 163.347 147.004 141.418 254.678 142.478C362.328 143.538 447.604 167.172 445.11 195.265C444.441 202.925 437.318 210.116 425.135 216.516C402.656 228.33 362.925 237.413 314.681 241.634C313.008 243.922 311.556 246.447 310.333 249.323C332.271 241.004 357.564 253.305 357.564 253.305C357.564 253.305 359.261 253.96 360.431 254.752C392.465 249.055 419.971 240.931 440.586 231.109C464.975 219.505 479.757 205.532 481.095 190.39C484.797 148.552 384.41 113.616 256.866 112.364Z" fill="#FFFFFE"/>
</g>
</g>
</svg>
