<svg width="500" height="500" viewBox="0 0 500 500" fill="none" xmlns="http://www.w3.org/2000/svg">
<g id="Style=Alternate, Color=Light">
<g id="MBucks_P_A_pms">
<g id="Group 4">
<mask id="mask0_5465_23802" style="mask-type:luminance" maskUnits="userSpaceOnUse" x="62" y="0" width="378" height="500">
<path id="Clip 2" fill-rule="evenodd" clip-rule="evenodd" d="M62.0522 499.948H439.42V0H62.0522V499.948Z" fill="white"/>
</mask>
<g mask="url(#mask0_5465_23802)">
<path id="Fill 1" fill-rule="evenodd" clip-rule="evenodd" d="M162.632 428.491C160.403 426.658 159.468 423.683 160.25 420.906L186.591 327.306C186.746 326.758 186.962 326.237 187.231 325.752L175.135 306.395C174.032 304.631 173.739 302.479 174.328 300.483L176.008 294.799L159.439 293.736C143.862 292.583 138.299 290.534 134.595 288.489C118.968 279.868 114.884 255.097 114.003 247.711L113.014 239.39C112.522 236.017 113.399 232.73 115.435 230.346C117.007 228.504 119.188 227.341 121.539 227.062C85.5056 194.491 52.9281 154.035 64.3054 96.9913C76.8698 33.9948 127.825 15.0078 129.988 14.2309C130.799 13.9392 131.631 13.8003 132.451 13.8003C135.073 13.8003 137.577 15.2222 138.875 17.6458C139.781 19.3411 139.953 21.2535 139.475 22.9957C156.307 8.74045 172.392 2.50868 179.136 0.348958C179.873 0.112847 180.621 0 181.359 0C184.145 0 186.777 1.60677 187.986 4.26215C189.516 7.61979 188.286 11.5903 185.126 13.4991C169.751 22.783 156.37 35.4002 146.283 49.9384C158.548 47.0651 166.789 46.7648 169.658 46.7648C170.646 46.7648 171.154 46.796 171.154 46.796C174.747 47.02 177.665 49.8342 177.981 53.4167C178.298 56.9991 175.972 60.2769 172.473 61.1267C172.28 61.1745 152.248 66.2378 130.142 82.0929C125.963 94.8229 123.845 108.098 123.845 121.588C123.845 147.169 132.041 173.429 146.331 193.632C149.739 198.45 153.102 202.658 156.636 206.484C155.261 180.226 162.791 139.19 210.308 120.145C211.196 119.79 212.113 119.62 213.018 119.62C215.7 119.62 218.264 121.109 219.532 123.64C221.228 127.025 220.041 131.143 216.803 133.109L216.455 133.32C209.125 138.081 202.965 144.233 198.261 151.372C203.422 149.773 207.879 149.245 210.872 148.89L211.437 148.823C211.73 148.788 212.021 148.771 212.309 148.771C215.355 148.771 218.123 150.681 219.165 153.607C220.305 156.81 219.072 160.375 216.196 162.192L215.96 162.345C215.857 162.411 215.753 162.475 215.647 162.536C200.441 171.297 191.983 181.497 190.504 192.858C188.889 205.279 195.765 216.985 200.696 223.578C213.488 208.809 221.812 183.578 224.14 174.062C224.945 170.775 227.893 168.516 231.207 168.516C231.49 168.516 231.775 168.532 232.062 168.565C235.713 168.993 238.471 172.074 238.494 175.745C238.684 206.762 230.343 227.947 221.792 241.48C234.596 247.959 247.144 248.336 249.858 248.336C250.176 248.336 250.607 248.324 250.692 248.324C250.784 248.324 251.243 248.336 251.561 248.336C254.275 248.336 266.823 247.959 279.626 241.48C271.076 227.947 262.735 206.762 262.925 175.745C262.947 172.074 265.706 168.993 269.357 168.565C269.644 168.532 269.929 168.516 270.212 168.516C273.526 168.516 276.474 170.774 277.278 174.062C279.607 183.578 287.932 208.81 300.724 223.578C305.651 216.99 312.53 205.281 310.914 192.858C309.437 181.497 300.979 171.296 285.773 162.536C285.674 162.479 285.315 162.251 285.315 162.251C282.438 160.434 281.16 156.84 282.3 153.636C283.343 150.708 286.077 148.772 289.121 148.772C289.405 148.772 289.693 148.788 289.982 148.823L290.547 148.89C293.539 149.245 297.996 149.773 303.158 151.372C298.455 144.234 292.294 138.082 284.966 133.322L284.619 133.112C281.381 131.147 280.191 127.028 281.887 123.641C283.154 121.11 285.719 119.62 288.402 119.62C289.306 119.62 290.223 119.789 291.111 120.145C338.627 139.19 346.158 180.226 344.783 206.484C348.317 202.658 351.68 198.45 355.087 193.632C369.378 173.43 377.574 147.17 377.574 121.588C377.574 108.096 375.457 94.822 371.277 82.0929C349.028 66.1285 329.149 61.1762 328.946 61.1267C325.447 60.2769 323.121 56.9983 323.438 53.4167C323.755 49.8333 326.672 47.0191 330.265 46.796C330.265 46.796 330.773 46.7648 331.762 46.7648C334.63 46.7648 342.871 47.0651 355.136 49.9384C345.05 35.4002 331.669 22.783 316.292 13.4991C313.132 11.5903 311.903 7.62066 313.433 4.26215C314.642 1.60764 317.273 0 320.059 0C320.798 0 321.546 0.112847 322.283 0.348958C329.027 2.50868 345.113 8.74045 361.944 22.9957C361.466 21.2535 361.638 19.3411 362.544 17.6458C363.842 15.2222 366.346 13.8003 368.967 13.8003C369.789 13.8003 370.62 13.9392 371.432 14.2309C373.594 15.0078 424.548 33.9948 437.114 96.9913C448.492 154.035 415.914 194.491 379.881 227.062C382.23 227.341 384.411 228.503 385.984 230.346C388.019 232.73 388.897 236.016 388.405 239.39L387.416 247.71C386.535 255.099 382.448 279.87 366.821 288.49C363.121 290.534 357.557 292.583 342.051 293.731L325.41 294.799L327.091 300.483C327.681 302.479 327.387 304.631 326.284 306.395L314.188 325.752C314.457 326.237 314.673 326.758 314.827 327.306L341.17 420.906C341.95 423.683 341.016 426.658 338.786 428.491L250.71 500L162.632 428.491Z" fill="#D9C49B"/>
<path id="Fill 3" fill-rule="evenodd" clip-rule="evenodd" d="M105.904 173.069C105.904 173.069 95.2335 124.769 103.166 96.1877C101.052 98.469 98.9058 100.812 96.9237 103.375C77.5961 128.36 105.904 173.069 105.904 173.069ZM395.514 173.069C395.514 173.069 423.823 128.36 404.495 103.375C402.513 100.812 400.366 98.469 398.253 96.1877C406.185 124.769 395.514 173.069 395.514 173.069ZM71.4465 98.4125C83.3513 38.7224 132.453 21.074 132.453 21.074C114.474 34.3448 96.1242 59.2893 88.5416 94.3188C95.9235 85.166 102.768 78.2988 110.811 72.8275C130.719 29.9872 164.692 12.6148 181.359 7.27539C159.738 20.3309 141.657 39.7624 130.666 62.146C155.667 53.2294 170.754 54.0592 170.754 54.0592C170.754 54.0592 148.406 59.4855 123.983 77.5783C119.185 91.3648 116.564 106.169 116.564 121.588C116.564 148.712 125.31 176.518 140.385 197.83C148.869 209.823 157.061 218.115 167.259 225.666C163.886 217.19 151.049 151.733 213.02 126.895L212.58 127.163C197.944 136.636 187.159 151.388 182.777 168.745C194.093 157.923 206.032 156.797 212.306 156.044C212.21 156.105 212.107 156.173 212.009 156.235C154.481 189.378 200.225 234.27 200.225 234.27C218.364 219.084 228.937 185.086 231.213 175.789C231.433 211.713 219.473 233.225 211.345 243.737C229.888 256.448 250.684 255.597 250.691 255.597H250.727C250.735 255.597 271.532 256.448 290.075 243.737C281.946 233.225 269.985 211.713 270.206 175.789C272.482 185.086 283.055 219.084 301.194 234.27C301.194 234.27 346.938 189.378 289.409 156.235C289.312 156.173 289.208 156.105 289.113 156.044C295.387 156.797 307.326 157.923 318.643 168.745C314.261 151.388 303.475 136.636 288.838 127.163L288.399 126.895C350.37 151.733 337.532 217.19 334.161 225.666C344.358 218.115 352.551 209.823 361.034 197.83C376.108 176.518 384.855 148.712 384.855 121.588C384.855 106.169 382.235 91.3648 377.436 77.5783C353.012 59.4855 330.665 54.0592 330.665 54.0592C330.665 54.0592 345.751 53.2294 370.752 62.146C359.762 39.7624 341.681 20.3309 320.059 7.27539C336.728 12.6148 370.699 29.9872 390.607 72.8275C398.65 78.2988 405.495 85.166 412.877 94.3188C405.294 59.2893 386.944 34.3448 368.966 21.074C368.966 21.074 418.067 38.7224 429.972 98.4125C443.829 167.885 388.287 211.269 343.5 248.436L377.693 234.506C380.008 233.524 381.613 235.754 381.188 238.418L380.186 246.853C379.633 251.492 376.22 274.998 363.302 282.124C360.508 283.667 355.692 285.429 341.514 286.478L315.846 288.125L320.109 302.544L294.911 342.863L307.818 329.275L334.161 422.875L261.878 482.282L284.433 380.081L250.71 421.059L216.986 380.081L239.541 482.282L167.259 422.875L193.601 329.275L206.509 342.863L181.311 302.544L185.573 288.125L159.905 286.478C145.727 285.429 140.912 283.667 138.118 282.124C125.198 274.998 121.786 251.492 121.233 246.853L120.23 238.418C119.805 235.754 121.41 233.524 123.727 234.506L157.92 248.436C113.132 211.269 57.5891 167.885 71.4465 98.4125Z" fill="#2A4832"/>
</g>
</g>
<path id="Fill 5" fill-rule="evenodd" clip-rule="evenodd" d="M132.457 246.696L132.453 246.695C132.453 246.695 134.95 267.655 143.75 272.51C149.692 275.787 164.209 275.473 176.889 276.446C162.847 271.004 142.166 256.159 132.457 246.696ZM210.227 291.001C217.899 296.918 224.403 293.622 227.894 290.203C229.031 289.089 228.685 287.184 227.238 286.521C223.57 284.839 216.66 281.671 209.779 278.516C208.402 277.885 206.817 278.741 206.572 280.234C206.084 283.206 206.155 287.86 210.227 291.001ZM224.165 331.668L220.033 349.868L230.2 363.572H240.992L230.996 348.891L232.574 339.822C237.111 344.659 243.554 347.69 250.71 347.708C257.866 347.69 264.307 344.659 268.845 339.822L270.423 348.891L260.427 363.572H271.219L281.386 349.868L277.254 331.668C267.548 325.473 265.3 316.681 265.3 316.681L258.537 294.539L250.71 298.333L242.881 294.539L236.12 316.681C236.12 316.681 233.871 325.473 224.165 331.668ZM273.524 290.203C277.016 293.622 283.519 296.918 291.191 291.001C295.263 287.86 295.335 283.206 294.847 280.234C294.602 278.741 293.016 277.885 291.641 278.516C284.758 281.671 277.848 284.839 274.181 286.521C272.735 287.184 272.388 289.089 273.524 290.203ZM265.364 372.019H236.055L243.094 381.561H258.325L265.364 372.019ZM324.531 276.446C337.209 275.473 351.727 275.787 357.67 272.51C366.47 267.655 368.966 246.695 368.966 246.695L368.962 246.696C359.253 256.159 338.572 271.004 324.531 276.446Z" fill="#FFFFFE"/>
</g>
</g>
</svg>
