<svg width="500" height="500" viewBox="0 0 500 500" fill="none" xmlns="http://www.w3.org/2000/svg">
<g id="Style=Alternate, Color=Dark">
<g id="Page 1">
<path id="Fill 1" fill-rule="evenodd" clip-rule="evenodd" d="M245.39 18.0137L226.13 45.9605C226.13 45.9605 240.676 56.0562 252.658 69.7477C231.706 65.4711 208.7 61.5988 208.7 61.5988L172.233 81.4073L189.322 53.0562C189.322 53.0562 177.819 43.2371 164.571 34.6839C179.107 35.1201 206.752 37.4073 206.752 37.4073L245.39 18.0137Z" fill="#7AC042"/>
<g id="Group 5">
<mask id="mask0_35_4481" style="mask-type:luminance" maskUnits="userSpaceOnUse" x="43" y="10" width="406" height="489">
<path id="Clip 4" fill-rule="evenodd" clip-rule="evenodd" d="M43 498.618V10.6392H448.04V498.618H43Z" fill="white"/>
</mask>
<g mask="url(#mask0_35_4481)">
<path id="Fill 3" fill-rule="evenodd" clip-rule="evenodd" d="M442.79 141.586C441.29 139.277 439.417 138.48 439.396 138.458C435.948 122.756 421.7 114.522 421.7 114.522C421.7 114.522 438.14 40.8306 396.491 23.3626C393.895 17.4477 390.266 13.2987 383.158 10.6392C375.156 12.4158 362.003 21.7987 354.129 36.6924C333.602 58.203 312.672 79.3094 284.271 115.416C284.271 115.416 253.965 115.714 224.745 143.82C196.812 170.682 141.862 247.15 77.888 287.607C77.888 287.607 96.3289 304.043 114.663 310.512C114.663 310.512 85.0814 352.905 80.8888 368.043L97.5846 368.873C97.5846 368.873 70.0988 421.533 42.9961 498.618C42.9961 498.618 110.535 453.618 163.995 439.554C163.995 439.554 159.366 448.895 157.589 466.309C229.129 422.82 290.591 408.618 341.562 414.182C340.413 405.863 340.072 399.799 340.072 399.799C355.438 406.075 376.816 432.958 387.67 466.639C430.212 411.224 413.846 364.948 413.048 363.012C412.953 362.533 412.889 362.192 412.889 362.192C415.379 363.203 421.657 367.703 421.657 367.703C420.465 315.597 398.555 297.235 399.141 268.82C400.013 227.171 409.25 207.671 428.595 180.639C438.842 169.512 443.684 179.831 443.684 179.831C451.856 157.714 446.77 146.458 442.79 141.586Z" fill="#002A5B"/>
</g>
</g>
<path id="Fill 6" fill-rule="evenodd" clip-rule="evenodd" d="M276.781 136.977C276.781 136.977 273.281 146.657 272.823 155.647C272.823 155.647 250.881 158.87 240.336 166.062C240.336 166.062 262.225 144.243 276.781 136.977Z" fill="#7AC042"/>
<path id="Fill 8" fill-rule="evenodd" clip-rule="evenodd" d="M424.545 136.005C426.971 135.42 428.801 135.324 430.153 135.42C429.759 134.293 428.993 132.612 427.641 130.973C425.705 128.612 422.885 126.846 422.885 126.846C424.704 129.654 424.758 133.527 424.545 136.005Z" fill="#FEFEFE"/>
<path id="Fill 10" fill-rule="evenodd" clip-rule="evenodd" d="M404.757 145.985C407.588 144.028 410.163 142.432 412.514 141.113C412.089 140.091 411.418 138.634 410.45 136.857C408.556 133.506 403.65 130.56 403.65 130.56C405.683 136.549 405.247 142.634 404.757 145.985Z" fill="#FEFEFE"/>
<path id="Fill 12" fill-rule="evenodd" clip-rule="evenodd" d="M169.487 293.991C150.844 301.619 106.705 291.225 106.705 291.225C151.302 288.661 194.898 256.725 194.898 256.725C194.866 256.789 194.813 256.895 194.802 256.959C181.724 277.002 163.698 288.597 163.698 288.597C165.688 291.119 167.699 292.821 169.487 293.991Z" fill="#999EA0"/>
<path id="Fill 14" fill-rule="evenodd" clip-rule="evenodd" d="M391.742 28.0997C391.742 28.0997 380.793 19.5146 368.343 32.8444C381.665 8.56777 389.38 22.4827 391.742 28.0997Z" fill="#7AC042"/>
<path id="Fill 16" fill-rule="evenodd" clip-rule="evenodd" d="M435.11 145.763C435.11 145.763 433.971 144.986 433.726 144.848C426.778 141.156 414.349 151.944 406.219 156.401C398.111 160.869 386.278 170.401 380.511 157.284C374.733 144.167 388.013 123.656 392.61 110.752C402.761 82.2201 403.134 65.401 400.984 56.3265C410.369 66.9222 413.317 87.2201 413.317 87.2201C413.317 87.2201 416.807 49.0925 398.164 39.0605C398.59 40.4116 398.1 45.1563 397.728 48.901C397.728 48.901 397.696 48.8478 397.653 48.8159C388.97 50.401 369.827 48.2308 363.613 44.9754C340.064 70.2308 314.377 105.369 295.063 137.635C286.678 154.688 278.474 174.72 276.42 190.997C276.42 190.997 273.749 183.624 273.111 173.816C262.427 177.944 226.078 195.795 218.31 250.561C218.31 250.561 241.401 226.741 266.939 217.454C266.939 217.454 250.775 259.795 281.634 334.858C281.634 334.858 294.138 288.837 320.283 277.22C336.106 355.816 382.501 357.103 396.047 410.571C396.047 410.571 410.22 382.88 393.163 335.795C393.163 335.795 399.047 337.433 404.027 343.305C404.027 343.305 403.261 329.529 390.386 299.827C382 283.912 379.361 262.454 379.361 262.454C371.828 269.284 369.891 292.348 369.891 292.348C346.864 229.848 412.242 167.933 424.171 158.795C430.013 154.337 433.599 154.263 435.759 155.327C438.015 150.688 437.802 147.699 435.11 145.763Z" fill="#999EA0"/>
</g>
</g>
</svg>
