<svg width="500" height="500" viewBox="0 0 500 500" fill="none" xmlns="http://www.w3.org/2000/svg">
<g id="Style=Alternate, Color=Light">
<g id="NOPelicans_2nd_A_pms">
<g id="Group 6">
<mask id="mask0_35_9872" style="mask-type:luminance" maskUnits="userSpaceOnUse" x="34" y="0" width="432" height="500">
<path id="Clip 2" fill-rule="evenodd" clip-rule="evenodd" d="M465.755 499.949H34.0503V0.297852H249.902H465.755V499.949Z" fill="white"/>
</mask>
<g mask="url(#mask0_35_9872)">
<path id="Fill 1" fill-rule="evenodd" clip-rule="evenodd" d="M250.022 401.891C193.368 401.891 147.262 355.795 147.262 299.135C147.262 242.505 193.368 196.433 250.022 196.433C306.677 196.433 352.784 242.505 352.784 299.135C352.784 355.795 306.677 401.891 250.022 401.891Z" fill="#AB9157"/>
<path id="Fill 3" fill-rule="evenodd" clip-rule="evenodd" d="M217.491 452.8C190.583 445.525 177 414.58 177 414.58C177.622 414.282 204.391 398.555 213.02 378.046H131.468V314.032L149.531 313.917H161.16C157.679 298.514 150.092 282.037 133.669 281.707C99.5215 281.025 120.223 335.118 120.223 335.118C120.223 335.118 33.8229 339.349 33.9998 251.4C34.0773 216.981 55.86 179.619 104.537 173.761C108.128 173.324 111.7 173.108 115.161 173.108C141.095 173.108 161.359 185.952 175.221 203.119C144.499 102.509 249.776 0.297852 249.776 0.297852C249.776 0.297852 360.953 107.409 322.654 203.119C336.621 184.985 357.853 173.108 384.6 173.108C388.06 173.108 391.641 173.324 395.223 173.761C443.9 179.619 465.63 216.981 465.754 251.414C466.045 334.005 380.543 335.784 380.543 335.784C382.046 330.119 397.908 285.035 366.221 281.707C349.823 279.989 342.151 298.522 338.669 313.917H356.673V314.032H368.247V378.046H286.228C293.239 399.452 322.3 414.357 322.3 414.357C322.3 414.357 311.508 443.959 281.393 453.07C276.885 474.906 249.524 500 249.524 500C249.524 500 221.672 474.016 217.491 452.8Z" fill="#AB9157"/>
<path id="Fill 4" fill-rule="evenodd" clip-rule="evenodd" d="M249.852 261.366C242.468 238.204 231.705 224.196 222.877 212.68C211.623 198.043 204.851 189.202 204.851 164.79C204.851 123.909 232.312 79.1322 250.13 54.4209C267.91 78.5488 295.223 122.26 295.223 162.958C295.223 187.5 287.945 197.184 276.929 211.828C268.064 223.606 257.279 237.943 249.852 261.366Z" fill="#002344"/>
<path id="Fill 5" fill-rule="evenodd" clip-rule="evenodd" d="M393.85 185.223C315.09 175.7 302.112 287.68 299.994 325.572H264.196C264.612 218.691 318.32 234.546 318.32 162.965C318.32 91.2845 249.891 17.4116 249.891 17.4116C249.891 17.4116 181.748 93.117 181.748 164.79C181.748 236.379 235.217 218.691 235.51 325.572H199.765C197.709 287.68 184.654 175.7 105.926 185.223C20.8686 195.451 30.1032 313.25 105.926 322.535C105.926 322.535 91.5659 270.168 133.669 270.168C164.167 270.168 172.565 306.035 174.79 325.572H143.005V366.507H230.224C218.734 405.932 192.517 417.854 192.517 417.854C192.517 417.854 203.616 439.966 227.777 443.271C230.011 453.276 235.556 468.289 249.501 481.093C263.344 468.35 268.892 453.398 271.132 443.401C295.317 440.013 307.29 417.854 307.29 417.854C307.29 417.854 280.972 405.932 269.483 366.507H356.711V325.572H325.031C327.264 306.035 335.517 270.168 366.221 270.168C408.11 270.168 393.85 322.535 393.85 322.535C469.664 313.25 478.878 195.451 393.85 185.223Z" fill="#002344"/>
</g>
</g>
<path id="Fill 7" fill-rule="evenodd" clip-rule="evenodd" d="M343.502 338.768H250.935L250.996 325.517C251.235 262.432 269.865 237.667 284.824 217.779C296.168 202.712 305.119 190.821 305.119 162.965C305.119 113.12 268.194 60.7466 250.045 38.021C231.975 61.2213 194.941 114.885 194.941 164.79C194.941 192.561 203.355 203.532 215.022 218.699C229.949 238.151 248.535 262.347 248.695 325.533L248.734 338.768H156.214V347.583H343.502V338.768Z" fill="#D02139"/>
<path id="Fill 8" fill-rule="evenodd" clip-rule="evenodd" d="M256.81 370.21L254.425 362.006L245.281 362.022L242.89 370.21C235.248 396.463 221.533 412.242 211.272 420.92C215.512 425.053 221.718 429.263 229.948 430.275L233.907 430.766L236.929 433.364C238.194 434.446 241.745 437.49 249.324 453.415C258.352 436.684 262.133 433.824 263.469 432.828L266.292 430.704L269.788 430.275C278.058 429.263 284.271 425.061 288.52 420.944C278.21 412.264 264.466 396.478 256.81 370.21Z" fill="#D02139"/>
<path id="Fill 9" fill-rule="evenodd" clip-rule="evenodd" d="M216.856 428.167C216.856 428.167 235.242 416.144 235.562 388.097L240.91 384.763C240.91 384.763 243.579 425.499 237.573 434.178C237.573 434.178 228.882 436.179 216.856 428.167Z" fill="#002344"/>
<path id="Fill 10" fill-rule="evenodd" clip-rule="evenodd" d="M283.044 428.167C283.044 428.167 264.665 416.144 264.328 388.097L258.989 384.763C258.989 384.763 256.327 425.499 262.333 434.178C262.333 434.178 271.017 436.179 283.044 428.167Z" fill="#002344"/>
<path id="Fill 11" fill-rule="evenodd" clip-rule="evenodd" d="M250.022 207.972C199.72 207.972 158.812 248.876 158.812 299.135C158.812 349.439 199.72 390.352 250.022 390.352C300.311 390.352 341.231 349.439 341.231 299.135C341.231 248.876 300.311 207.972 250.022 207.972Z" fill="#002344"/>
<path id="Fill 12" fill-rule="evenodd" clip-rule="evenodd" d="M334.642 299.15C334.642 345.882 296.758 383.773 250.022 383.773C203.264 383.773 165.387 345.882 165.387 299.15C165.387 252.427 203.264 214.542 250.022 214.542C296.758 214.542 334.642 252.427 334.642 299.15Z" fill="#FFFFFE"/>
<path id="Fill 13" fill-rule="evenodd" clip-rule="evenodd" d="M317.14 316.655C317.14 353.725 287.093 383.772 250.022 383.772C212.944 383.772 182.898 353.725 182.898 316.655C182.898 279.613 212.944 249.559 250.022 249.559C287.093 249.559 317.14 279.613 317.14 316.655Z" fill="#AB9157"/>
<path id="Fill 14" fill-rule="evenodd" clip-rule="evenodd" d="M294.542 363.172C291.175 360.526 286.319 355.804 285.459 349.984C285.376 349.463 285.33 348.949 285.282 348.427C302.481 341.213 317.008 328.807 326.826 312.851C323.138 333.622 311.21 351.555 294.542 363.172ZM173.188 312.798C183.021 328.769 197.541 341.205 214.769 348.427C214.708 348.949 214.669 349.463 214.577 349.984C213.711 355.826 208.887 360.541 205.496 363.186C188.805 351.555 176.87 333.576 173.188 312.798ZM191.175 247.987C187.661 267.24 195.663 285.418 203.002 302.01C208.103 313.564 212.974 324.689 214.538 335.929C194.412 325.878 179.079 307.454 173.387 284.375C176.034 270.613 182.322 258.138 191.175 247.987ZM273.733 340.491C267.949 342.363 261.897 343.566 255.66 344.019V221.367C268.156 222.248 279.861 226.089 290.055 232.208C305.557 254.573 296.834 274.523 286.718 297.455C280.658 311.218 274.43 325.372 273.733 340.491ZM255.66 355.305C262.103 354.913 268.386 353.88 274.43 352.222C275.688 359.492 280.159 365.25 284.355 369.213C275.558 373.538 265.892 376.236 255.66 376.972V355.305ZM225.622 352.222C231.645 353.88 237.935 354.913 244.376 355.305V376.972C234.16 376.236 224.457 373.538 215.698 369.22C219.886 365.25 224.357 359.492 225.622 352.222ZM209.983 232.208C220.17 226.089 231.874 222.248 244.376 221.367V344.034C238.141 343.597 232.104 342.417 226.313 340.63C225.66 325.465 219.426 311.273 213.311 297.455C203.211 274.53 194.482 254.573 209.983 232.208ZM326.642 284.46C321.027 307.048 305.557 325.472 285.522 335.646C287.124 324.506 291.987 313.487 297.05 302.01C304.368 285.395 312.36 267.24 308.862 247.987C317.737 258.176 323.996 270.659 326.642 284.46ZM250.022 207.972C199.72 207.972 158.812 248.876 158.812 299.135C158.812 349.439 199.72 390.352 250.022 390.352C300.311 390.352 341.231 349.439 341.231 299.135C341.231 248.876 300.311 207.972 250.022 207.972Z" fill="#002344"/>
<path id="Fill 15" fill-rule="evenodd" clip-rule="evenodd" d="M284.294 94.4888L250.131 54.4131L217.438 93.9636C209.117 101.562 191.197 121.907 186.55 159.653C182.018 196.317 205.372 232.115 205.372 232.115L213.789 223.129H253.298L286.219 226.533L293.2 227.938C293.2 227.938 313.411 196.148 313.411 158.948C313.411 122.03 294.304 102.306 284.294 94.4888Z" fill="#002344"/>
<path id="Fill 16" fill-rule="evenodd" clip-rule="evenodd" d="M303.931 162.997C303.931 143.46 295.984 127.535 287.408 118.073C287.408 118.073 287.147 123.632 277.797 117.407C269.735 111.879 260.255 108.658 250.076 108.658C239.836 108.658 230.356 111.901 222.287 117.445C213.265 123.579 212.828 118.073 212.828 118.073C204.283 127.535 196.321 143.46 196.321 162.997C196.321 179.204 200.287 187.21 201.675 189.479C209.729 210.141 228.353 224.647 250.076 224.647C271.545 224.647 289.984 210.449 298.184 190.138C298.668 189.471 303.931 181.689 303.931 162.997Z" fill="#FFFFFE"/>
<path id="Fill 17" fill-rule="evenodd" clip-rule="evenodd" d="M270.371 207.099C270.295 207.006 270.226 206.883 270.182 206.784C270.182 206.784 264.85 196.777 273.609 189.854C273.609 189.854 293.468 194.002 293.912 167.711C293.912 167.711 293.468 164.929 296.229 159.401C296.229 159.401 291.128 154.769 280.082 163.088C268.967 171.376 263 194.922 256.988 189.394C251.05 183.913 253.207 153.244 250.16 152.101H250.045C246.969 153.244 249.141 183.913 243.219 189.394C237.212 194.922 231.191 171.376 220.115 163.088C209.047 154.769 203.97 159.401 203.97 159.401C206.754 164.929 206.263 167.711 206.263 167.711C206.754 194.002 226.604 189.854 226.604 189.854C235.364 196.777 230.063 206.829 230.063 206.829C230.011 206.921 229.948 207.036 229.888 207.128C206.186 181.689 192.418 185.147 199.221 213.638C205.895 241.609 231.514 361.769 235.626 389.639C235.026 414.679 232.15 423.627 231.376 425.59L228.812 430.728L231.66 436.439C236.154 442.979 239.292 450.348 240.389 453.153L250.183 477.935L259.818 453.209C260.992 450.348 264.121 442.979 268.624 436.439L271.591 431.011L268.885 425.59C268.14 423.711 265.308 415.094 264.658 390.919C268.048 365.932 294.242 242.107 301.038 213.638C307.82 185.163 294.059 181.689 270.371 207.099Z" fill="#002344"/>
<path id="Fill 18" fill-rule="evenodd" clip-rule="evenodd" d="M234.053 332.372C225.561 287.65 218.857 254.573 213.443 230.59C209.323 212.257 220.323 219.587 226.237 231.057L234.053 332.372Z" fill="#D02139"/>
<path id="Fill 19" fill-rule="evenodd" clip-rule="evenodd" d="M266.199 332.372C274.705 287.65 281.394 254.573 286.825 230.59C290.952 212.257 279.929 219.587 273.978 231.057L266.199 332.372Z" fill="#D02139"/>
<path id="Fill 20" fill-rule="evenodd" clip-rule="evenodd" d="M220.621 180.937C218.926 180.469 217.952 178.729 218.405 177.065C218.605 176.399 219.01 175.869 219.532 175.485C218.405 174.236 217.109 172.963 215.537 171.852C215.537 171.852 212.752 184.763 224.295 183.391C224.295 183.391 223.927 182.24 223.038 180.591C222.325 180.999 221.48 181.167 220.621 180.937Z" fill="#D02139"/>
<path id="Fill 21" fill-rule="evenodd" clip-rule="evenodd" d="M284.709 171.852C283.142 172.955 281.846 174.236 280.711 175.485C281.225 175.877 281.617 176.399 281.846 177.057C282.307 178.721 281.287 180.469 279.614 180.937C278.756 181.167 277.897 181.013 277.182 180.607C276.332 182.24 275.955 183.391 275.955 183.391C287.5 184.763 284.709 171.852 284.709 171.852Z" fill="#D02139"/>
<path id="Fill 22" fill-rule="evenodd" clip-rule="evenodd" d="M255.53 348.941C259.197 279.874 264.727 230.965 264.727 224.863C264.727 222.67 264.467 219.879 263.561 216.812L259.527 229.946L258.298 206.721C256.282 204.115 253.535 201.531 250.053 199.008H249.853C246.365 201.508 243.978 204.115 241.945 206.721L240.734 229.946L236.668 216.797C235.808 219.879 235.526 222.67 235.526 224.863C235.526 230.965 241.017 279.874 244.684 348.941C248.334 418.007 239.799 430.842 239.799 430.842C244.76 438.042 250.131 450.806 250.131 450.806C250.131 450.806 255.485 438.042 260.455 430.842C260.455 430.842 251.902 418.007 255.53 348.941Z" fill="#D02139"/>
<path id="Fill 23" fill-rule="evenodd" clip-rule="evenodd" d="M441.008 251.438C440.993 228.589 428.176 202.643 392.27 198.311C389.647 197.997 387.07 197.836 384.6 197.836C353.627 197.836 336.038 224.38 326.027 254.105C331.307 243.601 339.413 232.546 352.23 221.136C385.997 191.104 431.075 213.814 431.075 253.668C431.075 279.154 421.532 294.114 414.638 301.611C432.571 290.471 441.032 269.969 441.008 251.438Z" fill="#D02139"/>
<path id="Fill 24" fill-rule="evenodd" clip-rule="evenodd" d="M147.523 221.136C160.584 232.76 168.785 244.023 174.047 254.704C164.091 224.732 146.441 197.836 115.153 197.836C112.691 197.836 110.114 197.997 107.49 198.311C71.5856 202.635 58.7595 228.581 58.7452 251.422C58.7207 269.969 67.1906 290.486 85.1309 301.62C78.2433 294.121 68.6862 279.169 68.6862 253.668C68.6862 213.814 113.757 191.104 147.523 221.136Z" fill="#D02139"/>
</g>
</g>
</svg>
