<svg width="500" height="500" viewBox="0 0 500 500" fill="none" xmlns="http://www.w3.org/2000/svg">
<g id="Style=Alternate, Color=Light">
<g id="Page 1">
<g id="Group 3">
<path id="Fill 1" fill-rule="evenodd" clip-rule="evenodd" d="M92.3097 334.786L92.4516 334.847L92.5605 334.876C70.6274 350.277 49.9827 366.523 30.8105 383.445C26.3499 387.399 24.8888 391.438 27.5219 393.967C29.7439 396.1 33.9494 395.687 37.8139 393.265C82.3822 368.617 129.007 344.878 177.226 322.322C198.275 342.623 221.839 360.223 249.727 376.938L250.743 377.547L251.759 376.938C315.8 338.551 358.445 295.187 387.563 235.344C422.949 222.6 458.163 210.861 493.032 200.171C496.817 199.326 499.282 196.454 498.948 193.304C498.591 189.936 495.31 187.913 490.824 188.32C461.866 190.62 432.142 194.907 402.028 201.152C403.488 197.182 404.903 193.118 406.274 188.953C435.086 183.749 463.758 179.132 492.178 175.112C500.459 174.237 500.276 163.659 491.776 163.07C466.713 161.124 440.828 160.555 414.415 161.388C415.26 158.162 416.103 154.83 416.961 151.336L417.332 149.822L415.946 149.108C355.223 117.851 309.295 104.843 250.743 104.831C192.178 104.831 146.261 117.835 85.5334 149.101L84.1438 149.816L88.8619 168.839C94.174 190.233 101.344 210.476 110.338 229.56C73.26 245.516 38.5472 263.766 6.87601 283.907C1.92823 286.825 -0.279264 290.565 1.72449 293.572C3.49621 296.231 7.78805 296.569 12.2364 294.7C42.2643 283.793 73.1889 273.327 104.87 263.351C99.3089 275.141 93.8419 287.075 88.4717 299.141C88.547 298.971 87.0471 302.341 86.6112 303.345C85.0259 306.997 83.9502 309.856 83.1869 312.682C80.4049 322.981 82.7613 330.631 92.3097 334.786ZM97.6474 333.737L97.7835 331.765C96.463 331.674 95.1382 331.453 93.7454 331.1C86.3821 327.835 84.6945 322.255 87.0022 313.712C87.7055 311.109 88.721 308.409 90.2364 304.919C90.6637 303.934 92.1556 300.582 92.0845 300.743C98.0606 287.315 104.159 274.048 110.374 260.96L112.313 256.877L107.999 258.227C74.7387 268.631 42.2989 279.575 10.84 291.003L10.7438 291.04C9.14057 291.72 7.66558 292 6.50845 291.912C5.6679 291.847 5.16504 291.609 5.01326 291.381C4.92636 291.25 4.93887 290.99 5.26013 290.446C5.81883 289.499 7.05054 288.391 8.94054 287.276C41.0218 266.876 76.1862 248.449 113.781 232.384L115.678 231.573L114.786 229.712C105.494 210.328 98.1183 189.719 92.6976 167.888L88.7325 151.901C148.247 121.421 193.313 108.783 250.743 108.783C308.161 108.795 353.237 121.436 412.749 151.909C411.797 155.755 410.86 159.406 409.917 162.942L409.229 165.52L411.895 165.426C439.083 164.474 465.716 165.01 491.486 167.012C495.183 167.268 495.244 170.815 491.694 171.19C462.773 175.28 433.663 179.975 404.411 185.274L403.251 185.484L402.885 186.606C401.029 192.297 399.095 197.796 397.073 203.122L395.788 206.508L399.331 205.756C430.482 199.145 461.225 194.635 491.159 192.258C493.713 192.026 494.917 192.769 495.018 193.721C495.124 194.722 494.103 195.901 492.118 196.325L491.951 196.368C456.747 207.16 421.193 219.018 385.466 231.898L384.708 232.172L384.357 232.897C355.743 292.058 313.851 334.922 250.743 372.938C223.115 356.294 199.811 338.769 178.999 318.538L178.022 317.587L176.786 318.165C128.031 340.939 80.8944 364.923 35.8524 389.834L35.7533 389.892C34.3863 390.756 33.0315 391.254 31.8923 391.369C31.036 391.455 30.4636 391.312 30.2591 391.116C30.2292 391.087 30.2178 391.066 30.2084 391.006C30.184 390.851 30.2145 390.606 30.3355 390.272C30.7049 389.25 31.7279 387.913 33.429 386.405C53.6312 368.574 75.4864 351.492 98.7726 335.361L97.6474 333.737Z" fill="white"/>
</g>
<path id="Fill 4" fill-rule="evenodd" clip-rule="evenodd" d="M34.832 387.994C63.1281 363.001 95.0145 339.229 129.95 317.344C136.523 314.008 143.103 310.714 149.702 307.459C152.429 306.106 157.757 303.521 164.457 300.307C168.952 305.356 173.623 310.272 178.454 315.053C128.275 338.438 80.2534 362.867 34.832 387.994ZM392.382 209.422C426.191 201.901 459.338 196.909 491.318 194.354C455.873 205.216 419.752 217.271 383.162 230.49C386.432 223.679 389.487 216.657 392.382 209.422Z" fill="#007CC2"/>
<path id="Fill 6" fill-rule="evenodd" clip-rule="evenodd" d="M10.1211 289.016C42.9463 268.162 79.3158 249.157 118.573 232.656C119.872 235.291 121.24 237.9 122.6 240.478C120.489 244.794 118.392 249.103 116.308 253.436C79.8114 264.694 44.3734 276.587 10.1211 289.016ZM406.404 167.741C435.625 166.505 464.034 166.988 491.318 169.11C461.931 173.272 431.994 178.107 401.627 183.632C403.296 178.442 404.877 173.138 406.404 167.741Z" fill="#EF5133"/>
<path id="Fill 8" fill-rule="evenodd" clip-rule="evenodd" d="M250.736 121.031C306.075 121.031 349.479 133.975 398.466 158.379C374.498 248.675 330.625 309.334 250.75 358.595C220.74 340.058 195.225 319.366 173.904 295.793C183.385 291.293 194.079 286.217 203.472 281.784C207.278 282.131 210.917 282.319 214.307 282.4C214.099 287.61 212.464 291.427 209.838 294.159C211.359 295.9 212.914 297.655 214.474 299.369C218.609 295.673 221.276 290.208 221.49 282.427C231.206 282.266 240.586 281.274 249.296 279.426C248.814 293.65 246.823 304.137 242.77 308.276C242.622 308.41 242.548 308.517 242.488 308.651C241.471 309.722 240.565 310.606 239.782 311.303C243.694 310.579 247.547 309.668 251.347 308.611C256.231 298.499 256.291 280.792 256.371 277.726C265.438 275.448 273.511 273.145 280.768 270.667C281.049 278.984 284.372 286.927 290.724 289.846C293.585 287.837 296.366 285.695 299.047 283.471C297.438 283.712 287.374 284.409 287.528 268.256C308.795 260.24 322.631 250.59 334.812 236.168C338.028 228.905 340.621 221.291 342.465 213.409C327.891 236.376 314.47 249.793 288.258 260.314C289.008 255.679 290.363 250.131 292.513 243.501C300.165 240.304 308.138 236.483 312.942 234.501L324.4 222.47C327.288 211.353 330.148 200.234 333.01 189.113L324.045 191.906L334.585 180.84C336.788 172.134 338.973 163.421 341.138 154.709C335.864 155.479 330.571 156.269 325.297 157.086C326.175 152.741 326.805 148.428 327.14 144.118C324.601 143.475 322.042 142.863 319.481 142.293C318.939 147.129 318.001 152.492 316.568 158.469L315.836 158.583C310.878 159.413 305.813 161.04 301.405 164.754L302.811 160.475C294.329 162.005 285.86 163.566 277.391 165.199L268.968 174.059L269.244 173.343L271.977 166.255C263.601 167.969 255.246 169.737 246.884 171.558C245.135 160.271 243.393 150.068 241.865 141.815C239.5 142.099 237.134 142.414 234.777 142.762C236.297 151.112 238.093 161.559 239.862 173.112L233.939 174.441L226.408 182.366C221.128 176.792 210.428 180.308 203.68 182.005C196.364 183.863 189.053 185.765 181.764 187.743C179.579 188.336 177.415 188.996 175.284 189.726C169.81 181.837 164.671 173.715 160.43 164.955L159.666 163.341C157.448 164.238 155.251 165.169 153.073 166.13L154.004 168.066C158.138 176.63 163.117 184.63 168.484 192.391C160.61 195.894 153.341 200.746 147.042 207.687C147.042 207.687 136.798 218.408 135.605 219.721C132.938 222.775 130.647 226.023 128.63 229.334C117.876 207.708 109.353 184.181 102.961 158.395C151.961 133.986 195.372 121.024 250.736 121.031ZM256.157 257.715C261.243 255.472 266.334 253.258 271.4 251.032L273.792 248.554C274.798 248.715 275.944 248.752 277.243 248.621C279.213 248.292 281.632 247.613 284.272 246.702C282.557 252.937 281.525 258.332 281.049 263.019C273.812 265.577 265.691 267.988 256.445 270.319C256.433 266.287 256.332 262.082 256.157 257.715ZM220.907 273.587L225.684 271.376L237.946 261.519L240.68 253.979C242.448 257.568 243.414 258.974 245.175 262.591L249.203 260.809C249.342 264.693 249.409 268.47 249.409 272.073C240.552 274.096 230.991 275.18 221.121 275.341L220.907 273.587Z" fill="#FEFEFE"/>
<path id="Fill 10" fill-rule="evenodd" clip-rule="evenodd" d="M280.554 139.514C292.251 139.514 303.783 140.127 315.174 141.356C323.823 143.17 332.394 145.36 340.903 147.922C344.139 159.273 345.887 171.256 345.887 183.656C345.887 193.891 344.708 203.85 342.464 213.409C327.891 236.376 314.47 249.792 288.258 260.313C289.009 255.679 290.363 250.131 292.513 243.501C300.165 240.304 308.138 236.483 312.942 234.501L324.4 222.47C327.287 211.353 330.148 200.234 333.01 189.113L324.045 191.906L334.584 180.84C336.789 172.134 338.973 163.421 341.138 154.709C335.864 155.479 330.571 156.269 325.298 157.086C326.176 152.741 326.806 148.428 327.141 144.118C324.6 143.475 322.042 142.862 319.482 142.293C318.939 147.128 318.002 152.492 316.567 158.469L315.837 158.583C310.878 159.413 305.813 161.04 301.405 164.754L302.811 160.474C294.329 162.005 285.86 163.565 277.391 165.199L268.968 174.059L269.243 173.343L271.977 166.254C263.601 167.968 255.246 169.737 246.884 171.558C245.135 160.27 243.393 150.068 241.865 141.815C254.556 140.284 267.441 139.514 280.554 139.514ZM334.812 236.168C326.651 254.594 314.33 270.74 299.046 283.47C297.438 283.712 287.374 284.409 287.529 268.256C308.795 260.24 322.632 250.59 334.812 236.168ZM290.724 289.846C278.892 298.177 265.611 304.579 251.346 308.611C256.231 298.498 256.291 280.792 256.372 277.725C265.437 275.448 273.511 273.145 280.768 270.666C281.048 278.984 284.372 286.927 290.724 289.846ZM239.782 311.302C235.795 312.04 231.735 312.588 227.633 312.963C223.098 308.557 218.709 304.016 214.475 299.369C218.609 295.672 221.275 290.208 221.49 282.427C231.205 282.265 240.586 281.274 249.296 279.426C248.814 293.65 246.824 304.137 242.77 308.276C242.623 308.41 242.549 308.516 242.489 308.65C241.47 309.722 240.565 310.606 239.782 311.302ZM209.838 294.158C206.696 290.543 203.627 286.873 200.639 283.123L203.473 281.784C207.279 282.131 210.917 282.319 214.308 282.399C214.099 287.609 212.464 291.427 209.838 294.158ZM153.575 201.479C149.609 191.44 146.111 181.147 143.109 170.63C146.406 169.067 149.729 167.573 153.073 166.13L154.004 168.066C158.138 176.63 163.116 184.63 168.483 192.391C163.21 194.742 158.198 197.695 153.575 201.479ZM159.666 163.341C184.062 153.353 209.014 146.472 234.776 142.762C236.298 151.112 238.093 161.559 239.862 173.111L233.939 174.441L226.408 182.366C221.128 176.792 210.427 180.307 203.681 182.005C196.364 183.863 189.054 185.765 181.763 187.743C179.579 188.336 177.416 188.996 175.285 189.726C169.81 181.837 164.671 173.715 160.43 164.955L159.666 163.341ZM256.157 257.715C261.242 255.471 266.335 253.258 271.4 251.031L273.793 248.554C274.798 248.714 275.944 248.752 277.242 248.621C279.214 248.292 281.632 247.613 284.271 246.702C282.556 252.937 281.525 258.331 281.048 263.019C273.812 265.577 265.692 267.988 256.445 270.319C256.432 266.287 256.331 262.082 256.157 257.715ZM220.906 273.586L225.684 271.376L237.946 261.519L240.68 253.979C242.449 257.568 243.413 258.974 245.175 262.591L249.202 260.809C249.343 264.693 249.41 268.47 249.41 272.073C240.552 274.095 230.991 275.18 221.121 275.341L220.906 273.586Z" fill="#EF5133"/>
<path id="Fill 12" fill-rule="evenodd" clip-rule="evenodd" d="M253.128 343.594C229.623 327.67 208.657 308.932 190.54 287.891L200.638 283.123C203.626 286.872 206.695 290.542 209.837 294.159C211.358 295.9 212.913 297.655 214.473 299.369C227.901 314.089 242.756 327.589 258.951 339.71C257.027 341.009 255.092 342.308 253.128 343.594ZM142.331 212.632C135.45 197.608 129.667 181.968 125.058 165.791C166.064 146.452 208.517 136.018 253.597 134.796C274.663 134.98 295.145 137.18 315.173 141.355C303.782 140.127 292.251 139.514 280.553 139.514C267.439 139.514 254.556 140.284 241.864 141.814C239.499 142.098 237.128 142.414 234.776 142.762C209.006 146.472 184.062 153.353 159.665 163.34C157.447 164.238 155.25 165.169 153.072 166.13C149.729 167.573 146.405 169.067 143.109 170.63C146.111 181.148 149.608 191.44 153.575 201.479C151.303 203.337 149.118 205.403 147.041 207.686L142.331 212.632Z" fill="#FCBA30"/>
<path id="Fill 14" fill-rule="evenodd" clip-rule="evenodd" d="M91.1683 153.011C144.174 125.742 190.675 110.902 250.743 110.902C310.791 110.902 357.312 125.742 410.284 153.011C385.674 252.144 338.665 317.785 250.743 370.475C217.563 350.599 188.565 327.335 164.456 300.306C157.756 303.521 152.429 306.106 149.702 307.458C141.401 311.57 133.099 315.723 124.837 319.941C115.517 324.669 105.172 331.875 94.431 329.076C82.6993 323.986 90.4314 309.722 94.0225 301.605C103.142 281.06 112.669 260.668 122.599 240.478C110.672 218.101 101.299 193.774 94.7264 167.369L91.1683 153.011ZM250.736 121.03C195.372 121.024 151.96 133.985 102.961 158.396C109.353 184.168 117.876 207.727 128.63 229.334C130.646 226.022 132.938 222.775 135.605 219.721C136.797 218.408 147.042 207.686 147.042 207.686C153.34 200.746 160.61 195.894 168.483 192.391C163.116 184.63 158.138 176.631 154.004 168.065L153.073 166.13C155.25 165.169 157.447 164.238 159.666 163.341L160.429 164.955C164.671 173.714 169.81 181.837 175.284 189.726C177.415 188.996 179.579 188.337 181.763 187.744C189.053 185.765 196.364 183.863 203.68 182.005C210.427 180.307 221.127 176.791 226.407 182.367L233.938 174.44L239.862 173.112C238.093 161.56 236.297 151.112 234.776 142.762C237.135 142.414 239.5 142.099 241.865 141.814C243.392 150.068 245.135 160.27 246.884 171.558C255.246 169.736 263.601 167.969 271.977 166.254L269.243 173.342L268.968 174.059L277.391 165.199C285.86 163.565 294.329 162.005 302.811 160.475L301.405 164.754C305.813 161.041 310.878 159.413 315.836 158.583L316.567 158.469C318.001 152.492 318.939 147.128 319.481 142.293C322.041 142.862 324.6 143.475 327.14 144.118C326.805 148.427 326.175 152.74 325.297 157.086C330.57 156.269 335.864 155.479 341.137 154.709C338.973 163.421 336.788 172.134 334.584 180.84L324.044 191.906L333.01 189.113C330.148 200.233 327.287 211.353 324.4 222.47L312.941 234.501C308.138 236.483 300.164 240.304 292.513 243.501C290.363 250.131 289.008 255.68 288.257 260.314C314.469 249.793 327.89 236.375 342.464 213.409C340.621 221.291 338.028 228.906 334.811 236.168C322.631 250.59 308.795 260.239 287.528 268.256C287.374 284.408 297.438 283.712 299.046 283.471C296.366 285.694 293.585 287.837 290.723 289.846C284.372 286.926 281.048 278.984 280.767 270.667C273.511 273.144 265.437 275.449 256.372 277.725C256.291 280.792 256.231 298.498 251.346 308.61C247.547 309.669 243.694 310.58 239.782 311.303C240.565 310.606 241.47 309.722 242.488 308.651C242.549 308.517 242.622 308.41 242.77 308.276C246.823 304.137 248.813 293.65 249.296 279.426C240.586 281.274 231.205 282.266 221.49 282.426C221.275 290.208 218.608 295.672 214.474 299.369C212.913 297.655 211.359 295.9 209.837 294.159C212.464 291.426 214.098 287.61 214.307 282.4C210.917 282.319 207.278 282.132 203.472 281.783C194.079 286.216 183.385 291.292 173.904 295.793C195.225 319.365 220.739 340.059 250.75 358.595C330.624 309.334 374.497 248.675 398.465 158.379C349.479 133.976 306.074 121.03 250.736 121.03ZM256.157 257.715C256.331 262.081 256.432 266.287 256.444 270.318C265.691 267.988 273.812 265.577 281.048 263.019C281.525 258.331 282.556 252.937 284.271 246.702C281.632 247.613 279.213 248.292 277.242 248.621C275.944 248.751 274.797 248.715 273.793 248.554L271.4 251.032C266.334 253.259 261.242 255.471 256.157 257.715ZM220.906 273.586L221.121 275.341C230.99 275.181 240.552 274.096 249.41 272.073C249.41 268.47 249.342 264.694 249.202 260.809L245.174 262.59C243.413 258.974 242.449 257.568 240.679 253.978L237.945 261.519L225.684 271.377L220.906 273.586Z" fill="#002D62"/>
<path id="Fill 16" fill-rule="evenodd" clip-rule="evenodd" d="M182.681 191.889C170.224 195.274 159.096 200.605 150.191 210.446C145.085 216.299 141.44 223.005 138.036 229.88C128.067 250.114 118.518 270.546 109.379 291.145C106.988 296.516 99.6575 309.588 107.463 312.977C116.093 315.213 126.887 307.954 134.506 304.083C142.787 299.877 151.088 295.712 159.404 291.587C173.569 284.569 186.272 276.051 194.889 262.349C198.319 256.563 200.865 250.358 203.385 244.167C208.792 230.857 214.307 217.561 219.928 204.309C222.031 199.342 225.711 193.082 224.538 187.663C222.173 180.381 209.864 184.828 204.511 186.163C197.24 188.011 189.958 189.917 182.681 191.889ZM166.935 267.908C160.342 270.847 153.782 273.801 147.209 276.827C156.737 254.755 166.614 232.84 176.932 211.101C182.695 209.281 188.484 207.472 194.3 205.704C184.858 226.311 175.753 247.054 166.935 267.908ZM279.688 169.093C270.548 181.007 261.536 193.028 252.632 205.112C256.8 194.046 261 182.996 265.256 171.979C255.795 173.922 246.361 175.978 236.94 178.114C234.501 183.81 232.062 189.512 229.67 195.22C231.687 194.658 233.744 194.092 235.761 193.533C228.35 211.46 221.12 229.464 214.039 247.496C211.13 254.829 208.242 262.168 205.361 269.508C214.822 265.042 224.276 260.615 233.77 256.255C238.066 244.398 242.4 232.548 246.79 220.732C250.816 228.798 254.809 236.875 258.776 244.978C264.894 242.246 271.018 239.56 277.162 236.888C273.424 228.379 269.631 219.881 265.812 211.39C272.612 201.097 279.44 190.834 286.375 180.605C288.318 180.146 290.261 179.685 292.205 179.238C293.671 174.805 295.118 170.366 296.58 165.925C290.937 166.943 285.31 167.995 279.688 169.093ZM316.312 162.826C311.219 163.672 306.636 165.3 302.844 169.11C299.728 172.458 298.081 176.453 296.707 180.706C292.653 193.406 288.586 206.123 284.519 218.843C282.924 223.856 280.324 233.018 288.385 232.335C291.125 231.882 293.732 230.751 296.298 229.649C304.452 226.183 312.62 222.754 320.808 219.379C322.899 211.39 324.968 203.407 327.019 195.408C322.717 196.751 318.429 198.113 314.114 199.497C313.109 203.096 312.111 206.716 311.106 210.305C308.111 211.406 305.142 212.488 302.147 213.593C305.927 200.692 309.705 187.805 313.451 174.906C316.097 174.333 318.751 173.768 321.398 173.218C320.767 175.482 320.158 177.746 319.521 180.009C323.381 179.092 327.247 178.167 331.106 177.283C332.587 171.477 334.048 165.654 335.495 159.845C329.102 160.782 322.697 161.781 316.312 162.826Z" fill="#FEFEFE"/>
<path id="Fill 18" fill-rule="evenodd" clip-rule="evenodd" d="M350.705 151.032C354.578 152.308 358.21 153.598 361.828 154.96C370.913 158.335 378.954 161.781 385.6 164.955C365.085 235.327 323.06 294.347 263.776 336.348L258.944 339.71C241.584 326.705 231.339 316.512 231.339 316.512L239.506 315.173C264.304 311.035 288.204 299.811 307.95 281.381C341.62 249.99 355.281 205.166 348.353 162.922C348.192 161.969 347.999 161.014 347.831 160.057L347.757 159.644L347.669 159.199L347.569 158.733L347.489 158.282L347.395 157.796L347.294 157.344L347.181 156.835L347.074 156.349L346.973 155.898L346.899 155.506L346.765 154.967L346.652 154.461L346.557 154.082L346.484 153.705L346.39 153.333C346.008 151.823 345.673 150.53 345.318 149.285C347.141 149.867 348.937 150.45 350.705 151.032ZM351.355 151.856C354.987 153.101 358.712 154.408 362.284 155.744C358.652 154.375 355.007 153.085 351.355 151.856Z" fill="#007CC2"/>
</g>
</g>
</svg>
