<svg width="500" height="500" viewBox="0 0 500 500" fill="none" xmlns="http://www.w3.org/2000/svg">
<g id="Style=Alternate, Color=Dark">
<g id="Page 1">
<path id="Fill 4" fill-rule="evenodd" clip-rule="evenodd" d="M7.05853 300.838C20.6708 366.009 58.8565 421.981 114.54 458.452C170.249 494.9 236.794 507.479 301.964 493.864C367.101 480.256 423.622 442.433 459.529 386.379C495.262 330.589 507.889 264.027 494.939 198.906C481.981 133.719 443.158 77.8964 387.408 41.3996C331.625 4.87798 265.096 -7.73512 200.058 5.85587C134.905 19.4634 78.9312 57.6674 42.4853 113.374C6.04775 169.08 -6.54549 235.651 7.05853 300.838Z" fill="#006AB6"/>
<path id="Fill 6" fill-rule="evenodd" clip-rule="evenodd" d="M335.862 55.6174C336.691 65.3134 332.151 74.7857 322.416 83.8436C275.672 49.5512 231.148 32.6536 187.469 32.4962C178.082 32.463 168.952 33.2171 160.095 34.6011C173.865 28.8166 188.306 24.3001 203.244 21.1841C242.258 13.0295 281.836 14.9605 318.961 26.3553C327.022 34.0459 334.876 44.3137 335.862 55.6174Z" fill="#FEFEFE"/>
<path id="Fill 8" fill-rule="evenodd" clip-rule="evenodd" d="M287.092 458.288C336.222 413.181 358.998 316.469 372.593 258.683L374.723 249.641C381.715 220.213 394.101 198.286 407.39 185.117C456.678 261.691 450 340.809 437.54 390.449C403.48 435.78 354.747 466.849 298.757 478.558C282.817 481.881 266.777 483.531 250.87 483.547C262.527 477.738 274.731 469.616 287.092 458.288Z" fill="#FEFEFE"/>
<path id="Fill 10" fill-rule="evenodd" clip-rule="evenodd" d="M376.352 130.209C396.269 113.486 412.309 100.732 423.56 92.4443C448.183 119.303 466.129 151.615 476.013 187.266C466.8 174.952 455.027 163.225 442.293 160.615C431.307 158.352 420.039 161.51 409.476 168.952C400.172 155.916 389.202 142.93 376.352 130.209Z" fill="#FEFEFE"/>
<path id="Fill 12" fill-rule="evenodd" clip-rule="evenodd" d="M21.9525 239.319C44.6286 178.391 127.802 153.53 159.111 144.174L160.503 143.759C170.785 140.676 185.524 138.174 202.599 135.281C242.947 128.453 292.666 119.958 322.658 97.5332C334.82 106.815 347.33 117.456 360.214 129.58C292.235 187.325 187.181 284.343 75.0015 403.587C48.8623 373.754 30.7098 337.539 22.3833 297.627C19.061 281.766 17.4123 265.813 17.3875 249.976C20.0469 243.794 21.9276 239.393 21.9525 239.319Z" fill="#FEFEFE"/>
<path id="Fill 14" fill-rule="evenodd" clip-rule="evenodd" d="M368.487 122.591C355.852 110.666 343.4 99.9339 331.105 90.4036C342.472 79.3237 347.675 67.3155 346.557 54.6527C345.885 46.9539 342.903 39.8186 338.818 33.4375C352.646 39.0977 366.035 46.1252 378.835 54.487C392.364 63.3625 404.8 73.4563 416.018 84.6026C404.229 93.2959 388.139 106.108 368.487 122.591Z" fill="#FEFEFE"/>
<path id="Fill 16" fill-rule="evenodd" clip-rule="evenodd" d="M313.63 90.8373C285.42 110.312 238.792 118.235 200.813 124.682C183.381 127.641 168.344 130.185 157.416 133.458L156.032 133.881C126.008 142.839 50.4149 165.48 19.2632 219.894C23.704 185.328 35.9244 151.947 55.5765 121.931C72.1217 96.6301 94.1184 73.2768 118.17 56.4538C173.472 33.1005 235.536 34.6999 313.63 90.8373Z" fill="#FEFEFE"/>
<path id="Fill 18" fill-rule="evenodd" clip-rule="evenodd" d="M440.13 171.15C456.443 174.507 473.983 201.912 482.334 217.724C489.517 268.964 479.65 320.436 453.966 365.41C455.226 357.496 456.261 349.159 456.907 340.424C460.172 296.701 454.215 237.108 415.673 178.07C424.206 172.037 432.748 169.634 440.13 171.15Z" fill="#FEFEFE"/>
<path id="Fill 20" fill-rule="evenodd" clip-rule="evenodd" d="M368.11 137.169C380.977 149.848 391.913 162.793 401.126 175.854C385.177 191.085 371.606 216.262 364.266 247.148L362.128 256.223C348.806 312.799 326.519 407.514 279.825 450.367C260.529 468.052 241.614 477.292 224.804 482.123C188.905 478.112 154.199 465.698 123.097 445.353C108.084 435.516 94.4308 424.163 82.2849 411.533C195.492 291.153 301.01 194.16 368.11 137.169Z" fill="#FEFEFE"/>
<path id="Fill 22" fill-rule="evenodd" clip-rule="evenodd" d="M315.45 319.263L321.763 317.54C325.574 316.529 328.176 315.236 328.176 309.683C328.176 305.092 326.883 296.697 321.374 296.697C315.45 296.697 315.45 306.658 315.45 312.062V319.263Z" fill="#FEFEFE"/>
<path id="Fill 24" fill-rule="evenodd" clip-rule="evenodd" d="M239.473 315.695C239.473 295.731 238.744 278.478 225.198 278.478C214.162 278.478 212.265 295.731 212.265 315.695C212.265 335.651 211.693 352.946 225.198 352.946C236.689 352.946 239.473 335.651 239.473 315.695Z" fill="#FEFEFE"/>
<path id="Fill 26" fill-rule="evenodd" clip-rule="evenodd" d="M315.45 319.263L321.763 317.54C325.574 316.529 328.176 315.236 328.176 309.683C328.176 305.092 326.883 296.697 321.374 296.697C315.45 296.697 315.45 306.658 315.45 312.062V319.263Z" fill="#FEFEFE"/>
<path id="Fill 28" fill-rule="evenodd" clip-rule="evenodd" d="M210.773 269.992H210.517H211.005C217.509 259.873 229.879 255.042 241.958 255.042C269.398 255.042 286.242 278.694 286.242 310.533C286.242 348.223 260.674 370.657 229.15 370.657C180.591 370.657 162.969 331.483 162.969 286.111C162.969 233.86 185.661 190.7 242.198 190.7C264.212 190.7 282.356 204.946 282.356 226.642C282.356 240.713 271.461 247.6 261.072 247.6C245.819 247.6 240.964 234.829 238.793 223.692C237.907 218.935 239.672 208.46 231.792 208.46C215.38 208.46 212.687 240.639 211.983 252.473L210.773 269.992Z" fill="#FEFEFE"/>
<path id="Fill 30" fill-rule="evenodd" clip-rule="evenodd" d="M239.473 315.695C239.473 295.731 238.744 278.478 225.198 278.478C214.162 278.478 212.265 295.731 212.265 315.695C212.265 335.651 211.693 352.946 225.198 352.946C236.689 352.946 239.473 335.651 239.473 315.695Z" fill="#FEFEFE"/>
<path id="Fill 32" fill-rule="evenodd" clip-rule="evenodd" d="M396.742 280.22C391.357 280.22 387.364 282.557 384.331 285.921C384.008 285.192 383.669 284.471 383.296 283.75L380.694 278.687L343.387 289.626V310.037H350.272C350.934 310.037 351.315 310.12 351.39 310.078C351.713 310.65 352.301 312.565 352.301 318.83V342.564L345.483 343.525V365.967H397.157V343.534L390.371 342.572V335.611C390.371 331.592 391.208 324.001 392.252 319.551C394.166 320.114 396.461 320.587 399.004 320.587C408.267 320.587 414.737 312.258 414.737 300.324C414.737 288.3 407.505 280.22 396.742 280.22Z" fill="#FEFEFE"/>
<path id="Fill 34" fill-rule="evenodd" clip-rule="evenodd" d="M461.46 304.017C461.013 302.319 460.855 301.68 460.855 300.761C460.855 294.645 458.42 280.424 435.818 280.424C423.316 280.424 398.792 290.054 398.792 312.313C398.792 320.575 401.253 326.592 404.791 331.083C399.886 333.976 396.854 339.536 396.854 346.506C396.854 354.536 400.888 367.995 427.956 367.995C451.104 367.995 464.377 355.995 464.377 335.07C464.377 315.122 462.62 308.435 461.46 304.017Z" fill="#FEFEFE"/>
<path id="Fill 36" fill-rule="evenodd" clip-rule="evenodd" d="M188.628 183.981C187.22 182.34 185.165 181.395 182.986 181.395C179.581 181.395 176.864 183.542 173.583 187.006C162.564 198.649 147.667 204.798 130.509 204.798C108.015 204.798 84.3364 194.456 65.5459 176.423C64.0298 174.964 62.0662 174.152 60.0198 174.152C50.84 174.152 48.4125 188.928 48.3959 189.069L48.3628 263.074L54.2452 263.936C76.6147 267.242 95.7946 266.579 113.326 261.847C94.3861 278.803 51.7597 324.913 52.3893 368.91C52.4887 377.014 57.5095 377.893 59.6636 377.893C62.3396 377.893 64.1043 376.459 65.2643 375.514C65.5791 375.258 65.9685 374.943 66.449 374.586C72.4971 370.095 82.3646 367.517 93.4996 367.517C102.713 367.517 111.834 369.357 118.603 372.597C119.879 373.194 121.395 373.832 123.235 373.832C125.372 373.832 127.336 372.979 128.752 371.421C131.147 368.802 130.857 365.57 130.658 363.382C127.535 331.493 134.56 296.596 148.148 276.507L150.186 273.483C161.752 256.37 185.811 220.743 190.352 191.332C190.816 188.323 190.236 185.854 188.628 183.981Z" fill="#FEFEFE"/>
<path id="Fill 38" fill-rule="evenodd" clip-rule="evenodd" d="M331.326 338.303C328.732 338.303 326.951 336.662 325.791 334.631L339.047 331.068C335.286 335.568 332.394 338.004 331.326 338.303ZM360.315 325.342L359.975 319.731C359.751 316.043 359.205 312.546 358.351 309.264L358.103 302.834L356.918 304.682C351.342 289.599 338.823 280.218 322.833 280.218C298.898 280.218 282.179 299.146 282.179 326.253C282.179 347.029 294.341 367.996 321.508 367.996C337.067 367.996 351.326 360.156 358.741 347.543L359.76 345.811L358.989 325.698L360.315 325.342Z" fill="#FEFEFE"/>
<path id="Fill 40" fill-rule="evenodd" clip-rule="evenodd" d="M271.261 259.876C269.902 257.945 268.386 255.791 267.118 253.893C278.875 251.539 289.239 242.274 289.239 226.645C289.239 202.231 269.016 183.816 242.197 183.816C188.278 183.816 156.082 222.053 156.082 286.113C156.082 344.215 182.719 377.546 229.148 377.546C266.82 377.546 293.125 349.991 293.125 310.536C293.125 290.895 279.968 272.224 271.261 259.876Z" fill="#FEFEFE"/>
<path id="Fill 42" fill-rule="evenodd" clip-rule="evenodd" d="M315.595 312.131C315.595 306.728 315.595 296.766 321.518 296.766C327.028 296.766 328.32 305.161 328.32 309.753C328.32 315.305 325.719 316.598 321.908 317.6L315.595 319.333V312.131ZM331.469 345.263C323.101 345.263 318.171 337.622 317.326 329.89L353.25 320.211C352.19 302.684 342.057 287.17 322.985 287.17C302.687 287.17 289.207 302.998 289.207 326.319C289.207 344.534 299.654 361.175 321.659 361.175C334.228 361.175 346.431 355.224 352.944 344.128L345.843 335.683C342.372 341.053 338.329 345.263 331.469 345.263Z" fill="#006AB6"/>
<path id="Fill 44" fill-rule="evenodd" clip-rule="evenodd" d="M390.412 359.143H352.516V349.579L359.335 348.618V318.9C359.335 308.293 357.943 303.213 350.42 303.213V294.851L377.321 286.97C380.395 292.953 381.348 299.823 381.787 306.61H382.052C384.737 298.53 388.1 287.177 396.882 287.177C404.587 287.177 408.001 293.127 408.001 300.395C408.001 307.754 404.778 313.762 399.152 313.762C395.283 313.762 391.978 312.13 390.13 311.508C385.217 309.834 383.626 331.24 383.626 335.682V348.618L390.412 349.579V359.143Z" fill="#006AB6"/>
<path id="Fill 46" fill-rule="evenodd" clip-rule="evenodd" d="M454.117 300.83C454.117 306.722 449.038 309.656 443.686 309.656C437.158 309.656 432.568 304.369 431.375 298.004C428.599 298.004 426.627 299.429 426.627 304.153C426.627 315.15 457.647 307.311 457.647 335.139C457.647 355.981 442.584 361.177 428.102 361.177C419.287 361.177 403.885 360.017 403.885 346.575C403.885 340.492 407.265 335.843 413.322 335.843C422.733 335.843 424.357 344.47 425.94 350.586C426.387 352.194 427.779 352.459 429.088 352.459C434.059 352.459 437.663 350.404 437.663 347.131C437.663 334.642 405.824 339.481 405.824 312.374C405.824 295.162 426.172 287.38 435.965 287.38C447.108 287.38 454.117 291.117 454.117 300.83Z" fill="#006AB6"/>
<path id="Fill 48" fill-rule="evenodd" clip-rule="evenodd" d="M225.342 353.015C211.837 353.015 212.417 335.72 212.417 315.764C212.417 295.8 214.306 278.546 225.342 278.546C238.896 278.546 239.617 295.8 239.617 315.764C239.617 335.72 236.833 353.015 225.342 353.015ZM242.102 255.11C230.023 255.11 217.661 259.942 211.149 270.06H210.917H210.661H210.917L212.127 252.541C212.831 240.715 215.524 208.528 231.937 208.528C239.824 208.528 238.051 219.003 238.937 223.76C241.108 234.898 245.963 247.668 261.216 247.668C271.605 247.668 282.5 240.782 282.5 226.71C282.5 205.014 264.356 190.769 242.343 190.769C185.805 190.769 163.113 233.928 163.113 286.187C163.113 331.551 180.743 370.725 229.294 370.725C260.826 370.725 286.386 348.291 286.386 310.601C286.386 278.762 269.542 255.11 242.102 255.11Z" fill="#006AB6"/>
<path id="Fill 50" fill-rule="evenodd" clip-rule="evenodd" d="M55.3943 189.846V257.196C93.1077 262.757 138.12 259.061 169.943 212.512C171.277 210.531 172.064 211.923 171.211 213.647C162.313 231.754 141.293 248.486 123.116 262.757C105.643 276.464 58.7994 325.648 59.4208 368.883C59.4622 372.206 59.5699 371.294 62.4863 369.123C76.7117 358.565 104.549 358.225 121.65 366.421C124.052 367.54 124.226 367.209 123.945 364.126C120.664 330.596 128.203 293.983 142.578 272.735C152.462 257.992 179.098 220.094 183.688 190.352C184.16 187.269 182.578 187.749 178.725 191.81C148.551 223.691 94.0025 222.92 58.7994 189.133C56.579 186.995 55.5848 187.948 55.3943 189.846Z" fill="#EC174B"/>
<path id="Fill 52" fill-rule="evenodd" clip-rule="evenodd" d="M185.376 149.41C185.376 185.061 156.477 213.967 120.835 213.967C85.1848 213.967 56.2866 185.061 56.2866 149.41C56.2866 113.75 85.1848 84.8525 120.835 84.8525C156.477 84.8525 185.376 113.75 185.376 149.41Z" fill="#FEFEFE"/>
<path id="Fill 54" fill-rule="evenodd" clip-rule="evenodd" d="M120.777 87.1328L122.931 94.0112H130.222L124.29 98.3122L126.469 105.066L120.777 100.931L114.994 105.066L117.148 98.2874L111.258 94.0112H118.548L120.777 87.1328Z" fill="#006AB6"/>
<path id="Fill 56" fill-rule="evenodd" clip-rule="evenodd" d="M163.738 112.21L165.95 119.03H173.265L167.325 123.365L169.504 130.102L163.762 125.942L157.996 130.102L160.225 123.365L154.218 119.03H161.55L163.738 112.21Z" fill="#006AB6"/>
<path id="Fill 58" fill-rule="evenodd" clip-rule="evenodd" d="M145.3 92.8594L147.496 99.7129H154.82L148.887 104.039L151.042 110.809L145.317 106.608L139.592 110.809L141.746 104.006L135.814 99.7129H143.113L145.3 92.8594Z" fill="#006AB6"/>
<path id="Fill 60" fill-rule="evenodd" clip-rule="evenodd" d="M170.766 135.889L172.961 142.742H180.252L174.353 147.035L176.491 153.806L170.807 149.621L165.066 153.806L167.253 147.035L161.279 142.742H168.537L170.766 135.889Z" fill="#006AB6"/>
<path id="Fill 62" fill-rule="evenodd" clip-rule="evenodd" d="M167.688 160.918L169.875 167.747H177.191L171.259 172.106L173.429 178.86L167.704 174.683L162.004 178.86L164.134 172.073L158.218 167.747H165.517L167.688 160.918Z" fill="#006AB6"/>
<path id="Fill 64" fill-rule="evenodd" clip-rule="evenodd" d="M153.877 180.901L156.032 187.755H163.364L157.432 192.081L159.586 198.818L153.919 194.658L148.152 198.818L150.323 192.081L144.358 187.755H151.682L153.877 180.901Z" fill="#006AB6"/>
<path id="Fill 66" fill-rule="evenodd" clip-rule="evenodd" d="M132.153 192.08L134.365 198.934H141.614L135.699 203.268L137.894 210.047L132.169 205.878L126.428 210.047L128.582 203.259L122.65 198.934H129.94L132.153 192.08Z" fill="#006AB6"/>
<path id="Fill 68" fill-rule="evenodd" clip-rule="evenodd" d="M76.9859 109.989L74.7738 116.81H67.4995L73.3985 121.16L71.2443 127.906L76.9444 123.721L82.7274 127.906L80.5401 121.16L86.5054 116.81H79.1814L76.9859 109.989Z" fill="#006AB6"/>
<path id="Fill 70" fill-rule="evenodd" clip-rule="evenodd" d="M94.9702 92.8594L92.7747 99.7129H85.4839L91.416 104.039L89.2287 110.809L94.9702 106.608L100.712 110.809L98.5577 104.006L104.49 99.7129H97.1823L94.9702 92.8594Z" fill="#006AB6"/>
<path id="Fill 72" fill-rule="evenodd" clip-rule="evenodd" d="M68.5965 132.828L66.4424 139.648H59.135L65.0837 143.95L62.913 150.745L68.5965 146.585L74.338 150.745L72.1839 143.95L78.1574 139.648H70.8666L68.5965 132.828Z" fill="#006AB6"/>
<path id="Fill 74" fill-rule="evenodd" clip-rule="evenodd" d="M70.864 157.818L68.6353 164.688H61.3445L67.2766 169.023L65.1225 175.793L70.8226 171.608L76.5724 175.793L74.3768 169.006L80.3089 164.688H73.0181L70.864 157.818Z" fill="#006AB6"/>
<path id="Fill 76" fill-rule="evenodd" clip-rule="evenodd" d="M84.656 178.256L82.4854 185.118H75.1697L81.1018 189.435L78.9145 196.181L84.656 191.996L90.439 196.181L88.2269 189.419L94.159 185.118H86.8681L84.656 178.256Z" fill="#006AB6"/>
<path id="Fill 78" fill-rule="evenodd" clip-rule="evenodd" d="M106.383 191.221L104.212 198.091H96.8965L102.829 202.408L100.674 209.146L106.341 205.027L112.141 209.146L109.929 202.359L115.902 198.091H108.595L106.383 191.221Z" fill="#006AB6"/>
</g>
</g>
</svg>
