<svg width="500" height="500" viewBox="0 0 500 500" fill="none" xmlns="http://www.w3.org/2000/svg">
<g clip-path="url(#clip0_175_18)">
<path d="M1.37158 456.638L241.769 324.95L78.875 456.638L276.406 342.783L273.319 365.76L306.241 347.584L380.658 417.886L420.439 298.887L470.507 291.686L448.56 222.756L495.199 182.289L433.127 156.226L450.274 83.8668L393.004 109.93L366.255 45.458L317.901 93.469L238.34 51.9738L224.28 130.163L150.891 145.938L194.101 172.344L150.549 194.292L187.586 197.378L34.9793 316.034L188.614 234.415L24.0053 359.93L199.245 268.709L12.0026 409.313L218.45 299.573L1.37158 456.638Z" fill="#F9A01B"/>
<path d="M2.74348 458.695L0 454.237L186.557 319.121L13.0315 411.713L10.2881 407.255L172.497 285.17L25.0343 362.331L22.2908 357.872L161.866 251.562L36.3512 318.435L33.6077 313.977L181.07 199.093L141.289 195.664L188.957 171.658L144.033 144.909L222.222 128.106L236.626 48.2016L317.558 90.7257L366.941 41L394.376 106.501L454.047 79.4088L436.214 154.512L500 181.261L451.303 223.442L473.937 293.401L422.154 300.945L381.687 422.344L305.556 350.328L269.89 370.218L272.977 347.584L79.904 458.695L77.1605 454.58L217.764 341.069L2.74348 458.695ZM240.398 322.55L243.141 326.665L105.624 437.776L279.492 337.639L276.063 360.616L306.241 343.812L379.287 412.742L418.038 296.144L466.735 289.285L445.13 221.727L490.398 182.975L430.384 157.598L446.845 88.3251L391.975 113.359L365.569 49.9163L318.244 96.8985L240.398 55.7462L226.337 132.221L157.75 147.31L199.588 172.687L159.808 192.577L194.444 195.321L60.0137 299.916L187.243 232.358L189.986 236.816L49.3827 343.812L197.874 266.309L200.617 270.767L39.7805 391.823L217.078 297.516L219.822 301.974L36.0082 435.033L240.398 322.55Z" fill="white"/>
<path d="M441.015 223.784C438.272 289.628 382.716 341.068 316.53 338.325C250.686 335.581 199.246 280.026 201.989 213.839C204.733 147.653 260.288 96.5554 326.475 99.2989C392.661 102.385 443.759 157.941 441.015 223.784Z" fill="#E56020"/>
<path d="M336.077 322.207C270.233 319.464 218.793 263.908 221.536 197.722C222.908 167.2 235.254 139.765 255.144 119.532C224.28 140.108 203.704 174.402 201.989 214.182C199.246 280.026 250.686 335.925 316.53 338.668C351.852 340.04 384.431 325.979 407.408 302.317C387.174 315.691 362.483 323.236 336.077 322.207Z" fill="#B95915"/>
<path d="M441.015 220.355C441.015 215.897 441.015 211.782 440.672 207.666C433.814 202.865 425.583 199.093 415.981 198.064C414.266 197.721 412.209 197.721 410.494 197.721C409.465 189.834 407.408 181.946 405.007 174.402C406.379 174.402 407.408 174.402 408.779 174.744C417.353 175.43 425.583 176.459 433.814 177.488C432.785 174.402 431.413 171.315 430.041 168.572C420.782 167.2 411.523 166.171 401.921 165.485C398.834 157.941 395.062 150.396 390.947 143.194C397.12 141.823 402.607 139.422 407.065 135.307C404.664 132.906 402.607 130.849 399.863 128.791C396.091 132.22 390.947 134.278 385.46 134.964C384.431 133.592 383.745 132.563 382.716 131.192C374.486 120.561 365.227 111.644 354.939 104.1C346.022 101.356 336.42 99.9845 326.818 99.6416C326.132 99.6416 325.789 99.6416 325.103 99.6416C343.279 106.843 359.397 118.846 372.428 134.964C360.083 133.935 345.679 129.477 331.276 125.362C327.161 123.99 323.045 122.961 318.93 121.932C294.925 115.417 276.063 114.045 262.346 115.417C252.058 121.247 242.456 128.791 234.568 137.365C249.657 131.192 280.179 120.218 316.873 130.506C320.645 131.535 324.76 132.906 328.875 133.935C345.336 138.736 363.512 144.223 379.287 144.223C383.745 150.739 387.517 157.598 390.604 164.799C387.517 164.799 384.431 164.456 381.345 164.456C304.527 163.085 238.683 186.061 201.989 222.755C202.332 229.957 203.018 237.159 204.39 244.017C214.678 229.271 230.11 215.897 249.657 204.923C286.694 184.004 336.077 173.03 388.546 174.059C390.261 174.059 392.318 174.059 394.033 174.059C396.777 181.603 398.491 189.491 399.863 197.378C366.255 198.75 344.307 220.012 318.93 242.303C296.639 262.536 269.205 282.426 228.738 294.772C232.511 299.573 236.626 303.688 241.084 307.803C279.15 292.371 304.527 268.709 325.789 249.504C350.137 227.899 370.714 206.98 401.235 205.952C401.921 214.525 401.921 223.098 401.235 231.672C397.12 278.654 370.028 318.434 332.991 337.982C342.593 336.953 351.509 335.238 360.425 332.152C363.512 329.751 366.255 327.008 368.999 324.264C393.347 300.259 408.436 267.68 411.523 232.701C412.209 223.784 412.209 215.211 411.523 206.637C412.895 206.637 414.609 206.98 415.981 207.323C426.612 208.695 434.842 214.182 441.015 220.355Z" fill="black"/>
</g>
<defs>
<clipPath id="clip0_175_18">
<rect width="500" height="417.695" fill="white" transform="translate(0 41)"/>
</clipPath>
</defs>
</svg>
