<svg width="500" height="500" viewBox="0 0 500 500" fill="none" xmlns="http://www.w3.org/2000/svg">
<g id="Style=Alternate, Color=Light">
<g id="Page 1">
<path id="Fill 1" fill-rule="evenodd" clip-rule="evenodd" d="M420.486 133.842C413.116 122.929 404.652 112.669 395.327 103.342C391.283 99.297 387.063 95.4135 382.692 91.7105L474.376 0H207.275L104.181 103.124H104.196C104.124 103.199 104.049 103.271 103.974 103.342C94.6532 112.669 86.1894 122.929 78.8193 133.842C71.3778 144.857 64.9887 156.635 59.8247 168.846C49.0796 194.252 43.6338 221.241 43.6338 249.06C43.6338 276.88 49.0796 303.868 59.8247 329.274C64.9887 341.485 71.3778 353.263 78.8193 364.278C86.1894 375.192 94.6532 385.455 103.974 394.778C108.033 398.835 112.265 402.729 116.651 406.444L25 498.12H292.022L395.534 394.579H395.527C404.768 385.308 413.168 375.117 420.486 364.278C427.923 353.263 434.316 341.485 439.48 329.274C450.222 303.868 455.667 276.88 455.667 249.06C455.667 221.241 450.222 194.252 439.48 168.846C434.316 156.635 427.923 144.857 420.486 133.842Z" fill="#061922"/>
<path id="Fill 3" fill-rule="evenodd" clip-rule="evenodd" d="M383.258 115.194C379.218 111.153 375.042 107.333 370.746 103.735L258.639 215.871C264.16 217.423 269.373 220.367 273.717 224.702L273.748 224.735C287.285 238.277 287.285 260.232 273.748 273.773L66.0996 481.48H90.4273L285.913 285.938C306.111 265.739 306.171 233.025 286.094 212.747L298.256 200.581C325.049 227.577 324.989 271.186 298.075 298.104L114.751 481.48H139.083L310.241 310.273C343.871 276.634 343.931 222.13 310.421 188.416L322.587 176.247C362.816 216.683 362.752 282.081 322.407 322.442L163.41 481.48H187.742L334.569 334.611C381.638 287.529 381.698 211.232 334.753 164.077L346.919 151.908C400.584 205.784 400.524 292.98 346.734 346.78L212.073 481.48H236.401L358.9 358.946C419.405 298.427 419.466 200.337 359.08 139.739L371.325 127.491C438.472 194.852 438.411 303.908 371.145 371.194L260.89 481.48H285.222L383.31 383.363L383.258 383.311C457.274 309.273 457.274 189.232 383.258 115.194Z" fill="#FEFEFE"/>
<path id="Fill 5" fill-rule="evenodd" clip-rule="evenodd" d="M116.156 383.097C120.196 387.138 124.372 390.958 128.668 394.556L240.775 282.42C235.254 280.868 230.045 277.924 225.696 273.589L225.666 273.556C212.129 260.014 212.129 238.059 225.666 224.518L433.596 16.5293H409.268L213.501 212.353C193.303 232.552 193.247 265.266 213.32 285.544L201.158 297.71C174.369 270.714 174.425 227.104 201.339 200.187L384.944 16.5293H360.613L189.173 188.018C155.543 221.657 155.483 276.161 188.993 309.875L176.831 322.044C136.598 281.608 136.661 216.21 177.007 175.849L336.285 16.5293H311.954L164.845 163.68C117.776 210.762 117.716 287.059 164.665 334.214L152.495 346.383C98.8339 292.507 98.8902 205.311 152.679 151.51L287.622 16.5293H263.291L140.514 139.345C80.0084 199.868 79.9482 297.954 140.333 358.552L128.089 370.8C60.9423 303.439 61.0025 194.383 128.269 127.097L238.805 16.5293H214.474L116.103 114.928L116.156 114.98C42.1394 189.018 42.1394 309.059 116.156 383.097Z" fill="#DF393E"/>
</g>
</g>
</svg>
