<svg width="500" height="500" viewBox="0 0 500 500" fill="none" xmlns="http://www.w3.org/2000/svg">
<g id="Style=Regular, Color=Light">
<g id="SKings_Global_pms">
<g id="Group 3">
<mask id="mask0_35_8030" style="mask-type:luminance" maskUnits="userSpaceOnUse" x="31" y="0" width="438" height="500">
<path id="Clip 2" fill-rule="evenodd" clip-rule="evenodd" d="M31 499.948H468.904V0H31V499.948Z" fill="white"/>
</mask>
<g mask="url(#mask0_35_8030)">
<path id="Fill 1" fill-rule="evenodd" clip-rule="evenodd" d="M468.904 0L406.232 62.9705L353.855 10.6155L301.239 62.9766L248.95 10.6155L196.679 62.9705L144.375 10.6155L92.1144 62.9965L31 1.25608C31 1.25608 31 258.444 31 280.074C31 401.337 128.2 500 249.288 500C370.403 500 468.904 401.337 468.904 280.074C468.904 258.444 468.904 0 468.904 0Z" fill="#FFFFFE"/>
</g>
</g>
<path id="Fill 4" fill-rule="evenodd" clip-rule="evenodd" d="M50.5469 318.263C55.7239 344.522 65.9523 369.195 81.0325 391.669C90.1403 375.685 108.359 355.83 144.143 347.393C141.394 338.198 138.946 328.42 136.868 318.263H50.5469Z" fill="#575F64"/>
<path id="Fill 5" fill-rule="evenodd" clip-rule="evenodd" d="M95.3115 410.562C133.982 455.921 189.664 482.068 248.366 482.454C242.831 479.624 237.414 476.508 232.203 473.154C207.32 457.057 173.11 425.728 151.02 367.647C116.253 375.234 101.537 394.957 95.3115 410.562Z" fill="#575F64"/>
<path id="Fill 6" fill-rule="evenodd" clip-rule="evenodd" d="M172.44 364.602C188.118 404.049 211.807 434.362 242.897 454.709C263.454 468.181 283.154 474.306 296.143 477.083C328.647 469.49 359.007 453.812 384.137 431.651C364.311 429.479 343.981 418.059 322.521 406.015C289.015 387.195 247.291 363.771 190.959 363.771C184.872 363.771 178.66 364.064 172.44 364.602Z" fill="#575F64"/>
<path id="Fill 7" fill-rule="evenodd" clip-rule="evenodd" d="M257.146 215.659C256.802 215.659 184.704 215.659 184.704 215.659V301.979H214.799V232.737H237.406V301.979H266.087V227.749C266.087 221.172 262.071 215.659 257.146 215.659Z" fill="#4E2B6C"/>
<path id="Fill 8" fill-rule="evenodd" clip-rule="evenodd" d="M278.767 215.659V289.708C278.767 296.298 282.749 301.979 287.661 301.979C287.681 301.979 335.099 301.979 335.099 301.979H360.03V249.571L331.137 249.538V284.879H308.536V232.319H360.03V215.659H278.767Z" fill="#4E2B6C"/>
<path id="Fill 9" fill-rule="evenodd" clip-rule="evenodd" d="M104.613 215.659L88.2444 250.518H78.7931V215.659H48.8374V301.979H78.7931V267.244H88.2444L104.613 301.979H134.541L113.434 258.881L134.541 215.659H104.613Z" fill="#4E2B6C"/>
<path id="Fill 10" fill-rule="evenodd" clip-rule="evenodd" d="M142.512 301.979H173.523V215.659H142.512V301.979Z" fill="#4E2B6C"/>
<path id="Fill 11" fill-rule="evenodd" clip-rule="evenodd" d="M451.148 239.003V215.659H371.637V255.092C371.637 261.67 375.626 267.01 380.525 267.01H421.04V285.823H371.637V301.979H451.188V262.354C451.188 256.222 447.803 250.462 443.249 250.462H401.479V232.387H422.374V239.003H451.148Z" fill="#4E2B6C"/>
<path id="Fill 12" fill-rule="evenodd" clip-rule="evenodd" d="M366.558 128.113H341.17L393.533 75.68L353.854 36.0342L301.239 88.3883L248.95 36.0342L157.018 128.113H131.63L183.907 75.6002L144.375 36.0342L92.1144 88.3883L48.8408 45.3936V199.819H451.14V43.4014L366.558 128.113Z" fill="#4E2B6C"/>
<path id="Fill 13" fill-rule="evenodd" clip-rule="evenodd" d="M136.725 183.227C136.725 185.466 138.549 187.294 140.773 187.294H163.381V181.215H144.955V161.498H163.381V155.433H136.725V183.227Z" fill="#FFFFFE"/>
<path id="Fill 14" fill-rule="evenodd" clip-rule="evenodd" d="M108.091 172.899H118.292V161.506H108.091V172.899ZM99.8667 155.433V187.294H108.091V178.957H118.292V187.294H126.523V159.493C126.523 157.108 124.608 155.433 122.003 155.433H99.8667Z" fill="#FFFFFE"/>
<path id="Fill 15" fill-rule="evenodd" clip-rule="evenodd" d="M417.77 181.17H427.932V161.493H417.77V181.17ZM432.161 155.433H413.509C411.292 155.433 409.474 157.241 409.474 159.466V183.229C409.474 185.454 411.292 187.294 413.509 187.294H432.161C434.384 187.294 436.196 185.44 436.196 183.216V159.466C436.196 157.241 434.384 155.433 432.161 155.433Z" fill="#FFFFFE"/>
<path id="Fill 16" fill-rule="evenodd" clip-rule="evenodd" d="M62.979 170.34C62.979 172.572 64.8047 174.393 67.0346 174.393H81.4054V181.215H62.979V187.294H89.6354V172.373C89.6354 170.301 88.089 168.566 86.0178 168.348L85.7923 168.328H71.1969V161.499H89.6354V155.433H62.979V170.34Z" fill="#FFFFFE"/>
<path id="Fill 17" fill-rule="evenodd" clip-rule="evenodd" d="M218.001 172.899H228.203V161.506H218.001V172.899ZM232.365 155.433H209.771V187.294H218.001V178.957H228.203V187.294H236.44V159.493C236.44 157.261 234.609 155.433 232.365 155.433Z" fill="#FFFFFE"/>
<path id="Fill 18" fill-rule="evenodd" clip-rule="evenodd" d="M373.614 161.491H382.847V187.294H391.058V161.491H400.277V155.433H373.614V161.491Z" fill="#FFFFFE"/>
<path id="Fill 19" fill-rule="evenodd" clip-rule="evenodd" d="M288.286 155.433H247.358V187.294H255.589V161.5H265.678V187.294H274.021V161.5H284.104V187.294H292.335V159.488C292.335 157.262 290.509 155.433 288.286 155.433Z" fill="#FFFFFE"/>
<path id="Fill 20" fill-rule="evenodd" clip-rule="evenodd" d="M361.221 155.433H338.626V187.294H346.85V161.5H357.051V187.294H365.282V159.488C365.282 157.262 363.458 155.433 361.221 155.433Z" fill="#FFFFFE"/>
<path id="Fill 21" fill-rule="evenodd" clip-rule="evenodd" d="M303.541 183.227C303.541 185.466 305.353 187.294 307.59 187.294H330.177V181.215H311.771V174.386H330.177V168.334H311.771V161.498H330.177V155.433H303.541V183.227Z" fill="#FFFFFE"/>
<path id="Fill 22" fill-rule="evenodd" clip-rule="evenodd" d="M181.076 169.644H191.278V161.499H181.076V169.644ZM195.109 175.702H199.508V159.486C199.508 157.108 197.555 155.433 194.989 155.433H172.852V187.294H181.076V175.702H187.043L191.969 187.294H199.986L195.109 175.702Z" fill="#FFFFFE"/>
<path id="Fill 23" fill-rule="evenodd" clip-rule="evenodd" d="M186.567 342.706C229.428 341.834 271.815 352.575 325.902 383.421C365.878 406.219 383.444 413.135 395.431 410.183C406.475 407.463 416.722 400.935 434.798 362.696C441.698 348.101 446.654 330.804 449.063 318.273L158.281 318.271C160.305 327.087 162.293 335.856 164.953 343.922C171.991 343.131 179.268 342.706 186.567 342.706Z" fill="#575F64"/>
</g>
</g>
</svg>
