<svg width="500" height="500" viewBox="0 0 500 500" fill="none" xmlns="http://www.w3.org/2000/svg">
<g id="Style=Alternate, Color=Dark">
<g id="SASpurs_P_pms">
<path id="Fill 1" fill-rule="evenodd" clip-rule="evenodd" d="M398.116 0.388672L367.087 55.3251L361.692 99.2376L306.337 197.721H233.843L287.963 102.169V0.388672H231.768L202.056 54.828L197.003 99.2376L118.104 239.715L131.336 272.825H180.46L158.101 329.4L116.211 284.155L121.128 350.566L48.6045 353.605L106.315 394.159L65.2093 455.327L131.546 433.68L158.875 499.294L179.744 427.785L253.726 446.812L205.955 391.663L264.734 343.161L204.061 346.923L269.725 272.825H356.121L451.807 103.427V0.388672H398.116Z" fill="#FFFFFE"/>
<path id="Fill 4" fill-rule="evenodd" clip-rule="evenodd" d="M398.116 0.388672L367.087 55.3251L361.692 99.2376L306.337 197.721H233.843L287.963 102.169V0.388672H231.768L202.056 54.828L197.003 99.2376L118.104 239.715L131.336 272.825H180.46L158.101 329.4L116.211 284.155L121.128 350.566L48.6045 353.605L106.315 394.159L65.2093 455.327L131.546 433.68L158.875 499.294L179.744 427.785L253.726 446.812L205.955 391.663L264.734 343.161L204.061 346.923L269.725 272.825H356.121L451.807 103.427V0.388672H398.116Z" fill="#0F1216"/>
<path id="Fill 5" fill-rule="evenodd" clip-rule="evenodd" d="M386.502 49.392H412.708L430.954 15.1445H405.681L386.502 49.392Z" fill="#C1C8C9"/>
<path id="Stroke 6" fill-rule="evenodd" clip-rule="evenodd" d="M386.502 49.392H412.708L430.954 15.1445H405.681L386.502 49.392V49.392Z" stroke="#0F1216" stroke-width="0.762425"/>
<path id="Fill 7" fill-rule="evenodd" clip-rule="evenodd" d="M221.692 49.4308L249.932 49.3732L267.91 15.1445L240.715 15.1604L221.692 49.4308Z" fill="#C1C8C9"/>
<path id="Stroke 8" fill-rule="evenodd" clip-rule="evenodd" d="M221.692 49.4308L249.932 49.3732L267.91 15.1445L240.715 15.1604L221.692 49.4308V49.4308Z" stroke="#0F1216" stroke-width="0.762425"/>
<path id="Fill 9" fill-rule="evenodd" clip-rule="evenodd" d="M214.996 92.5321L240.413 92.6016L242.795 63.208H218.163L214.996 92.5321Z" fill="#C1C8C9"/>
<path id="Stroke 10" fill-rule="evenodd" clip-rule="evenodd" d="M214.996 92.5321L240.413 92.6016L242.795 63.208H218.163L214.996 92.5321V92.5321Z" stroke="#0F1216" stroke-width="0.762425"/>
<path id="Fill 11" fill-rule="evenodd" clip-rule="evenodd" d="M379.229 92.5321L404.689 92.6016L407.076 63.208H382.432L379.229 92.5321Z" fill="#C1C8C9"/>
<path id="Stroke 12" fill-rule="evenodd" clip-rule="evenodd" d="M379.229 92.5321L404.689 92.6016L407.076 63.208H382.432L379.229 92.5321V92.5321Z" stroke="#0F1216" stroke-width="0.762425"/>
<path id="Fill 13" fill-rule="evenodd" clip-rule="evenodd" d="M148.501 398.943C142.056 398.943 136.851 393.735 136.851 387.31C136.851 380.864 142.056 375.661 148.501 375.661C154.945 375.661 160.161 380.864 160.161 387.31C160.161 393.735 154.945 398.943 148.501 398.943ZM373.791 110.125L316.395 211.02H178.702L236.09 110.125H209.099L139.847 232.251H216.666L158.412 362.38L134.297 335.643L135.646 367.161L96.8105 369.3L128.09 391.29L105.805 424.423L141.752 412.708L156.55 448.248L167.854 409.513L207.959 419.818L182.064 389.938L213.911 363.647L164.752 365.802L255.319 232.251H332.27L400.355 110.125H373.791Z" fill="#C1C8C9"/>
<path id="Stroke 14" d="M208.877 109.744V109.363H208.655L208.545 109.556L208.877 109.744ZM236.746 109.744L237.077 109.933L237.401 109.363H236.746V109.744ZM236.422 110.314L236.09 110.125V110.125L236.422 110.314ZM179.358 210.639L179.026 210.45L178.702 211.02H179.358V210.639ZM316.174 210.639V211.02H316.396L316.505 210.827L316.174 210.639ZM373.46 109.937L373.649 109.606L373.317 109.417L373.129 109.748L373.46 109.937ZM373.791 110.125L373.603 110.457L374.173 110.781V110.125H373.791ZM373.791 109.744V109.363H373.41V109.744H373.791ZM401.004 109.744L401.337 109.93L401.653 109.363H401.004V109.744ZM400.688 110.311L401.021 110.497V110.497L400.688 110.311ZM332.603 232.437L332.936 232.623V232.623L332.603 232.437ZM332.494 232.633V233.014H332.718L332.827 232.818L332.494 232.633ZM255.521 232.633V232.252H255.319L255.206 232.419L255.521 232.633ZM165.494 365.388L165.178 365.174L164.752 365.802L165.51 365.769L165.494 365.388ZM213.894 363.266L213.878 362.886V362.886L213.894 363.266ZM215.031 363.217L215.274 363.51L216.152 362.786L215.015 362.836L215.031 363.217ZM214.154 363.941L213.911 363.647H213.911L214.154 363.941ZM182.608 389.984L182.366 389.69L182.065 389.938L182.32 390.234L182.608 389.984ZM208.248 419.569L207.959 419.818V419.818L208.248 419.569ZM209.047 420.491L208.952 420.861L210.135 421.164L209.335 420.242L209.047 420.491ZM207.865 420.187L207.77 420.557H207.77L207.865 420.187ZM168.117 409.974L168.211 409.605L167.854 409.513L167.751 409.867L168.117 409.974ZM156.916 448.355L156.55 448.249V448.249L156.916 448.355ZM156.613 449.392L156.261 449.539L156.677 450.536L156.979 449.499L156.613 449.392ZM156.198 448.395L156.55 448.249V448.249L156.198 448.395ZM141.536 413.179L141.888 413.033L141.752 412.708L141.417 412.817L141.536 413.179ZM105.923 424.786L105.805 424.424H105.805L105.923 424.786ZM104.871 425.129L104.555 424.916L103.938 425.834L104.99 425.491L104.871 425.129ZM105.489 424.211L105.172 423.998V423.998L105.489 424.211ZM127.565 391.387L127.881 391.6L128.09 391.29L127.784 391.076L127.565 391.387ZM96.5914 369.612L96.8107 369.3H96.8107L96.5914 369.612ZM95.6924 368.98L95.6714 368.599L94.5741 368.66L95.4731 369.292L95.6924 368.98ZM96.7897 368.92L96.7687 368.539H96.7687L96.7897 368.92ZM135.249 366.801L135.27 367.182L135.646 367.161L135.63 366.785L135.249 366.801ZM133.916 335.66L134.297 335.643V335.643L133.916 335.66ZM133.871 334.602L134.154 334.346L133.445 333.56L133.49 334.618L133.871 334.602ZM134.58 335.388L134.297 335.643V335.643L134.58 335.388ZM158.303 361.691L158.02 361.946L158.412 362.381L158.651 361.847L158.303 361.691ZM216.078 232.633L216.426 232.789L216.666 232.252H216.078V232.633ZM139.193 232.633L138.862 232.445L138.539 233.014H139.193V232.633ZM139.516 232.064L139.848 232.252H139.848L139.516 232.064ZM208.767 109.937L208.436 109.749L208.436 109.749L208.767 109.937ZM316.727 211.208L316.396 211.02L316.396 211.02L316.727 211.208ZM374.013 110.507V110.125H373.792L373.682 110.318L374.013 110.507ZM316.617 211.401V211.782H316.839L316.949 211.59L316.617 211.401ZM178.047 211.401L177.716 211.213L177.391 211.782H178.047V211.401ZM178.371 210.832L178.702 211.02V211.02L178.371 210.832ZM235.435 110.507L235.766 110.695L236.09 110.125H235.435V110.507ZM209.321 110.507V110.125H209.099L208.989 110.319L209.321 110.507ZM140.502 231.87L140.17 231.682L139.848 232.252H140.502V231.87ZM217.255 231.87L217.603 232.026L217.843 231.489H217.255V231.87ZM217.014 232.407L216.666 232.252V232.252L217.014 232.407ZM158.76 362.537L159.108 362.692V362.692L158.76 362.537ZM158.521 363.071L158.237 363.326L158.629 363.761L158.868 363.226L158.521 363.071ZM158.129 362.636L158.412 362.381H158.412L158.129 362.636ZM134.723 336.685L135.006 336.43L134.297 335.643L134.342 336.701L134.723 336.685ZM136.027 367.145L136.408 367.129V367.129L136.027 367.145ZM136.043 367.521L136.064 367.902L136.44 367.881L136.424 367.505L136.043 367.521ZM135.667 367.542L135.688 367.922H135.688L135.667 367.542ZM97.929 369.621L97.908 369.24L96.8107 369.3L97.7097 369.932L97.929 369.621ZM128.309 390.979L128.09 391.29H128.09L128.309 390.979ZM128.615 391.193L128.931 391.406L129.139 391.096L128.834 390.881L128.615 391.193ZM128.406 391.503L128.09 391.29H128.09L128.406 391.503ZM106.739 423.718L106.423 423.506L105.805 424.424L106.857 424.081L106.739 423.718ZM141.634 412.345L141.752 412.708H141.752L141.634 412.345ZM141.969 412.236L142.321 412.09L142.185 411.765L141.851 411.874L141.969 412.236ZM142.104 412.561L141.752 412.708H141.752L142.104 412.561ZM156.487 447.105L156.135 447.251L156.55 448.249L156.853 447.212L156.487 447.105ZM167.488 409.406L167.854 409.513V409.513L167.488 409.406ZM167.591 409.052L167.686 408.683L167.329 408.591L167.225 408.945L167.591 409.052ZM167.949 409.144L168.044 408.775H168.044L167.949 409.144ZM206.872 419.145L206.777 419.514L207.959 419.818L207.16 418.895L206.872 419.145ZM181.777 390.188L181.488 390.438L181.488 390.438L181.777 390.188ZM181.521 389.893L181.278 389.599L180.977 389.848L181.233 390.143L181.521 389.893ZM181.822 389.645L182.065 389.938H182.065L181.822 389.645ZM212.79 364.078L213.033 364.372L213.911 363.647L212.774 363.697L212.79 364.078ZM164.769 366.183L164.786 366.564H164.786L164.769 366.183ZM164.011 366.216L163.695 366.002L163.27 366.63L164.028 366.597L164.011 366.216ZM164.437 365.588L164.121 365.374V365.374L164.437 365.588ZM255.003 232.038L255.319 232.252V232.252L255.003 232.038ZM255.117 231.87V231.489H254.915L254.801 231.656L255.117 231.87ZM332.046 231.87V232.252H332.27L332.379 232.056L332.046 231.87ZM399.706 110.507L400.039 110.692L400.355 110.125H399.706V110.507ZM137.614 387.31C137.614 381.285 142.477 376.424 148.501 376.424V375.661C142.056 375.661 136.851 380.864 136.851 387.31H137.614ZM148.501 398.181C142.476 398.181 137.614 393.314 137.614 387.31H136.851C136.851 393.736 142.056 398.943 148.501 398.943V398.181ZM159.399 387.31C159.399 393.313 154.525 398.181 148.501 398.181V398.943C154.945 398.943 160.161 393.736 160.161 387.31H159.399ZM148.501 376.424C154.525 376.424 159.399 381.286 159.399 387.31H160.161C160.161 380.864 154.945 375.661 148.501 375.661V376.424ZM148.501 374.899C141.635 374.899 136.089 380.443 136.089 387.31H136.851C136.851 380.864 142.056 375.661 148.501 375.661V374.899ZM160.923 387.31C160.923 380.442 155.365 374.899 148.501 374.899V375.661C154.945 375.661 160.161 380.864 160.161 387.31H160.923ZM148.501 399.706C155.364 399.706 160.923 394.158 160.923 387.31H160.161C160.161 393.736 154.945 398.943 148.501 398.943V399.706ZM136.089 387.31C136.089 394.157 141.635 399.706 148.501 399.706V398.943C142.056 398.943 136.851 393.736 136.851 387.31H136.089ZM209.099 109.363H208.877V110.125H209.099V109.363ZM236.09 109.363H209.099V110.125H236.09V109.363ZM236.746 109.363H236.09V110.125H236.746V109.363ZM236.753 110.502L237.077 109.933L236.414 109.556L236.09 110.125L236.753 110.502ZM179.689 210.827L236.753 110.502L236.09 110.125L179.026 210.45L179.689 210.827ZM316.174 210.258H179.358V211.02H316.174V210.258ZM373.129 109.748L315.843 210.45L316.505 210.827L373.791 110.125L373.129 109.748ZM373.98 109.794L373.649 109.606L373.272 110.268L373.603 110.457L373.98 109.794ZM373.41 109.744V110.125H374.173V109.744H373.41ZM400.355 109.363H373.791V110.125H400.355V109.363ZM401.004 109.363H400.355V110.125H401.004V109.363ZM401.021 110.497L401.337 109.93L400.671 109.559L400.355 110.125L401.021 110.497ZM332.936 232.623L401.021 110.497L400.355 110.125L332.27 232.252L332.936 232.623ZM332.827 232.818L332.936 232.623L332.27 232.252L332.161 232.447L332.827 232.818ZM332.27 233.014H332.494V232.252H332.27V233.014ZM255.521 233.014H332.27V232.252H255.521V233.014ZM165.809 365.602L255.837 232.847L255.206 232.419L165.178 365.174L165.809 365.602ZM213.878 362.886L165.477 365.007L165.51 365.769L213.911 363.647L213.878 362.886ZM215.015 362.836L213.878 362.886L213.911 363.647L215.048 363.597L215.015 362.836ZM214.396 364.235L215.274 363.51L214.789 362.923L213.911 363.647L214.396 364.235ZM182.851 390.278L214.396 364.235L213.911 363.647L182.366 389.69L182.851 390.278ZM208.536 419.319L182.897 389.734L182.32 390.234L207.959 419.818L208.536 419.319ZM209.335 420.242L208.536 419.319L207.959 419.818L208.759 420.741L209.335 420.242ZM207.77 420.557L208.952 420.861L209.142 420.122L207.959 419.818L207.77 420.557ZM168.022 410.343L207.77 420.557L207.959 419.818L168.211 409.605L168.022 410.343ZM157.282 448.462L168.482 410.081L167.751 409.867L156.55 448.249L157.282 448.462ZM156.979 449.499L157.282 448.462L156.55 448.249L156.247 449.286L156.979 449.499ZM155.846 448.542L156.261 449.539L156.965 449.246L156.55 448.249L155.846 448.542ZM141.184 413.326L155.846 448.542L156.55 448.249L141.888 413.033L141.184 413.326ZM106.041 425.148L141.654 413.542L141.417 412.817L105.805 424.424L106.041 425.148ZM104.99 425.491L106.041 425.148L105.805 424.424L104.753 424.766L104.99 425.491ZM105.172 423.998L104.555 424.916L105.188 425.342L105.805 424.424L105.172 423.998ZM127.249 391.175L105.172 423.998L105.805 424.424L127.881 391.6L127.249 391.175ZM96.3722 369.924L127.346 391.699L127.784 391.076L96.8107 369.3L96.3722 369.924ZM95.4731 369.292L96.3722 369.924L96.8107 369.3L95.9116 368.668L95.4731 369.292ZM96.7687 368.539L95.6714 368.599L95.7134 369.361L96.8107 369.3L96.7687 368.539ZM135.228 366.421L96.7687 368.539L96.8107 369.3L135.27 367.182L135.228 366.421ZM133.535 335.676L134.869 366.818L135.63 366.785L134.297 335.643L133.535 335.676ZM133.49 334.618L133.535 335.676L134.297 335.643L134.252 334.585L133.49 334.618ZM134.863 335.133L134.154 334.346L133.588 334.857L134.297 335.643L134.863 335.133ZM158.586 361.436L134.863 335.133L134.297 335.643L158.02 361.946L158.586 361.436ZM215.73 232.477L157.955 361.535L158.651 361.847L216.426 232.789L215.73 232.477ZM139.848 233.014H216.078V232.252H139.848V233.014ZM139.193 233.014H139.848V232.252H139.193V233.014ZM139.184 231.876L138.862 232.445L139.525 232.821L139.848 232.252L139.184 231.876ZM208.436 109.749L139.184 231.876L139.848 232.252L209.099 110.125L208.436 109.749ZM208.545 109.556L208.436 109.749L209.099 110.125L209.208 109.932L208.545 109.556ZM317.058 211.397L374.345 110.695L373.682 110.318L316.396 211.02L317.058 211.397ZM316.949 211.59L317.058 211.397L316.396 211.02L316.286 211.213L316.949 211.59ZM316.396 211.782H316.617V211.02H316.396V211.782ZM178.702 211.782H316.396V211.02H178.702V211.782ZM178.047 211.782H178.702V211.02H178.047V211.782ZM178.04 210.643L177.716 211.213L178.378 211.59L178.702 211.02L178.04 210.643ZM235.103 110.318L178.04 210.643L178.702 211.02L235.766 110.695L235.103 110.318ZM209.321 110.888H235.435V110.125H209.321V110.888ZM140.834 232.058L209.652 110.695L208.989 110.319L140.17 231.682L140.834 232.058ZM216.666 231.489H140.502V232.252H216.666V231.489ZM217.255 231.489H216.666V232.252H217.255V231.489ZM217.362 232.563L217.603 232.026L216.907 231.715L216.666 232.252L217.362 232.563ZM159.108 362.692L217.362 232.563L216.666 232.252L158.412 362.381L159.108 362.692ZM158.868 363.226L159.108 362.692L158.412 362.381L158.173 362.915L158.868 363.226ZM157.846 362.891L158.237 363.326L158.804 362.815L158.412 362.381L157.846 362.891ZM134.44 336.94L157.846 362.891L158.412 362.381L135.006 336.43L134.44 336.94ZM136.408 367.129L135.104 336.669L134.342 336.701L135.646 367.161L136.408 367.129ZM136.424 367.505L136.408 367.129L135.646 367.161L135.663 367.537L136.424 367.505ZM135.688 367.922L136.064 367.902L136.022 367.14L135.646 367.161L135.688 367.922ZM97.9499 370.001L135.688 367.922L135.646 367.161L97.908 369.24L97.9499 370.001ZM128.528 390.667L98.1482 369.309L97.7097 369.932L128.09 391.29L128.528 390.667ZM128.834 390.881L128.528 390.667L128.09 391.29L128.395 391.505L128.834 390.881ZM128.722 391.716L128.931 391.406L128.298 390.98L128.09 391.29L128.722 391.716ZM107.055 423.931L128.722 391.716L128.09 391.29L106.423 423.506L107.055 423.931ZM141.516 411.983L106.621 423.356L106.857 424.081L141.752 412.708L141.516 411.983ZM141.851 411.874L141.516 411.983L141.752 412.708L142.087 412.599L141.851 411.874ZM142.456 412.415L142.321 412.09L141.617 412.383L141.752 412.708L142.456 412.415ZM156.839 446.958L142.456 412.415L141.752 412.708L156.135 447.251L156.839 446.958ZM167.122 409.299L156.121 446.998L156.853 447.212L167.854 409.513L167.122 409.299ZM167.225 408.945L167.122 409.299L167.854 409.513L167.957 409.159L167.225 408.945ZM168.044 408.775L167.686 408.683L167.497 409.421L167.854 409.513L168.044 408.775ZM206.966 418.776L168.044 408.775L167.854 409.513L206.777 419.514L206.966 418.776ZM181.488 390.438L206.584 419.395L207.16 418.895L182.065 389.938L181.488 390.438ZM181.233 390.143L181.488 390.438L182.065 389.938L181.809 389.643L181.233 390.143ZM181.579 389.35L181.278 389.599L181.764 390.187L182.065 389.938L181.579 389.35ZM212.548 363.784L181.579 389.351L182.065 389.938L213.033 364.372L212.548 363.784ZM164.786 366.564L212.807 364.459L212.774 363.697L164.752 365.802L164.786 366.564ZM164.028 366.597L164.786 366.564L164.752 365.802L163.994 365.836L164.028 366.597ZM164.121 365.374L163.695 366.002L164.326 366.43L164.752 365.802L164.121 365.374ZM254.688 231.824L164.121 365.374L164.752 365.802L255.319 232.252L254.688 231.824ZM254.801 231.656L254.688 231.824L255.319 232.252L255.432 232.084L254.801 231.656ZM255.319 231.489H255.117V232.252H255.319V231.489ZM332.046 231.489H255.319V232.252H332.046V231.489ZM399.373 110.321L331.713 231.685L332.379 232.056L400.039 110.692L399.373 110.321ZM374.013 110.888H399.706V110.125H374.013V110.888Z" fill="#0F1216"/>
</g>
</g>
</svg>
