<svg width="500" height="500" viewBox="0 0 500 500" fill="none" xmlns="http://www.w3.org/2000/svg">
<g id="Style=Alternate, Color=Dark">
<g id="TRaptors_P_cmyk_Red">
<path id="Fill 1" fill-rule="evenodd" clip-rule="evenodd" d="M334.127 481.913C334.528 482.383 334.777 482.997 335.04 482.978C336.339 482.935 338.927 482.508 338.927 482.508L341.499 481.401L348.789 478.561C348.789 478.561 366.992 469.886 367.032 469.843C367.117 469.781 370.228 468.143 370.228 468.143L371.902 467.404L373.867 466.062L377.089 464.086L380.92 461.985L385.872 458.749L394.463 452.694L398.654 449.383L404.683 445.022L410.175 440.943L412.789 439.036L416.4 435.655L420.203 431.895L426.262 425.39L433.344 418.589L441.532 409.174L446.014 403.182L447.59 401.017L452.405 395.087L461.768 381.614L464.439 377.197L470.705 364.782L474.301 358.029L480.359 345.704L483.65 338.226L487.22 326.751C487.22 326.751 491.438 311.577 493.707 303.65C493.984 302.737 494.067 301.928 493.5 301.12C492.2 299.295 491.245 296.959 490.027 294.913C489.392 293.855 488.479 292.769 487.884 291.899C487.289 291.007 485.699 288.988 485.076 288.263C484.413 287.475 483.61 286.818 482.808 286.204C480.843 284.378 479.128 282.547 477.483 281.357C476.681 280.914 475.974 280.362 475.268 279.809C470.179 275.876 464.992 272.73 459.154 270.201C456.734 269.164 454.202 268.265 451.671 267.373C449.915 266.779 447.065 266.101 445.212 265.784C444.133 265.59 443.276 265.59 442.446 266.101C441.643 266.654 441.617 267.884 441.492 269.095C441.146 272.239 441.021 275.723 440.772 278.897C440.467 282.187 440.232 285.456 439.983 288.753C439.722 291.726 439.582 294.705 439.222 297.656C438.752 301.569 438.2 305.453 437.466 309.345C436.097 316.59 434.534 323.792 433.025 330.994C432.597 332.992 432.321 335.032 431.545 336.905C430.218 339.967 429.263 343.113 428.655 346.361C427.327 353.225 424.823 359.688 422.486 366.165C420.563 371.46 418.682 376.852 415.681 381.655C415.446 381.973 415.334 382.381 415.21 382.7C413.785 386.038 412.444 389.411 410.937 392.708C409.968 394.852 408.584 396.808 407.686 398.957C406.538 401.674 405.002 404.163 403.439 406.604C400.907 410.515 398.252 414.337 396.053 418.423C394.544 421.312 392.802 423.988 390.907 426.621C390.396 427.305 389.981 427.982 389.511 428.66C388.003 430.893 386.62 433.188 384.932 435.269C381.765 439.283 378.473 443.299 375.112 447.191C373.037 449.661 370.712 451.906 368.5 454.25C366.48 456.372 364.489 458.501 362.469 460.623C362.04 461.086 361.486 461.431 361.016 461.853C359.814 462.856 358.513 463.829 357.406 464.936C354.792 467.549 352.095 470.059 349.011 472.118C347.682 473.01 346.354 473.88 345.15 474.904C341.887 477.703 338.222 479.791 334.127 481.913Z" fill="#BB1C3F"/>
<path id="Fill 2" fill-rule="evenodd" clip-rule="evenodd" d="M496.722 287.309C496.861 287.309 496.902 287.094 496.917 286.798C496.998 286.182 497.109 285.055 497.109 285.055L498.879 269.246L499.932 254.454L500 239.71L499.959 237.457L498.217 220.756C498.217 220.756 496.168 205.75 494.621 198.015C494.052 195.298 492.366 193.895 490.137 192.809C489.392 192.45 488.589 192.063 487.774 191.814C486.155 191.303 484.329 190.494 482.697 190.093C478.934 189.131 475.366 187.901 471.548 187.266C467.066 186.498 462.474 186.028 457.951 185.606C454.202 185.268 450.469 185.136 446.705 185.075C443.718 185.033 441.92 184.992 438.918 184.992C437.327 184.992 435.626 185.053 434.879 186.028C434.175 187.031 434.686 188.793 434.962 190.597C435.516 194.234 436.137 196.058 436.747 199.674C438.558 210.381 440.467 221.053 440.855 231.953C441.063 236.842 441.339 241.708 441.561 246.616C441.602 247.997 441.602 248.889 441.616 250.292C441.642 251.143 441.837 252.056 442.238 252.67C442.667 253.348 443.344 253.438 444.133 253.694C445.088 253.991 445.973 254.074 446.885 254.289C447.826 254.543 449.57 254.883 450.759 255.262C455.102 256.665 459.708 258.194 463.927 259.914C466.9 261.125 469.681 262.825 472.557 264.359C472.89 264.505 473.208 264.74 473.512 264.975C475.186 266.205 476.873 267.462 478.533 268.694C482.462 271.583 486.529 274.389 489.544 278.343C490.11 279.104 490.802 279.808 491.522 280.444C492.683 281.489 494.662 285.227 496.114 286.928C496.363 287.225 496.598 287.309 496.722 287.309Z" fill="#BB1C3F"/>
<path id="Fill 3" fill-rule="evenodd" clip-rule="evenodd" d="M385.126 109.53C386.62 109.446 387.976 109.405 389.122 109.274C389.981 109.191 390.768 109.149 391.142 108.257C391.529 107.367 390.852 106.432 390.631 106.025C390.313 105.279 387.463 100.226 387.463 100.226L384.682 95.8911L372.938 78.9773L370.505 76.0874L368.251 73.0256L354.888 58.3633L350.795 54.3472L336.077 40.7441L324.03 31.4409L319.672 29.1244L305.48 20.4979L295.576 15.1414L293.668 14.3328L285.589 11.4003L273.611 6.89488L272.685 6.68145L268.812 5.74705L267.788 5.55444L264.427 4.68251L257.304 3.38979L253.887 3.2796L247.552 2.09013L239.93 1.57912L237.26 1.28847L232.474 1.19824L224.521 1.41341L216.609 2.30529L210.51 2.45712L205.129 3.05143L199.583 4.1498L195.378 5.44946L188.585 6.76994L187.036 6.72222L180.688 9.01702L176.925 10.0408L174.629 11.4428L169.069 12.9498L166.399 14.5054L163.052 15.7981L154.821 19.2191L144.364 23.2976L140.906 24.9574L133.589 28.911L127.213 33.072L121.251 36.1745L119.107 37.4117L112.607 40.8552L111.542 41.5328L104.141 47.3526L98.0139 51.4798L96.8099 52.2875L89.8525 57.769L87.3481 59.8711C87.3481 59.8711 83.6007 63.0778 83.5044 63.5072L86.1311 62.7177C86.1311 62.7177 90.9176 60.9556 90.987 60.9981C91.0834 61.0389 91.9132 61.0806 91.9132 61.0806L98.7882 58.2748H99.7987L107.337 55.3232C107.337 55.3232 111.279 53.988 111.279 54.093C111.279 54.1962 115.29 52.6276 115.29 52.6276L120.892 50.6286L134.434 45.4448L135.679 45.3754L142.622 42.9574L148.113 40.7034L148.902 41.2768C148.902 41.2768 159.413 41.5328 159.552 41.5328L166.303 42.0655L166.523 42.1687L180.189 43.274L180.342 43.15L199.223 44.1251L199.333 44.5954L206.029 50.3311L206.54 50.3111L213.359 56.9196L213.982 56.6229L223.374 56.8771L223.844 56.5595L247.468 57.9364L247.607 58.4682L258.12 64.544L258.576 64.4824L277.139 73.5158L277.276 74.5118L287.817 70.4124L303.254 75.618L305.868 79.8692L311.539 80.2484L316.988 86.4152L317.542 86.4343L321.94 91.4464L322.01 91.7648H322.618L334.805 94.529L339.287 101.456L350.56 105.534C350.56 105.534 362.661 108.638 368.817 109.405C374.323 110.124 380.851 109.827 385.126 109.53Z" fill="#BB1C3F"/>
<path id="Fill 4" fill-rule="evenodd" clip-rule="evenodd" d="M490.221 180.976C489.862 179.185 488.589 175.577 488.589 175.577L487.884 173.62L487.261 171.223L485.269 165.271L483.415 160.086L477.634 147.208L474.992 140.857L471.7 133.543L467.744 127.066L466.818 125.192L464.174 119.905L461.727 115.91L443.814 91.6806C443.814 91.6806 442.196 89.7459 441.366 88.7915C440.978 88.2805 440.855 87.9014 440.316 87.9014C440.273 87.9014 440.232 87.9421 440.191 87.9421C440.191 87.9421 435.004 96.4021 432.832 98.8218C430.674 101.2 426.332 105.195 426.332 105.195C426.332 105.195 422.68 108.194 422.042 108.659C421.421 109.129 418.641 110.973 418.641 110.973L414.78 113.186C414.78 113.186 411.877 114.527 411.407 114.714C410.937 114.908 410.383 115.1 410.064 115.481C409.788 115.867 409.704 116.157 409.815 116.802C409.912 117.306 410.064 117.817 410.299 118.287C411.849 121.535 413.273 124.875 414.975 128.041C417.575 132.776 419.166 137.836 421.296 142.764C422.016 144.382 422.721 146.041 423.273 147.7C424.699 152.054 426.054 156.45 427.452 160.785C428.033 162.719 428.668 164.655 429.249 166.611C429.803 168.539 430.26 170.496 430.799 172.474C431.117 173.793 431.989 174.368 433.289 174.347C434.561 174.347 435.834 174.298 437.106 174.236C441.616 174.09 446.124 173.96 450.675 173.877C451.976 173.856 460.981 174.685 460.981 174.685C460.981 174.685 464.217 175.024 465.794 175.28C469.21 175.915 472.641 176.682 476.057 177.402C478.934 177.996 481.894 178.977 484.564 180.209C485.865 180.804 487.289 181.162 488.727 181.59C489.156 181.715 489.862 181.826 489.986 181.756C490.096 181.715 490.262 181.211 490.221 180.976Z" fill="#BB1C3F"/>
<path id="Fill 5" fill-rule="evenodd" clip-rule="evenodd" d="M431.186 80.2482C431.048 79.6123 429.858 77.7877 429.858 77.7877L428.987 76.2529L426.538 73.4471L424.892 71.069L421.822 68.0342C421.822 68.0342 421.145 67.4538 420.826 67.177C415.43 62.8017 404.67 54.1128 404.642 54.0711C404.642 54.0503 401.669 51.7355 401.669 51.7355L396.094 46.8414L368.14 30.0578L346.076 19.6197C346.076 19.6197 334.376 15.0302 334.362 15.0571C334.362 15.0571 330.101 13.5657 330.06 13.5657C329.99 13.5926 315.647 8.61603 315.647 8.61603L305.48 6.04361L295.617 3.92147L294.069 3.77051L293.198 4.64071L293.585 5.07017C293.585 5.07017 294.581 5.57424 295.065 5.74689C298.107 6.97714 301.206 8.08419 304.277 9.32139C306.269 10.1222 308.164 11.1867 310.225 11.7819C311.65 12.2105 312.964 12.7146 314.222 13.4616C318.925 16.1641 323.573 18.8806 328.234 21.6456C331.001 23.3174 333.587 25.2539 335.966 27.5062C337.806 29.1659 339.673 30.7553 341.858 31.9726C342.84 32.4767 343.643 33.3755 344.515 34.0947C344.984 34.4955 345.483 34.9033 345.966 35.325C348.691 37.579 351.68 39.5146 354.114 42.1469C356.699 44.9336 359.425 47.6093 362.191 50.2424C364.765 52.7931 367.392 55.2606 369.606 58.1497C371.431 60.5278 373.312 62.8642 375.429 64.9933C379.469 68.9877 382.58 73.7447 386.26 78.0367C386.73 78.5477 386.992 79.2331 387.38 79.8266C389.759 83.5668 391.903 87.4718 394.752 90.9136C396.759 93.2986 398.584 95.8502 399.898 98.6985C400.714 100.418 401.904 101.967 402.969 103.515C403.577 104.434 404.627 104.878 405.196 104.857C405.735 104.794 406.772 104.346 406.772 104.346L408.751 103.535C408.751 103.535 411.338 102.389 412.264 101.988C413.107 101.567 414.878 100.605 415.486 100.032C416.123 99.4585 418.737 97.634 420.245 96.2918C421.697 94.9297 424.699 91.4263 424.699 91.4263L426.871 88.5364L430.578 82.3296C430.578 82.3296 431.324 80.9336 431.186 80.2482Z" fill="#BB1C3F"/>
<path id="Fill 6" fill-rule="evenodd" clip-rule="evenodd" d="M419.526 173.304C418.018 168.652 416.856 164.248 415.195 159.658C413.813 155.898 412.789 152.034 411.004 148.419C409.982 146.255 409.414 143.89 408.598 141.617C408.169 140.47 407.602 139.412 407.216 138.265C405.154 132.396 402.374 127.66 399.566 122.152C399.441 121.834 399.29 121.605 399.026 121.094C398.75 120.583 398.529 120.112 397.836 119.733C397.145 119.332 396.55 119.601 395.293 119.754C392.913 120.03 389.883 120.327 388.653 120.327C387.532 120.327 382.815 120.707 379.068 121.004L378.195 120.749H373.632L361.569 119.18C357.171 118.544 347.046 116.014 347.046 116.014L339.645 113.463L330.544 110.36L329.852 110.727L315.62 109.619L315.177 109.875L307.182 103.793L306.254 103.73L301.276 99.244L301.082 98.3113L295.536 97.4819L295.024 97.7161L290.473 96.1475L289.96 95.6782L279.504 96.4451L270.043 92.5947L237.234 94.316L236.708 93.9777L230.511 94.4679L229.861 94.9303L213.718 96.1475L213.276 95.7597L190.246 109.046L189.97 110.021L188.931 110.974L188.378 110.595L176.815 109.509L176.178 109.786L155.707 109.916L155.292 109.703L149.428 109.509L147.657 108.473L126.188 125.049L126.121 125.471L118.595 131.421L110.187 127.425L109.688 127.66L106.589 126.742C106.589 126.742 91.1111 130.654 91.263 130.786C91.4288 130.868 76.8229 128.463 76.8229 128.463L75.7986 127.66L73.0608 130.46L67.2917 133.225L67.1545 133.716L55.6033 142.536L39.2274 154.329L20.803 168.015L12.4896 174.072L12.0608 177.617L8.57465 185.69L7.0816 192.664L4.74392 206.731L3.38802 212.808L2.89062 220.114L0.87066 235.286L0 268.563L0.897569 270.56L1.49306 279.699C1.49306 279.699 1.64583 281.295 2.00521 281.358C2.04688 281.399 2.04688 281.358 2.04688 281.399L42.8646 239.199L56.2535 233.8L67.4861 233.227L74.2917 225.43L74.9549 223.984L75.7847 224.365L94.1536 222.305L94.9288 221.732H101.804L102.826 222.111L105.041 219.202L113.255 214.121L122.067 208.086L146.813 208.432L146.979 208.938L156.675 209.856L164.242 208.342L178.115 194.193L178.391 194.213L189.401 183.734L205.959 181.613L206.595 181.162L207.341 181.889L215.932 185.945L216.554 185.394L224.161 184.461L224.549 184.051L231.687 182.843L232.323 182.442L240.11 189.07L240.553 188.559L256.474 188.283L257.844 187.288L270.652 187.902L271.358 188.159L273.334 187.667L273.681 187.093L278.785 184.799L279.379 184.84L285.286 182.207L285.769 181.653L292.063 179.275L292.534 178.55L310.018 171.879L310.141 171.623L313.226 170.65L313.905 169.964L314.776 170.926L319.852 173.407L321.414 173.449L327.059 176.621L327.474 176.089L329.216 175.26L329.382 175.321L332.232 174.002L332.356 173.815L336.437 172.853L346.88 175.578L349.092 175.067L351.002 176.345L358.679 177.492L366.189 180.382C366.189 180.382 370.518 180.085 370.561 180.085C370.628 180.085 371.985 181.017 371.985 181.017L373.077 180.382C373.077 180.382 387.864 178.529 395.264 177.915C400.077 177.555 404.878 177.042 409.704 176.553C412.403 176.296 415.127 176.047 417.852 175.743C419.318 175.578 420.065 174.982 419.526 173.304Z" fill="#BB1C3F"/>
<path id="Fill 7" fill-rule="evenodd" clip-rule="evenodd" d="M430.329 249.055C430.329 248.04 430.135 247.403 430.079 246.381C429.928 243.533 429.775 240.684 429.623 237.838C429.583 236.883 429.458 235.929 429.388 234.968C429.168 231.422 429.07 227.89 428.738 224.323C428.268 219.816 427.632 215.399 426.953 210.934C426.442 207.492 425.764 204.008 425.156 200.607C424.478 197.02 423.911 193.723 423.137 190.134C422.361 186.499 421.572 185.988 417.825 186.458C417.534 186.499 417.215 186.539 416.897 186.602C415.529 186.879 413.592 187.093 412.209 187.266C404.947 188.199 398.114 188.58 390.867 189.45L370.048 196.702L339.992 195.893L336.713 194.828L336.699 195.361L327.847 201.885L326.602 202.01L319.603 208.515L319.216 209.448L301.207 211.826L284.774 224.497L283.072 224.448L274.316 229.589L270.845 229.999L267.428 232.908L266.529 232.189L249.764 231.042L246.86 234.311L246.929 234.864L232.433 250.652L232.281 251.565L231.714 251.697L213.248 272.73L208.172 272.814L207.771 273.325L192.611 275.958L191.435 275.896C191.435 275.896 191.117 276.595 191.062 276.644C190.951 276.684 166.08 290.496 166.08 290.496L154.877 289.174L152.485 290.005L141.321 289.328L130.255 301.293L123.643 302.626L119.896 302.461L115.968 304.119L113.63 303.863L113.768 304.348L99.9768 314.999L98.6782 315.248L77.1686 331.977L77.3483 332.951L64.0697 365.129L64.5948 366.483L42.6582 368.481L35.4516 374.689L34.7598 377.003L44.5532 390.558L51.7728 401.59L57.969 409.56L68.1079 420.545C68.1079 420.545 68.1643 421.312 68.3856 421.373C68.5653 421.457 69.7268 421.52 69.7676 421.568C69.8231 421.609 75.8396 423.606 75.8822 423.649C75.9091 423.69 83.3509 425.985 83.3509 425.985C83.3509 425.985 83.4351 426.345 83.5167 426.345C83.5592 426.345 84.265 426.24 84.265 426.24L96.6582 431.044L97.5992 431.003L98.2763 431.804C98.2763 431.804 99.3145 431.804 99.3839 431.804C99.4655 431.847 102.315 433.761 102.315 433.761L107.502 430.912L107.752 430.934L110.075 429.447L128.887 434.189L142.691 427.132L173.301 424.111L185.847 403.906C187.854 401.93 191.421 398.293 191.421 398.293L191.906 398.274C191.906 398.274 196.222 394.277 196.304 394.195C196.347 394.112 196.304 393.662 196.304 393.662L204.202 386.459L207.881 382.638C207.881 382.638 208.697 382.146 208.808 382.125C208.919 382.125 213.041 377.722 213.041 377.722L216.458 374.197L217.357 374.032L216.485 370.907L220.04 357.94L226.9 355.9L227.163 355.643L229.196 355.181L229.238 354.034L238.451 339.117L239.294 338.73L243.084 331.382L249.337 327.829L250.167 326.812L251.412 327C251.412 327 255.049 324.836 255.159 324.878H255.589L262.352 321.904L262.92 321.097L285.41 310.769L286.752 310.638L287.029 309.407L287.9 308.751L290.224 300.905L297.321 297.849L305.55 296.827L313.005 291.642L323.683 292.112L324.721 293.004L325.275 292.32L340.143 285.671L340.06 283.755L343.643 276.94L350.946 274.984L351.307 274.514L361.321 272.412L365.166 267.865L365.65 267.76C365.65 267.76 367.973 265.508 368.03 265.465C368.112 265.465 374.918 266.398 374.918 266.398L375.277 266.654L379.025 267.187L381.349 267.463C381.349 267.463 391.461 262.721 395.721 261.084C397.505 260.406 399.249 259.957 400.907 259.363C403.246 258.512 405.583 257.71 407.921 256.922C409.138 256.535 410.258 256.246 411.434 255.879L416.15 255.007L421.628 254.095L424.977 253.9C424.977 253.9 426.594 253.694 427.202 253.604C427.798 253.479 428.738 253.479 429.458 252.864C430.176 252.201 430.163 251.524 430.245 250.929C430.301 250.292 430.329 249.975 430.329 249.055Z" fill="#BB1C3F"/>
<path id="Fill 8" fill-rule="evenodd" clip-rule="evenodd" d="M430.079 268.735C430.121 267.947 430.245 266.633 429.583 265.928C428.973 265.251 428.115 265.12 427.59 265.12C427.05 265.12 424.464 265.465 424.464 265.465L420.107 266.143C419.61 266.205 419.125 266.268 418.655 266.42C416.04 267.035 413.426 267.568 410.854 268.285C408.004 269.115 405.071 269.882 402.374 271.071C399.497 272.351 396.275 273.366 393.398 274.728C392.373 275.219 382.705 279.933 378.306 282.125L372.663 288.117L372.456 289.431L371.709 289.093L368.182 289.306L367.987 289.604L356.534 293.385L356.632 294.663L355.442 295.831L355.428 296.571L350.047 306.006L349.301 306.048L349.19 307.03C349.19 307.03 348.097 308.812 346.88 310.81L322.688 326.364L322.176 326.323L318.497 329.385L315.938 339.581L313.586 341.834L304.138 376.727L305.398 380.681L291.413 387.373H289.159L286.475 399.551L286.047 399.932L282.588 410.985L282.782 411.579L281.372 421.077L280.846 421.733L281.33 422.625L267.872 443.922L266.876 444.22L263.583 449.383L263.486 450.42C263.486 450.42 252.034 466.594 252.034 466.553C252.005 466.484 239.916 473.714 239.916 473.714L240.58 474.731C240.58 474.861 239.93 479.618 239.93 479.618L240.995 481.421L239.281 481.954L230.512 487.138L229.584 486.931L216.734 494.535L215.213 496.94C215.213 497.127 220.234 497.679 220.234 497.679L228.547 498.364L234.245 498.64L240.83 498.744L243.887 498.868L248.867 499L253.818 498.868L271.785 496.705L282.478 494.832L290.556 492.626L299.312 490.076L310.489 485.652L311.29 485.188L314.43 483.399C314.43 483.399 323.434 478.642 327.529 475.581C334.459 470.313 341.485 465.129 347.834 459.115C350.006 457.048 352.136 454.968 354.281 452.866C356.314 450.847 358.319 448.809 360.366 446.79C360.698 446.424 361.169 446.086 361.334 445.663C362.011 444.004 363.312 442.879 364.53 441.669C365.36 440.777 366.245 439.928 366.909 438.904C368.265 436.741 370.326 435.164 372.097 433.382C373.519 431.957 374.862 430.361 376.01 428.728C378.126 425.709 380.104 422.604 382.124 419.521C384.835 415.422 387.781 411.469 390.077 407.155C392.553 402.566 394.974 397.955 397.589 393.427C399.775 389.584 402.028 385.693 403.73 381.614C406.566 374.861 409.457 368.143 412.07 361.34C414.836 354.076 417.036 346.638 419.015 339.137C420.507 333.546 421.352 327.807 423.413 322.368C423.689 321.65 423.801 320.882 423.911 320.163C424.699 315.573 425.487 311.025 426.179 306.436C426.872 302.101 427.479 297.761 428.102 293.425C428.518 290.474 429.014 287.522 429.263 284.544C429.61 280.444 429.803 276.303 429.969 272.177C429.983 271.736 430.025 270.817 430.025 270.817C430.025 270.817 430.052 269.522 430.079 268.735Z" fill="#BB1C3F"/>
</g>
</g>
</svg>
