<svg width="500" height="500" viewBox="0 0 500 500" fill="none" xmlns="http://www.w3.org/2000/svg">
<path d="M500 80L451.103 184.878H255.382L193.707 317.153H138.395C138.829 310.556 140.157 303.95 142.292 297.483C147.605 281.51 157.544 268.359 170.105 258.967C173.403 262.734 176.398 266.806 179.072 271.12C179.497 271.797 180.313 271.727 180.591 271.12L269.723 80H500Z" fill="#061922"/>
<path d="M46.7361 358.151C41.1371 369.323 33.1858 378.802 23.4896 386.059C15.3993 376.719 8.95833 365.651 4.80035 353.16C2.01389 344.8 0.451389 336.345 0 327.969H55C54.2969 338.342 51.5104 348.576 46.7361 358.16" fill="#061922"/>
<path d="M91.3021 327.96V419.409C68.8281 418.116 47.5 408.984 31.0938 393.854C41.6059 385.712 50.2344 375.243 56.3802 362.995C61.9531 351.875 65.1215 340.008 65.8507 327.951H91.3021V327.96Z" fill="#061922"/>
<path d="M51.0764 297.483C53.2118 303.942 54.5399 310.548 54.9653 317.154H0C1.18056 295.661 9.55729 275.244 23.4635 259.133C35.9288 268.473 45.7986 281.589 51.0764 297.483Z" fill="#061922"/>
<path d="M91.3022 225.703V317.153H65.7987C65.3473 309.401 63.8543 301.641 61.3282 294.071C55.4689 276.467 44.6876 261.866 31.0244 251.302C40.8421 242.17 52.7084 235 66.2241 230.503C74.5574 227.743 82.9689 226.181 91.3022 225.703Z" fill="#061922"/>
<path d="M127.569 317.161H102.109V225.711C124.635 226.935 146.007 236.041 162.457 251.145C148.333 261.996 137.769 276.796 132.031 294.088C129.505 301.674 128.021 309.409 127.561 317.169" fill="#061922"/>
<path d="M162.465 394.003C152.691 403.03 140.877 410.14 127.448 414.61C119.045 417.397 110.538 418.985 102.109 419.411V327.961H127.517C128.264 340.01 131.432 351.885 136.979 362.996C143.151 375.322 151.875 385.834 162.465 394.003Z" fill="#061922"/>
<path d="M193.707 327.961C192.509 349.523 184.097 370.036 170.078 386.173C160.304 378.898 152.283 369.359 146.667 358.152C141.867 348.595 139.08 338.334 138.377 327.961H193.707Z" fill="#061922"/>
</svg>
