<svg width="500" height="500" viewBox="0 0 500 500" fill="none" xmlns="http://www.w3.org/2000/svg">
<g id="Style=Alternate, Color=Dark">
<g id="WWizards_P_pms">
<g id="Group 4">
<path id="Fill 1" fill-rule="evenodd" clip-rule="evenodd" d="M249.931 6.38477H249.5C114.95 6.39256 5.79134 115.409 5.56177 250.018V250.448C5.57563 385.087 114.601 494.296 249.24 494.445H249.574C384.169 494.408 493.298 385.369 493.461 250.709V250.397C493.431 115.81 384.496 6.63693 249.931 6.38477Z" fill="#FFFFFE"/>
<path id="Fill 3" fill-rule="evenodd" clip-rule="evenodd" d="M493.461 250.574V250.709C493.298 385.369 384.169 494.408 249.574 494.445H249.24C114.601 494.296 5.57563 385.086 5.56177 250.448V250.018C5.79135 115.409 114.95 6.39236 249.5 6.38456H249.931C384.496 6.63673 493.431 115.81 493.461 250.397V250.574ZM498.985 249.869C498.673 112.252 387.073 0.836901 249.515 0.829102H248.973C111.385 1.13413 0.0450486 112.794 0.0155938 250.285L0 250.56V250.716C0.178462 388.422 111.786 499.934 249.433 500H249.485V499.993H249.782C387.428 499.829 498.896 388.221 498.985 250.582C498.985 250.478 499 250.381 499 250.24C498.985 250.24 499 250.144 498.985 249.869Z" fill="#848683"/>
</g>
<path id="Fill 5" fill-rule="evenodd" clip-rule="evenodd" d="M167.954 194.993C193.303 169.653 203.971 140.02 203.971 140.02L209.629 119.441L210.966 114.636L185.002 100.095C185.002 100.095 169.855 89.5785 135.99 109.229C96.3355 132.624 64.0755 162.872 47.3841 194.955C38.1405 212.735 30.8053 233.203 27.0117 256.471C28.1916 300.504 42.0909 341.366 65.2554 375.455C58.648 311.994 119.954 242.472 167.954 194.993Z" fill="#121B2C"/>
<path id="Fill 6" fill-rule="evenodd" clip-rule="evenodd" d="M363.38 109.229C329.509 89.5785 314.37 100.095 314.37 100.095L288.413 114.636L289.742 119.441L295.399 140.02C295.399 140.02 306.062 169.653 331.417 194.993C379.269 242.323 440.367 311.566 434.19 374.871C457.451 340.392 471.261 299.033 472.064 254.488C468.18 232.03 460.971 212.234 451.987 194.955C435.296 162.872 403.021 132.624 363.38 109.229Z" fill="#121B2C"/>
<path id="Fill 7" fill-rule="evenodd" clip-rule="evenodd" d="M281.924 71.1893C370.91 81.2422 429.386 131.761 459.589 176.567C436.87 111.907 385.165 60.9224 320.057 39.1729C305.697 43.4138 289.78 52.3444 281.924 71.1893Z" fill="#BD2531"/>
<path id="Fill 8" fill-rule="evenodd" clip-rule="evenodd" d="M217.448 71.1891C209.555 52.248 193.503 43.3173 179.084 39.1094C113.576 60.9517 61.6257 112.415 39.0833 177.625C69.0804 132.56 127.772 81.3191 217.448 71.1891Z" fill="#BD2531"/>
<path id="Fill 9" fill-rule="evenodd" clip-rule="evenodd" d="M232.015 68.6793L249.679 42.6715L267.364 68.6793C274.455 49.2929 285.637 38.6092 296.848 32.7868C281.664 29.4965 265.916 27.7296 249.752 27.714C233.507 27.6958 217.692 29.4748 202.428 32.7643C213.668 38.5684 224.895 49.2296 232.015 68.6793Z" fill="#BD2531"/>
<path id="Fill 10" fill-rule="evenodd" clip-rule="evenodd" d="M370.612 263.771C334.424 205.206 252.262 146.066 249.678 144.225C247.11 146.066 164.955 205.206 128.759 263.771C79.9128 342.815 86.2603 388.399 98.8973 414.419C130.379 443.368 170.212 463.357 214.381 470.364L233.419 200.385L249.292 184.462L249.5 184.247V184.254L249.515 184.247L249.715 184.462L265.582 200.385L284.76 470.146L284.5 470.294C329.011 463.261 369.149 443.108 400.764 413.813C413.208 387.694 419.103 342.217 370.612 263.771Z" fill="#121B2C"/>
<path id="Fill 11" fill-rule="evenodd" clip-rule="evenodd" d="M265.582 200.385L249.715 184.462L249.901 490.018L284.76 470.146L265.582 200.385Z" fill="#848683"/>
<path id="Fill 12" fill-rule="evenodd" clip-rule="evenodd" d="M249.589 123.719L242.669 128.828L213.639 150.247L221.242 122.635L222.549 117.845L225.11 108.591L216.668 104.046L189.36 89.3266C203.141 86.2884 217.217 84.3058 231.443 83.3993L238.393 82.9617L238.675 82.3898L241.459 76.7009L241.897 75.8127L241.905 75.8058L249.678 59.9834L257.727 76.3404V76.3473L257.897 76.7009L260.696 82.3898L260.979 82.9617L267.935 83.3993C282.154 84.3058 296.231 86.2884 310.012 89.3266L282.711 104.046L274.269 108.591L276.823 117.845L278.137 122.635L285.733 150.247L256.71 128.828L249.789 123.719V123.578L249.678 123.659L249.589 123.578V123.719Z" fill="#848683"/>
<path id="Fill 13" fill-rule="evenodd" clip-rule="evenodd" d="M249.789 123.578V123.719L256.71 128.828L285.733 150.247L278.137 122.635L276.823 117.845L274.269 108.591L282.711 104.046L310.012 89.3266C296.231 86.2884 282.154 84.3058 267.935 83.3993L260.979 82.9617L260.696 82.3898L257.897 76.7009L257.727 76.3473V76.3404L249.678 59.9834L241.905 75.8058L241.897 75.8127L241.459 76.7009L238.675 82.3898L238.393 82.9617L231.443 83.3993C217.217 84.3058 203.141 86.2884 189.36 89.3266L216.668 104.046L225.11 108.591L222.549 117.845L221.242 122.635L213.639 150.247L242.669 128.828L249.589 123.719V123.578L249.678 123.659L249.789 123.578Z" fill="#848683"/>
</g>
</g>
</svg>
